<?xml version="1.0" encoding="UTF-8" standalone="no"?>
<!-- Created with Inkscape (http://www.inkscape.org/) -->

<svg
   width="297mm"
   height="210mm"
   viewBox="0 0 297 210"
   version="1.1"
   id="svg1"
   sodipodi:docname="panel6.bg.svg"
   inkscape:version="1.3.2 (091e20e, 2023-11-25, custom)"
   xml:space="preserve"
   xmlns:inkscape="http://www.inkscape.org/namespaces/inkscape"
   xmlns:sodipodi="http://sodipodi.sourceforge.net/DTD/sodipodi-0.dtd"
   xmlns="http://www.w3.org/2000/svg"
   xmlns:svg="http://www.w3.org/2000/svg"><sodipodi:namedview
     id="namedview1"
     pagecolor="#ffffff"
     bordercolor="#000000"
     borderopacity="0.25"
     inkscape:showpageshadow="2"
     inkscape:pageopacity="0.0"
     inkscape:pagecheckerboard="0"
     inkscape:deskcolor="#d1d1d1"
     inkscape:document-units="mm"
     inkscape:zoom="0.52724989"
     inkscape:cx="538.64402"
     inkscape:cy="389.75826"
     inkscape:window-width="1920"
     inkscape:window-height="1051"
     inkscape:window-x="-9"
     inkscape:window-y="-9"
     inkscape:window-maximized="1"
     inkscape:current-layer="layer1" /><defs
     id="defs1" /><g
     inkscape:groupmode="layer"
     id="layer1"
     inkscape:label="Layer 1"><rect
       style="fill:#ffd5f6;fill-opacity:1;stroke:#d35f8d;stroke-width:0.626999;stroke-opacity:0"
       id="rect369"
       width="490.77771"
       height="313.63605"
       x="-93.338089"
       y="-45.665413" /><path
       style="fill:#ff80e5;fill-opacity:1;stroke:#d35f8d;stroke-width:0.626999;stroke-opacity:0"
       d="m 154.05804,56.705401 c 6.31809,-5.023831 14.42643,-7.064472 21.57816,-10.538171 17.44145,-8.471564 -6.14001,0.636037 19.06907,-8.530902 6.76486,-2.45995 11.75708,-4.516358 19.06908,-4.516358 6.37835,0 5.21143,-0.328049 12.54544,1.505452 0.87389,0.218475 1.63519,0.785162 2.50908,1.003636 1.14749,0.28687 2.39063,0.127784 3.51273,0.501817 0.92531,0.308435 1.65899,1.027274 2.50909,1.505453 3.78896,2.131295 7.33534,4.300844 11.03999,6.52363 0.64146,0.384876 1.40882,0.554797 2.00727,1.003636 1.4225,1.066879 2.60515,2.428579 4.01454,3.512725 0.77309,0.594685 1.72255,0.928661 2.50909,1.505452 8.48406,6.221643 1.4541,2.0379 11.03998,8.029083 4.58708,2.866922 9.39723,5.271349 14.05091,8.029083 1.87627,1.111864 3.60228,2.473968 5.51998,3.512725 7.67863,4.15925 16.05571,6.626013 23.58543,11.03999 3.88557,2.277735 7.79431,4.527103 11.54181,7.025447 3.09613,2.064083 5.75075,4.679148 9.53455,5.519994 11.42995,2.53999 -5.00983,-1.821757 5.51998,2.007272 0.95623,0.347716 2.02382,0.255043 3.01091,0.501817 2.3628,0.590703 4.67013,1.387446 7.02545,2.007272 0.76144,0.200377 4.94281,0.959236 5.52,1.003636 1.16745,0.0898 2.36186,-0.215786 3.51272,0 1.55972,0.292444 2.94542,1.28103 4.51635,1.50545 4.31811,0.61687 8.70596,0.58009 13.04727,1.00364 7.75123,0.75621 15.2958,1.48808 23.08363,2.00727 3.68696,0.2458 7.40441,0.34262 11.03997,1.00363 1.87645,0.34117 3.64183,1.17401 5.52001,1.50546 0.98835,0.17441 2.01501,-0.12449 3.0109,0 0.74229,0.0928 1.2976,0.76707 2.00726,1.00363 0.75989,0.25329 9.39427,0.6421 8.53091,1.50546 -0.11827,0.11827 -0.36264,-0.0928 -0.50181,0 -0.78732,0.52487 -1.12128,1.67502 -2.00729,2.00726 -0.95268,0.35727 -2.01319,0.30228 -3.0109,0.50182 -1.51223,0.30245 -2.99268,0.76556 -4.51636,1.00364 -3.83334,0.59896 -7.68218,1.10959 -11.54181,1.50545 -4.40566,0.45187 -10.11016,-0.20796 -14.5527,1.00364 -5.36445,1.46303 0.3745,0.43498 -5.01819,2.50909 -1.28741,0.49516 -2.7001,0.5854 -4.01452,1.00363 -21.2502,7.58935 3.32311,-0.85932 -11.54181,3.51273 -1.37113,0.40326 -2.63242,1.14173 -4.01455,1.50545 -1.80859,0.47594 -3.70147,0.56719 -5.52001,1.00363 -2.36825,0.56839 -4.63722,1.52963 -7.02542,2.00728 -3.18466,0.63692 -12.56263,1.00077 -15.55637,0.50181 -1.93124,-0.32187 -3.63262,-1.48661 -5.52,-2.00727 -5.49431,-1.51567 -9.59337,-1.53487 -14.55272,-4.01454 -1.28701,-0.64351 -2.20464,-1.90955 -3.51271,-2.50909 -2.74132,-1.25644 -5.74447,-1.8579 -8.53091,-3.0109 -2.07367,-0.85808 -3.96766,-2.10709 -6.02181,-3.01091 -7.37531,-3.24514 -6.22885,-1.69623 -13.54907,-6.02181 -1.4401,-0.85097 -2.61205,-2.09929 -4.01455,-3.01091 -17.13915,-11.140454 11.1752,9.61964 -20.57452,-13.549078 -3.69932,-2.69951 -4.42842,-3.891428 -7.02544,-7.527266 -0.7011,-0.981541 -1.15435,-2.157979 -2.00728,-3.010906 -2.18096,-2.180968 -4.60459,-4.110611 -7.02544,-6.021813 -3.66082,-2.890118 -8.36765,-4.122814 -12.54545,-6.021811 -3.59811,-1.635508 -6.99702,-3.749418 -10.53817,-5.519997 -4.69667,-2.348335 -9.61172,-3.371177 -14.55271,-5.018174 -2.65231,-0.884105 -5.21276,-1.694347 -8.02909,-2.007272 -0.66499,-0.07389 -1.33818,0 -2.00727,0 -1.33818,-0.167273 -2.67777,-0.323583 -4.01454,-0.501817 -1.85376,-0.247168 -3.65911,-0.817549 -5.51999,-1.003636 -3.61163,-0.361164 -8.38958,-0.406006 -12.04363,0 -1.60386,0.178207 -2.68517,0.501817 -4.51636,0.501817 -3.07814,0 -6.12675,0.5368 -9.03271,1.505452 -0.30625,0.102082 -1.19922,0.901557 -1.50546,1.003636 -0.74709,0.249032 -2.50909,0.121079 -2.50909,1.003636"
       id="path384" /><path
       style="fill:#ff80e5;fill-opacity:1;stroke:#d35f8d;stroke-width:0.626999;stroke-opacity:0"
       d="m -59.716307,55.199949 c 10.127732,1.637307 20.130278,6.753005 30.610879,5.519994 4.400698,-0.517729 8.611755,-1.272006 13.047261,-1.505453 5.615422,-0.29555 11.1053412,-0.189058 16.55998471,-2.007272 C 2.5547563,56.522905 3.968874,55.382442 6.0218126,54.698129 6.9870782,54.376375 8.0764985,54.544028 9.0327188,54.196313 9.949354,53.862991 10.681197,53.149851 11.541807,52.69086 c 2.640232,-1.408123 5.352723,-2.676361 8.029084,-4.014541 1.744774,-0.872387 3.214392,-2.268173 5.018177,-3.010908 1.763546,-0.726165 3.710664,-0.902343 5.519994,-1.505453 3.976502,-1.325499 5.21032,-2.336602 9.032719,-3.512725 4.939236,-1.519764 9.334449,-3.178341 14.552715,-4.516358 3.497765,-0.896863 7.010665,-1.737447 10.538171,-2.509089 3.206195,-0.701354 5.324944,-0.532286 8.029083,-2.007272 5.124112,-2.794968 7.009789,-7.91619 11.541808,-11.541806 0.7034,-0.562719 1.703398,-0.600789 2.509088,-1.003635 1.950718,-0.975358 3.534516,-2.610233 5.519995,-3.512724 1.108609,-0.503914 2.468501,-0.377102 3.512724,-1.003635 1.524736,-0.914842 2.464766,-2.640975 4.014542,-3.512725 1.552173,-0.873095 8.951273,-2.3682225 11.039983,-3.0109057 1.36598,-0.4203009 2.64857,-1.0851523 4.01455,-1.505453 2.88796,-0.8886031 6.39196,-1.4264507 9.03272,-3.0109064 0.40569,-0.2434172 0.60997,-0.7411966 1.00363,-1.0036354 1.22848,-0.8189837 11.29944,-4.3037335 12.04363,-4.5163593 0.64334,-0.1838133 1.34728,0.1099977 2.00727,0 1.13571,-0.1892857 2.31715,-0.8541889 3.51272,-1.0036354 0.82991,-0.1037381 1.67919,0.1037379 2.50909,0 0.78438,-0.098048 5.19621,-1.3274249 6.02181,-0.5018177 0.5914,0.5913977 -1.35418,0.9829813 -2.00727,1.5054531 -1.10833,0.8866639 -1.84812,2.19695968 -3.0109,3.0109062 -3.49596,2.4471702 -0.81323,-1.24164566 -3.01091,1.5054531 -2.92627,3.6578351 2.08667,-0.5365099 -5.01818,6.0218125 -0.71669,0.6615663 -1.78009,0.8574604 -2.50908,1.505453 -0.80053,0.711578 -1.24992,1.75173 -2.00728,2.509089 -1.25733,1.257329 -2.94766,2.090218 -4.01454,3.512724 -0.44632,0.59509 -2.96541,6.934466 -3.51272,8.029083 -0.26972,0.539438 -0.66909,1.003635 -1.00364,1.505453 -0.50182,1.338181 -0.95577,2.6953 -1.50545,4.014542 -0.43603,1.046467 -1.57124,2.466258 -2.00727,3.512725 -0.42455,1.018902 -2.1945,6.560989 -2.50909,8.029083 -0.24783,1.156541 -0.20081,2.368872 -0.50182,3.512724 -0.54429,2.068301 -2.41559,7.476371 -3.51272,10.036352 -0.81492,1.901473 -5.98875,7.288472 -6.52363,8.029086 -2.74166,3.796146 -5.21234,7.786142 -8.029087,11.541807 -1.415566,1.887421 -3.480207,3.725696 -5.018177,5.519994 -0.358439,0.418182 -2.389608,2.299997 -2.509089,2.509089 -0.342177,0.59881 -0.230137,1.373352 -0.501816,2.007269 -1.871507,4.366848 -5.407594,7.632748 -8.530903,11.039991 -0.723743,0.789541 -1.178308,1.830848 -2.007269,2.509089 -1.043755,0.85398 -2.422067,1.214064 -3.512725,2.007269 -2.975819,2.164237 -0.908431,2.069557 -4.516358,3.512727 -0.791921,0.31677 -1.71047,0.20233 -2.509088,0.50181 -1.477571,0.5541 -2.549364,1.92302 -4.014542,2.50909 -1.910792,0.76432 -7.991477,0.87362 -10.036355,0.50182 -0.886261,-0.16114 -1.646287,-0.74479 -2.509088,-1.00363 -2.106512,-0.63196 -4.523603,-0.50544 -6.52363,-1.50546 -3.465452,-1.73272 -6.985392,-4.511348 -11.039991,-5.018173 -3.42469,-0.428088 -3.025233,0.225298 -5.519994,2.007273 -0.608727,0.4348 -1.384843,0.58868 -2.00727,1.00363 -0.39366,0.26244 -0.560641,0.83751 -1.003636,1.00364 -0.952695,0.35726 -2.036338,0.20944 -3.010907,0.50181 -0.716516,0.21496 -1.272665,0.86237 -2.00727,1.00364 -8.177459,1.57259 -15.8886822,1.50545 -24.0872504,1.50545 -3.423942,0 -7.1249008,0.26256 -10.5381716,0 -3.086767,-0.23744 -6.022401,-1.12916 -9.032719,-1.50545 -0.829905,-0.10374 -1.672726,0 -2.509089,0 -2.174543,-0.50182 -4.331351,-1.08788 -6.52363,-1.50545 -1.324777,-0.25234 -2.735151,-0.0754 -4.014541,-0.50182 -1.774193,-0.5914 -3.323466,-1.71822 -5.018178,-2.50909 -0.816282,-0.380929 -1.741924,-0.531532 -2.509089,-1.003633 -2.677731,-1.647836 -5.295876,-3.850659 -7.025446,-6.52363 -1.015971,-1.570136 -1.453039,-3.474718 -2.509089,-5.018178 -1.800169,-2.631017 -7.968956,-8.455403 -10.036355,-10.036355 -1.761238,-1.346827 -4.895926,-1.383202 -6.52363,-3.010905 -0.689681,-0.689684 -1.031777,-1.656472 -1.505453,-2.509089 -0.726585,-1.307854 -1.713857,-2.547464 -2.007272,-4.014541 -0.09841,-0.492072 0.121709,-1.018619 0,-1.505453 -0.436496,-1.745988 -2.007269,-0.59545 -2.007269,-5.018177 0,-0.842621 -0.461677,-3.010908 0.501817,-3.010908"
       id="path383" /><path
       style="fill:#ffaaee;fill-opacity:1;stroke:#d35f8d;stroke-width:0.626999;stroke-opacity:0"
       d="m -2.0072708,82.298105 c 0.8261607,-0.206542 5.3866913,-1.154568 6.5236302,-2.007272 4.1448463,-3.108634 5.8904316,-6.497783 9.5345366,-9.534535 1.465152,-1.22096 2.929472,-2.454799 4.516359,-3.512725 0.440124,-0.293415 1.003636,-0.334545 1.505453,-0.501817 1.003636,-0.501819 2.113228,-0.832194 3.010907,-1.505453 1.135483,-0.851614 1.912386,-2.112118 3.010906,-3.010908 0.754885,-0.617632 1.819407,-0.815771 2.509088,-1.505452 0.689684,-0.689682 0.946124,-1.710045 1.505453,-2.509089 0.614217,-0.877451 1.456211,-1.590656 2.007272,-2.509089 2.12235,-3.537251 3.61697,-8.313205 7.025447,-11.039988 1.947439,-1.557951 3.469573,-1.369967 5.519996,-2.509088 0.731113,-0.406176 1.284838,-1.084035 2.00727,-1.505456 3.203929,-1.868958 3.642214,-1.165497 5.519994,-3.512722 2.425678,-3.032098 4.783412,-6.555917 6.52363,-10.036355 0.691464,-1.382925 2.435804,-5.44671 3.512724,-6.52363 2.141517,-2.141517 7.820682,-2.844184 10.538172,-5.018177 1.697993,-1.358392 1.549709,-1.807993 3.010908,-3.512724 C 78.408391,8.9707211 80.822188,6.6062716 84.305374,4.5163594 88.240046,2.1555563 92.99342,2.5884994 97.352635,2.0072708 99.767719,1.6852595 98.25121,1.1203502 100.86536,0 c 0.46124,-0.19767568 1.03953,0.18637042 1.50545,0 0.43928,-0.17571172 0.59286,-0.76890302 1.00364,-1.0036354 2.36462,-1.3512121 4.50641,-1.2515598 7.02544,-2.0072708 0.71652,-0.2149551 1.30279,-0.7520336 2.00728,-1.0036355 8.48058,-3.0287785 1.99726,-0.8910084 7.52726,-1.5054532 2.65307,-0.2947855 5.36071,-1.1496696 8.02909,-1.5054529 1.33676,-0.1782355 2.71148,-0.1543354 4.01454,-0.5018178 1.23089,-0.3282391 2.29058,-1.1459987 3.51272,-1.5054532 3.71563,-1.0928312 7.61906,-1.4601652 11.03999,-3.5127242 0.91843,-0.551059 1.60547,-1.432241 2.50909,-2.007271 5.0083,-3.187101 11.28003,-3.589083 17.0618,-3.010906 3.43126,0.343126 4.94138,1.479852 8.02909,2.509089 0.31737,0.105792 0.69792,-0.135872 1.00363,0 1.23236,0.547716 2.26059,1.506415 3.51272,2.007271 2.41104,0.964415 5.084,1.127694 7.52727,2.007271 3.01091,1.1709075 6.02181,2.3418155 9.03272,3.5127234 1.17091,0.334545 2.36591,0.5940573 3.51272,1.0036353 1.1997,0.4284622 2.28783,1.1554832 3.51273,1.5054532 1.13728,0.324939 2.36524,0.2149477 3.51272,0.5018177 1.53951,0.3848767 2.98825,1.077581 4.51636,1.5054532 2.65656,0.7438361 5.3765,1.2493894 8.02908,2.0072708 3.82588,1.09310845 7.17215,3.3560059 11.03999,4.5163593 1.47714,0.4431414 3.09504,0.4051829 4.51636,1.0036355 1.79785,0.7569893 3.27341,2.1385194 5.01818,3.0109062 1.94497,0.9724855 4.07684,1.5366031 6.02181,2.5090884 1.41145,0.705724 2.62215,1.766479 4.01454,2.509089 3.34658,1.784841 7.01816,3.610173 10.53818,5.018177 3.98854,1.595419 7.64118,2.953136 11.5418,5.018177 3.21977,1.70458 5.05902,5.05902 7.52727,7.527265 0.10763,0.107624 7.05956,6.189554 7.52726,6.52363 3.57614,2.55439 7.78886,4.271862 11.54181,6.52363 1.55149,0.930894 2.89804,2.201751 4.51636,3.010908 1.08921,0.5446 2.42353,0.459033 3.51272,1.003636 2.03496,1.017479 3.62696,2.752513 5.52,4.014541 2.39456,1.596366 4.24751,3.850847 6.52362,5.519994 2.73132,2.002954 5.44748,4.118438 8.5309,5.519994 0.96311,0.437772 2.08614,0.489863 3.01091,1.003636 0.62037,0.344649 0.89691,1.140328 1.50545,1.505453 1.73316,1.039879 3.60257,1.86994 5.52,2.509089 0.80915,0.269719 1.72514,0.165833 2.5091,0.501817 0.49112,0.210484 2.72957,2.147932 2.00726,2.509088 -1.25209,0.626044 -13.80593,-4.017179 -16.05817,-5.018175 -1.10225,-0.489894 -1.90222,-1.53212 -3.0109,-2.007272 -1.753,-0.751284 -3.71065,-0.902342 -5.52001,-1.505452 -3.80394,-1.267981 -7.40029,-2.861956 -11.03997,-4.516361 -0.82005,-0.372748 -1.74191,-0.531532 -2.5091,-1.003633 -3.13709,-1.930522 -5.6851,-5.439736 -9.03272,-7.02545 -3.27006,-1.548984 -6.23601,-1.9114 -9.53452,-3.010905 -1.8574,-0.619136 -3.62059,-1.532416 -5.52,-2.007272 -0.82746,-0.206865 -1.71718,-0.18505 -2.5091,-0.501817 -3.84474,-1.537904 -1.74755,-2.073934 -6.02181,-4.51636 -1.0573,-0.604179 -2.43822,-0.43057 -3.51271,-1.003634 -1.47593,-0.787167 -2.63925,-2.058776 -4.01455,-3.010908 -1.60386,-1.110366 -3.4576,-1.840476 -5.01818,-3.010905 -2.18496,-1.638729 -0.97579,-1.477613 -3.0109,-3.512725 -0.5914,-0.591397 -1.41587,-0.914056 -2.00727,-1.505453 -0.42646,-0.426463 -0.53686,-1.123541 -1.00364,-1.505453 -3.17908,-2.601064 -5.95496,-3.586348 -9.53453,-5.018177 -1.04185,-0.416737 -1.94639,-1.150614 -3.01091,-1.505453 -0.96527,-0.321755 -2.0662,-0.123936 -3.01091,-0.501818 -0.17559,-0.07024 -5.93282,-4.382875 -6.02181,-4.516359 -0.41495,-0.622428 -0.47467,-1.478309 -1.00364,-2.007271 -0.68968,-0.689683 -1.86681,-0.771421 -2.50908,-1.505453 -0.59318,-0.6779138 -0.32572,-1.915914 -1.00364,-2.5090887 -0.79617,-0.6966482 -2.09904,-0.4672462 -3.01091,-1.0036355 -1.96103,-1.1535481 -3.60618,-2.7842352 -5.51999,-4.0145416 -2.48576,-1.5979918 -5.93789,-2.0721606 -8.5309,-3.51272391 -0.41358,-0.22976655 -0.5548,-0.85402229 -1.00364,-1.00363539 -0.63475,-0.2115849 -1.38078,0.2349333 -2.00727,0 -0.78311,-0.2936666 -1.24299,-1.1657741 -2.00727,-1.5054531 -0.77941,-0.3464062 -1.69213,-0.2567313 -2.50909,-0.5018177 -5.9834,-1.7950212 1.72384,-0.357777 -6.52363,-2.007271 -1.15982,-0.2319652 -2.3716,-0.1906034 -3.51272,-0.5018177 -2.48734,-0.6783668 -5.5426,-2.4709096 -7.52727,-4.0145414 -0.56018,-0.4357 -0.91496,-1.111795 -1.50545,-1.505453 -4.25314,-2.835429 -9.6708,-4.102818 -14.55271,-5.018177 -2.49761,-0.468302 -6.0112,-2.009394 -8.5309,-1.505454 -1.13083,0.226166 -4.83202,1.927488 -5.01818,2.007271 -8.33474,3.572029 1.97973,-0.989864 -8.02908,4.014542 -1.47352,0.736759 -3.08598,1.18991 -4.51636,2.007271 -1.65592,0.9462362 -2.88095,2.5314772 -4.51636,3.5127237 -0.96219,0.577315 -2.06424,0.903026 -3.01091,1.5054532 -0.90362,0.5750298 -1.52782,1.577967 -2.50909,2.0072709 -2.86291,1.2525225 -6.06817,1.5209053 -9.03272,2.50908849 C 113.64202,2.2647426 100.50269,7.205387 94.341729,14.050896 c -0.50043,0.556033 -0.640342,1.353344 -1.003636,2.007271 -0.878686,1.581638 -2.201749,2.898046 -3.010905,4.516359 -0.308436,0.616871 -0.334545,1.338181 -0.501817,2.007271 -0.501819,1.003635 -0.980437,2.019209 -1.505455,3.010906 -3.08532,5.827827 -6.480945,10.733059 -10.538172,16.058166 -3.424316,4.494416 -8.929745,7.265601 -13.04726,11.039991 -3.414379,3.129846 -0.673846,1.677479 -3.512725,4.516358 -3.619968,3.619968 -8.678507,5.532654 -13.04726,8.029085 -2.343734,1.339276 -4.578625,3.387056 -7.025446,4.516359 -0.774423,0.357425 -1.729677,0.155411 -2.509089,0.501816 -0.764278,0.33968 -1.238533,1.175994 -2.007272,1.505456 -5.335873,2.286801 -11.503514,3.350688 -17.061801,5.018174 -1.296063,0.388821 -4.147975,1.421337 -5.018177,2.509089 -0.330441,0.413052 -0.127785,1.131422 -0.501818,1.505455 -0.236559,0.236559 -0.681962,-0.09191 -1.003636,0 -5.4182957,1.548083 -9.6094404,3.68349 -15.0545308,1.505453 z"
       id="path370" /><path
       style="fill:#ffaaee;fill-opacity:1;stroke:#d35f8d;stroke-width:0.626999;stroke-opacity:0"
       d="m -6.0218126,81.796286 c 8.3756305,4.519935 16.9093516,8.686175 25.5927036,12.545443 1.652876,0.734613 6.19944,2.766954 8.029082,3.010906 4.742148,0.632288 11.976595,0 17.061804,0 6.498222,0 13.582145,-0.03307 18.567254,-5.018178 2.232105,-2.232104 3.415819,-4.856668 5.018178,-7.527263 0.740325,-1.233877 1.906093,-2.206234 2.509089,-3.512725 2.209178,-4.786556 0.549073,-3.658674 3.010905,-7.527266 0.575029,-0.903618 1.528276,-1.551096 2.007272,-2.509089 0.5446,-1.089199 0.459034,-2.423522 1.003633,-3.512724 0.634757,-1.269508 2.22359,-1.82993 3.010908,-3.010906 0.293415,-0.440124 0.208402,-1.065329 0.501817,-1.505453 1.054703,-1.582054 2.959838,-2.934305 4.014541,-4.51636 0.62243,-0.933641 0.861973,-2.091645 1.505453,-3.010906 0.542631,-0.775186 1.482394,-1.219954 2.007272,-2.007269 0.499668,-0.749504 0.669092,-1.672728 1.003636,-2.509089 1.474552,-3.686381 3.28953,-6.947257 6.52363,-9.534538 0.994757,-0.795806 2.348611,-0.988068 3.512725,-1.505452 1.84696,-0.820873 3.60255,-1.869941 5.51999,-2.509089 2.19291,-0.730967 10.08937,-2.456302 13.04726,-3.010906 1.48878,-0.279146 3.00688,-0.376028 4.51636,-0.501819 0.50009,-0.04167 1.1136,0.313484 1.50546,0 0.58414,-0.467312 0.56883,-1.398542 1.00363,-2.007269 1.75554,-2.45776 8.23635,-10.1738 10.03636,-11.541808 1.90679,-1.449162 4.38149,-1.939839 6.52363,-3.010906 2.54342,-1.271712 4.86469,-3.016076 7.52726,-4.014542 0.0475,-0.01783 11.35916,-3.07474 13.54908,-3.512724 1.64024,-0.3280484 3.34545,0 5.01818,0 4.18181,0 8.36363,0 12.54544,0 7.13929,0 14.30967,-0.6993988 21.07634,2.007271 4.1082,1.643277 3.86564,2.501347 6.02182,5.519995 1.7462,2.44468 5.18288,6.324078 7.52726,8.029083 4.10663,2.986641 9.12867,4.185206 12.54545,8.029083 3.70775,4.171225 5.58593,9.431298 10.03635,13.047261 5.34963,4.34658 14.91481,7.635859 19.06907,12.545443 2.03295,2.402581 3.08201,5.437558 5.52,7.527266 1.37374,1.177497 3.10351,1.880627 4.51637,3.010906 1.10831,0.886663 1.8439,2.202994 3.0109,3.010905 1.04738,0.725122 2.36006,0.963028 3.51272,1.505455 11.00709,5.179809 -0.6086,0.469786 9.53452,3.512722 1.87531,0.562592 3.62424,1.518042 5.52,2.007272 3.30348,0.852509 6.72653,1.179812 10.03636,2.00727 6.08743,1.521862 11.34764,4.142729 17.06179,6.52363 0.63664,0.265263 1.37337,0.23014 2.00729,0.501819 1.74744,0.748909 3.31914,2.282754 5.01817,3.010906 1.60517,0.687932 3.3882,0.878541 5.01819,1.505452 2.01782,0.776084 3.8286,2.745997 5.51997,4.014542 1.98639,1.489786 0.0321,0.533892 2.00729,2.509088 0.26448,0.264487 0.73914,0.237337 1.00362,0.501817 0.26448,0.26448 0.33457,0.66909 0.50184,1.00364 0.5018,0.33454 1.04211,0.61753 1.50545,1.00363 1.49378,1.24483 1.87984,2.1347 2.00726,2.00727 0.16727,-0.16727 -0.35989,-0.31257 -0.50181,-0.50182 -1.86687,-2.48915 -3.79407,-4.938377 -5.52,-7.527259 -1.28902,-1.93354 -2.07277,-4.197884 -3.51272,-6.021813 -1.10183,-1.395624 -2.75722,-2.255396 -4.01454,-3.512725 -3.19879,-3.198786 -6.82797,-9.384395 -12.04363,-10.036355 -0.82991,-0.103738 -1.67917,0.103741 -2.50909,0 -3.38011,-0.422513 -0.39341,-0.196704 -2.00726,-1.003633 -3.60911,-1.804551 -7.00681,-3.460025 -10.53817,-5.519997 -4.36587,-2.546752 -9.57408,-4.347255 -13.5491,-7.527263 -0.92361,-0.738889 -1.50175,-1.889189 -2.50907,-2.509089 -1.21719,-0.74903 -2.70092,-0.942472 -4.01455,-1.505455 -3.52277,-1.509758 -2.35593,-1.592615 -6.02181,-2.509086 -3.38318,-0.845796 -7.27271,-0.819828 -10.53818,-2.007272 -0.91663,-0.333322 -1.6367,-1.069261 -2.50908,-1.505453 -1.13942,-0.569711 -2.37331,-0.935744 -3.51273,-1.505453 -1.71138,-0.855691 -3.3068,-2.155216 -5.01818,-3.010908 -1.47351,-0.736758 -2.96489,-1.453173 -4.51635,-2.007269 -2.42185,-0.864944 -2.74218,0.01188 -5.01818,-1.505453 -4.39579,-2.930525 -6.84114,-8.346596 -10.53817,-12.043627 -4.00704,-4.007032 -9.60573,-5.555591 -14.55272,-8.029082 -0.53944,-0.269719 -0.9511,-0.766059 -1.50545,-1.003636 -0.90094,-0.386118 -3.72248,-0.765473 -4.51636,-1.003635 -2.53327,-0.759981 -5.01818,-1.672726 -7.52727,-2.509089 -7.93806,-2.64602 2.89611,1.123076 -7.02544,-3.010906 -3.76045,-1.566854 -0.62461,-0.02456 -3.01091,-0.501818 -2.1417,-0.42834 -4.99692,-0.99832 -7.02545,-1.505453 -0.87389,-0.218473 -1.62975,-0.808226 -2.50909,-1.003635 -7.26492,-1.614427 -11.75255,-2.007271 -18.56725,-2.007271 -1.17091,0 -2.3718,-0.26329 -3.51272,0 -1.09337,0.252315 -1.97513,1.073877 -3.01091,1.505453 -0.97655,0.406894 -2.09237,0.478758 -3.01091,1.003636 -0.32475,0.185572 -0.22505,0.752033 -0.50181,1.003635 -1.58506,1.440955 -3.37255,2.643181 -5.01818,4.014542 -1.366,1.138332 -2.52168,2.546751 -4.01454,3.512724 -0.44943,0.290807 -6.03918,2.410415 -7.02545,3.512725 -2.23073,2.493168 -4.10333,5.28838 -6.02181,8.029082 -2.69894,3.85563 -0.80253,4.992799 -5.52,8.5309 -1.59526,1.196443 -4.22552,1.610942 -6.02181,2.509089 -1.54036,0.77018 -3.02109,1.654651 -4.51636,2.509088 -0.27516,0.157237 -4.43065,4.907981 -4.51636,5.018178 -0.45927,0.590486 -0.47467,1.478309 -1.00364,2.007272 -0.49346,0.493466 -4.66842,3.04823 -5.51999,3.512722 -8.059568,4.396129 3.18622,-1.933782 -7.527266,3.010908 -1.642798,0.758214 -2.982053,2.051963 -4.516361,3.010905 -0.827101,0.51694 -1.88468,0.756163 -2.509088,1.505453 -0.624409,0.749292 -0.964423,1.697543 -1.505453,2.509089 -1.132599,1.6989 -2.380126,3.319279 -3.512725,5.018177 -1.496131,2.244198 -2.446832,4.830654 -4.014541,7.025449 -1.874862,2.624805 -6.216248,4.987372 -9.032719,6.52363 -2.555984,1.394172 -5.29141,2.189605 -8.029083,3.010906 -3.012032,0.90361 -5.880023,2.024057 -9.032719,2.509089 -8.133789,1.251352 0.264843,-0.12645 -8.530899,0.501816 -0.85076,0.06077 -1.66275,0.396026 -2.509089,0.50182 -2.108279,0.263532 -4.405706,0 -6.52363,0 -4.349088,0 -8.698174,0 -13.047262,0 -4.727822,0 -16.5923996,0.57832 -20.0727079,-1.003636 C 4.1567552,92.44472 3.8416031,91.282114 3.0109062,90.829005 1.9418378,90.245876 0.62227091,90.293739 -0.50181771,89.825371 -1.9584758,89.21843 -3.4005123,88.432128 -4.5163594,87.316282 c -0.1182796,-0.118279 0.1496132,-0.427011 0,-0.501819 -0.5018177,-0.250907 -1.0036355,0.125455 -1.5054532,0 -0.5131686,-0.128291 -1.0036352,-0.334544 -1.505453,-0.501817 -0.6690902,0 -1.3581581,0.162277 -2.0072709,0 -0.1622782,-0.04057 0,-0.334544 0,-0.501819 -0.334545,0 -0.6690905,0 -1.0036355,0"
       id="path371" /><path
       style="fill:#ffaaee;fill-opacity:1;stroke:#d35f8d;stroke-width:0.626999;stroke-opacity:0"
       d="m -16.559984,132.98169 c 12.1812032,0.79459 23.1898107,-4.41783 34.625422,-8.02908 2.549528,-0.80511 5.06449,-1.37242 7.527265,-2.50909 1.903011,-0.87831 3.645348,-2.07358 5.519995,-3.01091 1.003636,-0.50181 2.113227,-0.83219 3.010905,-1.50545 0.482489,-0.36186 0.669092,-1.00363 1.003636,-1.50545 0.669092,-0.50182 1.301665,-1.05643 2.007272,-1.50545 1.137756,-0.72403 2.369116,-1.29252 3.512722,-2.00728 1.910268,-1.19391 3.875601,-3.09473 6.021814,-4.01454 0.633917,-0.27168 1.404379,-0.16688 2.007272,-0.50181 2.851279,-1.58405 2.471197,-2.40115 5.519994,-3.01091 2.303409,-0.46068 4.014541,-0.57751 4.014541,2.00727 0,0.33454 0.185574,0.72528 0,1.00364 -0.207476,0.31121 -0.779216,0.20259 -1.003636,0.50181 -0.317376,0.42317 -0.229669,1.05187 -0.501817,1.50545 -0.950931,1.58489 -7.872772,5.36369 -10.036354,7.52727 -2.536849,2.53685 -4.042791,6.34362 -7.025447,8.5309 -1.945405,1.42663 -4.033861,2.64783 -6.021814,4.01454 -0.689197,0.47383 -1.230727,1.19484 -2.007272,1.50546 -2.22368,0.88947 -4.714859,0.87529 -7.025446,1.50545 -9.028337,2.46227 -20.4937168,3.82998 -29.6072451,2.00727 -2.2968709,-0.45937 -5.9974749,0.04 -8.0290829,-0.50181 -1.30306,-0.34749 -2.341816,-1.33819 -3.512724,-2.00728 z"
       id="path372" /><path
       style="fill:#ffaaee;fill-opacity:1;stroke:#d35f8d;stroke-width:0.626999;stroke-opacity:0"
       d="m 318.15243,134.98897 c -5.30484,-3.9829 -10.53687,-8.15938 -16.55998,-11.04 -4.44748,-2.12705 -6.62675,-2.28018 -10.53817,-5.01817 -0.30644,-0.2145 -0.26818,-0.71157 -0.50183,-1.00364 -1.11078,-1.38848 -2.25539,-2.75721 -3.51272,-4.01454 -0.59139,-0.5914 -1.50545,-0.83636 -2.00728,-1.50545 -0.54047,-0.72064 -0.40103,-1.83954 -1.00362,-2.50909 -0.96261,-1.06955 -2.49526,-1.49161 -3.51274,-2.50909 -2.0238,-1.008 -1.7149,-3.56019 -3.01091,-5.01818 -1.8007,-2.02581 -4.22976,-3.429289 -6.02181,-5.519992 -1.70511,-1.989307 -1.86433,-4.732295 -3.0109,-7.025447 -0.4362,-0.872389 -1.06926,-1.636702 -1.50546,-2.509089 -0.60658,-1.213175 -0.52128,-2.22646 -1.00361,-3.512724 -0.34248,-0.913257 -1.19703,-1.583783 -1.50547,-2.509089 -0.26972,-0.809157 -0.12037,-1.746208 -0.50182,-2.509089 -0.83636,-1.672725 -1.67272,-1.11515 -2.50908,-2.509088 -0.27215,-0.453581 -0.17138,-1.092404 -0.50182,-1.505453 -0.37676,-0.47095 -1.02297,-0.641771 -1.50545,-1.003636 -0.48408,-0.363056 -0.99314,-2.514338 -2.00728,-2.007269 -0.42317,0.211584 -0.60997,0.741195 -1.00363,1.003633 -0.44012,0.293418 -1.13142,0.127786 -1.50545,0.501819 -0.26448,0.26448 -0.23734,0.739153 -0.50182,1.003636 -0.11828,0.11828 -0.50182,-0.167275 -0.50182,0 0,1.945437 1.868,2.913637 2.50909,4.516358 1.04217,2.605434 -0.12828,0.957104 2.00727,4.516358 0.68192,1.136529 1.89633,2.287207 2.50909,3.512725 1.39711,2.794222 2.76163,5.396989 4.51635,8.029083 1.17467,1.761998 2.54926,3.593065 3.51274,5.519994 1.04225,2.08454 2.1046,5.30266 2.50907,7.52727 0.2394,1.31659 -0.52713,2.78456 0,4.01454 -0.0687,1.20084 1.58412,1.16093 2.00729,2.00727 0.23654,0.47312 0.12777,1.13142 0.50181,1.50545 0.85294,0.85293 2.06901,1.25375 3.0109,2.00727 0.73888,0.59111 1.19589,1.52044 2.00727,2.00727 0.90717,0.5443 2.06467,0.53052 3.0109,1.00364 0.42318,0.21158 0.63019,0.71317 1.00364,1.00364 1.16751,0.90805 3.39294,2.10844 4.51636,3.51272 0.37677,0.47095 0.54975,1.1083 1.00365,1.50545 0.90776,0.7943 2.04591,1.28354 3.0109,2.00727 0.37849,0.28387 0.58047,0.79205 1.00365,1.00364 1.18234,0.59118 10.45977,2.7502 12.54543,3.01091 1.16186,0.14523 2.36455,-0.22964 3.51271,0 1.10032,0.22006 1.93199,1.19718 3.01091,1.50545 0.48252,0.13786 1.02938,-0.15869 1.50545,0 0.57216,0.19072 0.91405,0.88535 1.50545,1.00364 1.14819,0.22963 2.34482,-0.0834 3.51274,0 1.17978,0.0843 2.3358,0.38412 3.51272,0.50181 2.76807,0.27681 5.80879,-0.54442 8.5309,0 0.23196,0.0464 0.33454,0.33455 0.50181,0.50182"
       id="path373" /><path
       style="fill:#ffaaee;fill-opacity:1;stroke:#d35f8d;stroke-width:0.626999;stroke-opacity:0"
       d="m 109.39626,69.250845 c 1.67198,-1.809922 1.3104,-4.525812 2.50909,-6.52363 0.48683,-0.811393 1.37862,-1.300046 2.00727,-2.007272 4.03733,-4.542002 -0.062,-1.579105 8.02908,-6.52363 3.1951,-1.952559 3.29492,-0.946785 6.02182,-4.014542 2.93391,-3.30065 4.90641,-7.4155 8.02908,-10.538171 3.39731,-3.397316 8.53091,-5.635805 13.04726,-7.02545 0.81521,-0.250833 1.71047,-0.202334 2.50909,-0.501816 0.56471,-0.211767 0.94074,-0.791869 1.50545,-1.003636 2.6987,-1.01201 1.83412,-0.259549 4.01454,-0.501817 2.90608,-0.322897 5.60204,-1.280157 8.5309,-1.505453 3.55226,-0.273251 7.60988,-0.355711 11.03999,0.501817 1.55653,0.389131 3.42892,-0.176586 5.01818,0 1.50545,0.167272 3.02225,0.252799 4.51636,0.501817 4.62938,0.771564 -1.84413,0.1183 3.01091,1.505452 0.64334,0.183814 1.35815,-0.162276 2.00727,0 3.77731,0.94433 6.88576,4.925058 10.03635,7.02545 5.89578,3.93052 12.0029,7.402465 18.06544,11.039988 0.93734,0.562404 2.25513,1.251498 3.0109,2.007272 0.26449,0.26448 0.23734,0.739153 0.50182,1.003636 0.0925,0.09247 1.41299,0.40935 1.50546,0.501817 0.23656,0.236558 -0.23656,0.767077 0,1.003636 0.46738,0.467378 0.50181,-0.03936 0.50181,1.003636 0,0.167272 0.165,0.474318 0,0.501816 -3.59277,0.598797 -12.75087,0.08182 -16.05816,-0.501816 -1.95901,-0.345708 -8.03085,-2.81159 -9.53454,-4.014542 -0.64938,-0.519504 -3.03601,-2.8317 -3.51272,-3.512724 -0.77337,-1.104813 -0.98334,-2.63507 -2.00727,-3.512725 -1.41994,-1.217086 -3.38819,-1.59222 -5.01818,-2.509089 -1.05131,-0.591362 -1.95197,-1.429668 -3.01091,-2.007269 -2.61847,-1.428258 -5.7666,-2.221106 -8.5309,-3.010908 -0.86613,-0.247465 -1.62283,-0.842497 -2.50909,-1.003634 -2.70444,-0.491717 -13.3396,-0.181239 -16.05816,0 -2.17809,0.145206 -4.39059,1.533261 -6.52363,2.00727 -2.22365,0.494144 -3.01858,0.3371 -5.01818,1.003636 -1.41505,0.47168 -3.10132,1.535589 -4.51636,2.007269 -0.80916,0.269719 -1.7635,0.0876 -2.50909,0.50182 -0.82716,0.459533 -1.23728,1.457282 -2.00727,2.007269 -0.43043,0.307454 -1.05187,0.229669 -1.50545,0.501819 -2.60803,1.564815 -2.96793,5.32407 -5.52,7.025447 -1.19726,0.798176 -2.27885,1.768763 -3.51272,2.509089 -0.60878,0.365268 -4.7497,2.240608 -5.01818,2.509088 -0.37403,0.374034 -0.15039,1.110102 -0.50182,1.505453 -1.02456,1.152639 -2.48816,1.858269 -3.51272,3.010908 -0.35142,0.395351 -0.12779,1.131419 -0.50182,1.505453 -0.23656,0.236558 -0.72527,-0.185574 -1.00363,0 -0.31122,0.207475 -0.2774,0.704408 -0.50182,1.003636 -0.80723,1.076312 -1.66532,1.163497 -2.50909,2.007269 -0.26448,0.264483 -0.23734,0.739156 -0.50182,1.003636 -0.13283,0.132834 -1.29882,0 -1.50545,0"
       id="path374" /><path
       style="fill:#ff80e5;fill-opacity:1;stroke:#d35f8d;stroke-width:0.626999;stroke-opacity:0"
       d="m 452.13775,235.35251 -1.00362,-83.30174"
       id="path375" /><path
       style="fill:#ff80e5;fill-opacity:1;stroke:#d35f8d;stroke-width:0.626999;stroke-opacity:0"
       d="m 4.5163594,84.305374 c 1.6041412,-0.649242 3.3779594,-0.535 5.0181771,-1.003636 4.1960205,-1.198861 6.5158455,-3.955756 10.5381715,-5.519994 1.627632,-0.632968 3.375033,-0.913921 5.018177,-1.505452 3.946281,0.445494 6.293741,-2.836072 9.534537,-4.014542 2.76737,-1.006316 5.441707,-1.532406 8.029083,-3.010905 3.241649,-1.852372 -0.409734,-0.06906 3.512725,-3.010908 1.676736,-1.257551 3.734988,-1.91244 5.519994,-3.010906 1.027287,-0.632176 1.95648,-1.421479 3.010905,-2.007272 5.115317,-2.841841 -5.246182,5.27077 5.519997,-3.010905 4.273566,-3.287358 7.106748,-8.151032 10.036352,-12.545443 1.421503,-2.132251 3.974732,-4.384146 6.021814,-6.021811 0.292071,-0.233656 0.739153,-0.237337 1.003636,-0.501819 0.902221,-0.902222 3.403571,-4.298056 4.014541,-5.519995 0.402847,-0.80569 0.526217,-1.74522 1.003636,-2.509088 0.376126,-0.601806 1.160804,-0.885084 1.505453,-1.505453 0.513773,-0.924793 0.530516,-2.064671 1.003636,-3.010905 0.211584,-0.423171 0.760216,-0.597941 1.003633,-1.003637 0.272151,-0.453581 0.22147,-1.056894 0.501819,-1.505453 0.923224,-1.477157 2.235719,-2.464168 3.010906,-4.014542 0.675809,-1.351618 1.234323,-2.726294 2.007272,-4.014541 0.692854,-1.154759 2.078553,-5.232028 2.509089,-6.5236305 0.105791,-0.3173775 -0.236562,-0.7670763 0,-1.0036355 0.37403,-0.3740327 1.243012,0.04255 1.505452,0.5018178 0.70907,1.2408732 1.158828,2.6280362 1.505453,4.0145412 0.222051,0.888209 0.268666,8.060736 0,8.530901 -5.59208,6.9901 0.283406,-1.068631 -2.509089,4.51636 -0.211584,0.423169 -0.811485,0.571296 -1.003636,1.003635 -0.49458,1.112806 -0.587473,2.368278 -1.003636,3.512725 -1.512263,4.158723 -6.544857,12.214296 -9.534535,16.058166 -0.580933,0.746913 -1.439529,1.250283 -2.00727,2.007272 -0.448841,0.59845 -0.524737,1.432589 -1.003636,2.007269 -1.817298,2.180757 -3.71186,4.371848 -6.021813,6.021813 -0.430435,0.307454 -1.075018,0.194366 -1.505453,0.501817 -0.769985,0.549989 -1.204865,1.505768 -2.007272,2.007272 -0.584848,0.36553 -1.415872,0.146979 -2.007269,0.501817 -3.056028,1.833618 1.31118,0.348046 -1.003636,1.505452 -3.251364,1.625685 -6.156132,4.018484 -9.534536,5.519997 -0.966745,0.429662 -2.044162,0.573971 -3.010908,1.003634 -2.204513,0.979786 -3.937997,2.798984 -6.02181,4.014544 -1.564632,0.912701 -3.501091,1.425453 -5.018178,2.509088 -0.577487,0.412491 -0.927965,1.09296 -1.505452,1.505453 -0.822169,0.587261 -5.27821,2.388195 -5.519997,2.509089 -0.872387,0.436192 -1.603492,1.143214 -2.509089,1.505452 -2.072076,0.828831 -4.358568,0.964187 -6.52363,1.505453 -1.33818,0.334544 -2.70596,0.567441 -4.014541,1.003636 -1.355836,0.451945 -2.5964,1.328185 -4.014541,1.505453 -3.989092,0.498636 -7.984909,0.501816 -12.0436254,0.501816 -3.2353004,0 -9.0327187,0.536726 -9.0327187,-1.505452 0,-0.528963 1.13142027,0.127786 1.5054531,0.501816"
       id="path376" /><path
       style="fill:#ff80e5;fill-opacity:1;stroke:#d35f8d;stroke-width:0.626999;stroke-opacity:0"
       d="m 235.85432,22.079979 c 8.00254,5.903889 13.28026,15.012723 21.07635,21.076343 0.59048,0.459269 1.33818,0.669091 2.00727,1.003636 1.50545,1.003636 3.12639,1.852602 4.51636,3.010908 0.64251,0.535424 0.91405,1.415873 1.50545,2.007269 0.9238,0.923793 2.03446,1.641137 3.01091,2.509089 0.53041,0.471485 0.90366,1.129324 1.50545,1.505453 0.76388,0.477419 1.71828,0.572291 2.5091,1.003636 1.55953,0.850664 3.21812,2.442472 5.01816,3.010905 3.00255,1.479796 6.38675,1.564754 9.53453,2.509089 5.72836,1.718503 11.14406,3.274822 17.06181,4.014541 0.68435,0.08554 1.32181,0.425657 2.00727,0.501819 0.83126,0.09236 1.69264,-0.181432 2.50909,0 0.73025,0.162277 1.2976,0.767075 2.00726,1.003636 1.35351,0.451168 3.1055,0.266674 4.51636,0.501817 1.10318,0.183862 4.47741,0.964684 3.51274,0 -0.94771,-0.947714 -0.94726,-0.236815 -2.00729,-0.501817 -1.45145,-0.362865 -2.60368,-1.509328 -4.01452,-2.007272 -1.79848,-0.634753 -3.73774,-0.826497 -5.52,-1.505452 -1.74765,-0.665771 -3.3092,-1.749544 -5.01817,-2.509089 -3.99748,-1.776656 -7.95276,-3.41159 -11.54181,-6.021813 -4.53972,-3.301609 -8.66555,-6.707225 -13.54907,-9.534536 -2.0111,-1.16432 -3.99643,-2.373442 -6.02182,-3.512724 -1.19208,-0.670537 -3.55576,-1.41124 -4.51635,-2.509089 -0.79431,-0.907772 -1.12337,-2.190134 -2.00729,-3.010906 -5.20106,-4.829563 -11.95392,-5.976961 -18.06543,-9.032719 -0.3965,-0.198247 -2.4743,-1.470663 -2.50909,-1.505453 -0.11828,-0.118279 0.11828,-0.383538 0,-0.501818 -1.47985,-1.479846 -5.80522,-1.505453 -7.52727,-1.505453 z"
       id="path377" /><path
       style="fill:#ff80e5;fill-opacity:1;stroke:#d35f8d;stroke-width:0.626999;stroke-opacity:0"
       d="m 234.85069,69.250845 c 1.62307,2.877566 2.47996,6.11701 4.01454,9.032719 0.49885,0.947806 1.44593,1.596903 2.00727,2.509088 0.78412,1.274191 1.23752,2.73162 2.00727,4.014542 1.46383,2.439709 4.58246,4.1247 6.02181,6.52363 0.92691,1.544841 1.23604,3.390019 2.00727,5.018177 0.73724,1.556396 1.73891,2.975996 2.50909,4.516359 0.40285,0.80569 0.55672,1.72698 1.00364,2.50909 0.23473,0.41078 0.81726,0.56877 1.00363,1.00363 0.33599,0.78397 0.0287,1.79941 0.50182,2.50909 0.29342,0.44013 1.13142,0.12779 1.50545,0.50182 0.37404,0.37403 0.22967,1.05187 0.50182,1.50545 0.24342,0.4057 0.76891,0.59286 1.00364,1.00364 0.44691,0.7821 0.46316,1.78845 1.00363,2.50909 1.00364,1.33818 2.83175,1.82811 4.01454,3.0109 0.42647,0.42647 0.50182,1.17091 1.00364,1.50546 1.05995,0.70663 2.41234,0.86356 3.51272,1.50545 2.94362,1.71711 1.6556,2.05732 4.51635,3.01091 0.80918,0.26971 1.81036,0.0127 2.5091,0.50181 1.07027,0.7492 1.47786,2.20883 2.5091,3.01091 0.5444,0.42342 1.39038,0.19338 2.00726,0.50182 0.42317,0.21158 0.59793,0.76022 1.00364,1.00363 0.45358,0.27215 1.04304,0.24493 1.50546,0.50182 1.05441,0.58579 1.9128,1.50814 3.0109,2.00727 0.96462,1.52103 2.39062,0.12779 3.51272,0.50182 0.44984,0.14995 0.67328,1.33398 1.50545,0.50182 0.18682,-0.18682 -0.41579,-0.36868 -2.00726,-1.50546 -2.33609,-1.66863 -4.47099,-3.46734 -6.52365,-5.51999 -4.51956,-4.51957 -7.98031,-9.09812 -13.54907,-12.54545 -1.59012,-0.98436 -3.43697,-1.51043 -5.01817,-2.50908 -0.97128,-0.61344 -8.88716,-6.11376 -10.03636,-8.029087 -0.17212,-0.286869 0.13179,-0.69614 0,-1.003633 -0.38421,-0.896496 -1.13031,-1.608759 -1.50545,-2.509089 -0.57078,-1.369872 -1.73783,-6.795069 -2.50909,-8.029085 -0.5015,-0.802407 -1.37862,-1.300044 -2.00727,-2.00727 -1.1113,-1.250211 -1.82811,-2.831745 -3.01091,-4.014541 -0.59139,-0.591399 -1.46297,-0.870439 -2.00727,-1.505453 -0.48683,-0.567975 -0.55479,-1.408819 -1.00363,-2.007272 -0.56774,-0.756988 -1.42634,-1.260356 -2.00727,-2.007272 -5.22912,-6.723147 0.67482,0.455623 -2.00727,-4.014541 -0.74033,-1.233874 -1.9061,-2.206231 -2.50909,-3.512722 -0.42639,-0.92383 -0.2223,-2.032577 -0.50182,-3.010908 -0.21567,-0.754825 -1.00363,-1.11868 -1.00363,-2.00727"
       id="path378" /><path
       style="fill:#ff80e5;fill-opacity:1;stroke:#d35f8d;stroke-width:0.626999;stroke-opacity:0"
       d="m 128.46533,11.541807 c 3.40766,-2.2242121 7.17828,-2.6040845 11.03999,-3.5127237 7.5877,-1.7853406 15.27185,-3.5805543 23.08362,-4.0145416 4.29617,-0.2386764 8.73769,0 13.04726,0 1.20763,0 8.60509,0.1483748 9.03272,1.0036354 0.30843,0.6168708 0.38843,1.3269722 0.50181,2.0072707 0.0825,0.4949902 0.27836,1.0879156 0,1.5054532 -0.26243,0.3936582 -0.54872,0.87366 -1.00363,1.0036355 -2.30371,0.6582025 -8.48493,-1.204858 -11.03999,-1.5054532 -4.65163,-0.5472501 -4.044,-0.5018177 -7.02545,-0.5018177 -2.07779,0 -4.45672,-0.2066904 -6.52363,0 -3.37682,0.3376818 -6.68637,1.0867048 -10.03635,1.5054532 -0.99589,0.1244856 -2.02676,-0.1968291 -3.01091,0 -2.96771,0.5935432 -0.0505,0.3212735 -3.01091,1.5054532 -0.46592,0.18637 -1.05661,-0.22442 -1.50545,0 -2.67246,1.336229 -5.38679,2.509088 -8.5309,2.509088"
       id="path379" /><path
       style="fill:#ff80e5;fill-opacity:1;stroke:#d35f8d;stroke-width:0.626999;stroke-opacity:0"
       d="m -3.5127239,125.45443 c 5.2843095,-1.61628 10.4368786,-3.94701 15.0545309,-7.02545 2.087688,-1.39179 3.878553,-3.21177 6.021813,-4.51636 4.471306,-2.72167 4.520557,-2.28175 8.530901,-3.01091 1.544465,-0.28081 4.053747,-0.81153 3.512724,0 -1.813838,2.72076 -2.636896,2.29473 -5.018177,4.01455 -2.702461,1.95177 -10.460511,9.15725 -14.050896,10.53817 -2.4236828,0.93218 -4.992334,1.44395 -7.5272658,2.00727 -3.65081223,0.81129 -3.36508141,-1.78166 -6.5236301,-2.00727 -1.2706726,-0.0908 -2.2451361,1.37869 -3.5127239,1.50545 -0.045329,0.005 -2.8653274,-1.57053 -3.0109062,-2.00727 -0.158689,-0.47607 0,-1.00364 0,-1.50545"
       id="path380" /><path
       style="fill:#ffd5f6;fill-opacity:1;stroke:#d35f8d;stroke-width:0.626999;stroke-opacity:0"
       d="m 434.07232,271.98521 15.55636,-71.25813"
       id="path381" /><path
       style="fill:#ff80e5;fill-opacity:1;stroke:#d35f8d;stroke-width:0.626999;stroke-opacity:0"
       d="m 24.08725,71.759934 c 9.197984,-5.511332 17.51751,-12.499335 25.090885,-20.07271 1.090483,-1.090483 1.958652,-2.385309 3.010906,-3.512725 3.626106,-3.885112 7.216452,-7.029963 10.036354,-11.541807 1.599105,-2.558569 2.460718,-5.504117 4.014542,-8.029083 5.490342,-8.921806 0.159443,1.406988 4.014541,-5.018177 0.577316,-0.962191 0.775203,-2.158945 1.505456,-3.010906 0.344244,-0.401618 1.131419,-0.127785 1.505452,-0.501818 0.236559,-0.236559 -0.185573,-0.725277 0,-1.003635 0.207476,-0.311214 0.739153,-0.237336 1.003636,-0.501818 0.334545,-0.334545 0.792049,-1.426805 1.003634,-1.003635 0.710221,1.420441 -0.199827,4.612519 -0.501817,6.021812 -0.32313,1.507945 -0.701191,3.004132 -1.003636,4.51636 -0.199544,0.99772 -0.110479,2.071693 -0.501817,3.010906 -1.645039,3.948094 -5.188484,6.19212 -8.029083,9.032719 -1.849482,1.849482 -3.217346,4.220979 -5.018177,6.021813 -1.774195,1.774193 -4.094279,2.910081 -6.021813,4.516358 -0.726919,0.605766 -1.338181,1.33818 -2.007272,2.007272 -1.003634,0.669089 -2.045931,1.283539 -3.010906,2.007269 -2.65176,1.988823 -5.127095,4.363535 -8.029082,6.021814 -0.897073,0.512611 -3.140176,1.382723 -4.014542,2.007272 -1.548058,1.105754 -2.032593,2.509088 -4.014541,2.509088"
       id="path382" /><path
       style="fill:#ff80e5;fill-opacity:1;stroke:#d35f8d;stroke-width:0.626999;stroke-opacity:0"
       d="M 447.11958,140.50896 462.67592,-17.56362"
       id="path385" /></g></svg>
