<?xml version="1.0" encoding="UTF-8" standalone="no"?>
<!-- Created with Inkscape (http://www.inkscape.org/) -->

<svg
   width="297mm"
   height="210mm"
   viewBox="0 0 297 210"
   version="1.1"
   id="svg1"
   sodipodi:docname="panel4.bg.svg"
   inkscape:version="1.3.2 (091e20e, 2023-11-25, custom)"
   xml:space="preserve"
   xmlns:inkscape="http://www.inkscape.org/namespaces/inkscape"
   xmlns:sodipodi="http://sodipodi.sourceforge.net/DTD/sodipodi-0.dtd"
   xmlns="http://www.w3.org/2000/svg"
   xmlns:svg="http://www.w3.org/2000/svg"><sodipodi:namedview
     id="namedview1"
     pagecolor="#ffffff"
     bordercolor="#000000"
     borderopacity="0.25"
     inkscape:showpageshadow="2"
     inkscape:pageopacity="0.0"
     inkscape:pagecheckerboard="0"
     inkscape:deskcolor="#d1d1d1"
     inkscape:document-units="mm"
     inkscape:zoom="0.52724989"
     inkscape:cx="538.64402"
     inkscape:cy="389.75826"
     inkscape:window-width="1920"
     inkscape:window-height="1051"
     inkscape:window-x="-9"
     inkscape:window-y="-9"
     inkscape:window-maximized="1"
     inkscape:current-layer="layer1" /><defs
     id="defs1" /><g
     inkscape:groupmode="layer"
     id="layer1"
     inkscape:label="Layer 1"><rect
       style="fill:#ffd5f6;fill-opacity:1;stroke:#d35f8d;stroke-width:0.626999;stroke-opacity:0"
       id="rect355"
       width="483.99997"
       height="325.74191"
       x="-92.967743"
       y="-58.19355" /><path
       style="fill:#ffaaee;fill-opacity:1;stroke:#d35f8d;stroke-width:0.626999;stroke-opacity:0"
       d="m -56.203582,54.698131 c 5.012985,-10.507961 17.617328,-14.449615 26.094519,-21.578162 3.802121,-3.197238 7.39241,-6.693352 10.538172,-10.538171 1.826648,-2.23257 3.114646,-8.445496 6.523631,-10.036355 9.6916357,-4.5227642 6.7379857,-2.179252 15.0545317,-3.0109072 2.500339,-0.250034 5.444617,-1.160857 8.0290833,-1.505453 4.455586,-0.594078 9.141724,-0.727685 13.549077,-1.505453 1.041828,-0.183852 1.978175,-0.774139 3.010908,-1.003635 1.752793,-0.38951 3.753209,-0.207354 5.519994,-0.501818 2.424102,-0.404017 12.054948,-2.234704 14.050896,-3.010906 1.470747,-0.5719569 2.603095,-1.80336486 4.014541,-2.50908886 0.946238,-0.4731181 2.047807,-0.56586284 3.010906,-1.00363524 0.887933,-0.4036063 1.603491,-1.1432141 2.509088,-1.5054532 3.977143,-1.5908568 8.420143,-2.3876415 12.545444,-3.5127239 3.718582,-1.0141598 7.321402,-2.4985641 11.039991,-3.5127236 2.31059,-0.630161 4.68929,-0.977933 7.02545,-1.505453 16.76379,-3.785373 33.4967,-7.629708 50.68358,-9.032719 6.08596,-0.496813 16.83579,-0.231401 23.08362,0 6.15536,0.227976 10.61322,1.319736 16.55998,2.509088 2.97061,0.594122 4.23365,0.305686 7.02545,1.003636 4.28315,1.070788 2.2563,1.387157 7.52727,2.007271 3.28063,0.385956 7.66937,0.341312 11.03999,0.501817 10.36765,0.493698 4.70562,0.622869 17.0618,1.505453 4.56363,0.325974 3.77756,-0.516754 8.5309,0.501818 0.88079,0.188742 1.64004,0.766622 2.50909,1.003636 0.98162,0.267716 2.00727,0.334545 3.0109,0.501817 1.33819,0.334545 2.68825,0.624695 4.01456,1.003636 4.25479,1.2156555 8.93741,2.585032 13.04724,4.0145413 5.44046,1.8923346 3.36232,2.3437985 9.03274,3.0109062 2.82413,0.3322537 5.68724,0 8.53088,0 4.34909,0 8.69818,0 13.04726,0 1.84,0 3.70036,-0.2729461 5.52001,0 1.56932,0.2353995 2.95505,1.2215823 4.51635,1.5054532 11.89361,2.16247124 2.3404,-0.5950641 9.53453,1.00363524 3.81513,0.847806 7.61436,2.15204786 11.54181,2.50908886 0.83294,0.07572 1.68114,-0.11828 2.5091,0 2.3709,0.338701 4.65831,1.141279 7.02545,1.505453 3.72473,0.573034 7.36227,0.01146 11.03998,0.501818 2.05089,0.273453 4.01455,1.003635 6.02181,1.505453 1.85026,0.462564 3.73423,0.83579 5.52,1.505453 0.70044,0.262663 1.288,0.798126 2.00727,1.003635 3.28488,0.938536 -0.28872,-1.147992 3.0109,0.501818 0.42318,0.211585 0.58047,0.79205 1.00364,1.003635 0.14963,0.07481 0.42702,-0.149613 0.50181,0 1.0413,2.0825592 -5.98299,7.5305222 -7.02545,8.0290842 -6.12934,2.931425 -16.13294,4.950775 -23.0836,4.516358 -0.68834,-0.04302 -1.32292,-0.416271 -2.00729,-0.501816 -2.07142,-0.258929 -6.59918,-0.419934 -8.53088,0 -2.74,0.595651 -5.32606,1.763424 -8.0291,2.509088 -8.68053,2.394633 -4.00584,0.91121 -12.04362,2.00727 -6.66213,0.908473 -13.29166,2.027073 -20.07269,1.505455 -2.35863,-0.181433 -4.67434,-0.7424 -7.02546,-1.003636 -6.51774,-0.724194 -13.05102,-1.302422 -19.57088,-2.007272 -7.15309,-0.773306 -14.45956,-1.013976 -21.57817,-2.007269 -38.36118,-5.352725 2.14108,-0.267637 -24.08725,-4.014542 -6.2339,-0.890558 -4.01041,-0.276722 -10.53818,-0.501819 -8.3756,-0.288814 -16.7327,-0.640236 -25.09088,-1.003636 -14.51386,-0.631037 3.92626,-0.159372 -9.53454,-1.505452 -0.2509,-0.02509 -9.99073,0.02281 -10.53817,0 -9.63417,-0.401424 -19.45035,-1.069764 -29.10542,-0.501818 -9.26104,0.544767 -18.37951,2.111349 -27.59998,3.010906 -4.00942,0.391163 -8.04628,0.503968 -12.043619,1.003636 -6.163013,0.770377 -9.475779,2.10529 -15.556354,3.010905 -5.335526,0.794655 -10.703459,1.35426 -16.058168,2.007272 -1.503577,0.183362 -3.04043,0.161219 -4.516358,0.501817 -1.241287,0.286451 -2.308897,1.088745 -3.512725,1.505453 -3.849261,1.332439 -7.846009,2.301856 -11.541807,4.014541 -3.201554,1.483649 -6.034662,3.659135 -9.032719,5.519997 -7.3143583,4.539946 -14.0958573,9.775293 -21.5781613,14.050896 -5.9440547,3.396602 -12.2677617,6.753836 -19.0690727,8.029083 -4.500114,0.843772 -9.040741,0.552802 -13.549078,1.003636 -0.68626,0.06862 -1.322914,0.416271 -2.007271,0.501817 -1.493827,0.186729 -3.017088,-0.136298 -4.516359,0 -1.013301,0.09212 -1.996941,0.417322 -3.010906,0.501816 -4.564004,0.380336 -7.844136,0.792173 -5.519994,-5.018175 z"
       id="path355" /><path
       style="fill:#ffaaee;fill-opacity:1;stroke:#d35f8d;stroke-width:0.626999;stroke-opacity:0"
       d="m 0.50181775,104.8799 c 2.36849805,0.39663 12.44142625,-1.35465 14.55271325,-1.50545 10.176111,-0.72687 20.418141,-0.50182 30.610881,-0.50182 7.025449,0 14.061138,-0.3792 21.076343,0 9.832374,0.53148 19.851518,1.61723 29.607245,3.01091 6.59637,0.94234 12.98903,3.07427 19.57089,4.01454 14.44773,2.06396 29.21813,0.54 43.65814,2.50909 3.21806,0.43882 6.31757,1.56047 9.53454,2.00727 2.82146,0.39187 5.69118,0.27763 8.53089,0.50181 7.63028,0.60239 14.97792,1.67165 22.5818,0.50182 11.29111,-1.73709 22.04758,-5.85825 33.11997,-8.5309 8.42624,-2.03392 17.35233,-2.7732 25.5927,-5.51999 5.75387,-1.917958 3.99666,-2.738201 11.03999,-7.025451 1.22081,-0.743096 2.68255,-0.987452 4.01455,-1.505453 1.67908,-0.652976 3.31659,-1.415415 5.01817,-2.007269 5.2752,-1.834856 11.01811,-3.222847 16.55999,-4.014542 1.99398,-0.284855 4.02783,-0.216963 6.02181,-0.501819 27.26309,-3.894727 1.07583,-0.910489 17.06179,-2.509089 8.29059,-0.829056 19.34917,-2.151977 27.59999,-0.501816 9.28999,1.857999 18.36409,6.763522 28.10179,4.516358 2.27018,-0.523886 4.35221,-1.664647 6.52362,-2.509089 2.51862,-0.979464 4.96358,-2.156341 7.52726,-3.010905 0.65432,-0.218096 1.39041,-0.193382 2.00729,-0.501817 5.57728,-2.78865 2.09333,-2.035961 6.52362,-3.512725 1.80933,-0.603109 3.71067,-0.902343 5.52,-1.505452 1.8574,-0.619136 3.6626,-1.388137 5.52,-2.007272 1.82282,-0.607611 0.97647,-0.501817 2.50907,-0.501817 0.16727,0 0.66911,0 0.50184,0 -1.34702,0 -2.21036,-0.357108 -3.51274,-0.501819 -2.23126,-0.247918 -5.26489,-0.161597 -7.52727,0 -4.69847,0.335605 -9.38524,0.857445 -14.05088,1.505455 -2.86012,0.397237 -5.66237,1.174467 -8.53091,1.505453 -6.21731,0.71738 -12.87449,-0.19209 -19.06907,-0.50182 -10.63623,-0.531809 2.22612,0.788972 -10.03636,-0.501816 -7.8698,-0.8284 -15.85638,-1.832499 -23.58544,-3.512725 -1.70651,-0.370983 -3.32393,-1.081894 -5.01816,-1.505453 -3.84585,-0.961458 -8.73583,-1.644451 -12.54543,-2.007269 -1.33218,-0.126873 -2.67899,0.08347 -4.01455,0 -8.474,-0.529624 -17.09923,-0.980017 -25.59271,0 -1.20974,0.139584 -2.32615,0.729808 -3.51272,1.003633 -0.99143,0.228791 -2.04565,0.180062 -3.01091,0.50182 -1.06452,0.354838 -1.91864,1.248447 -3.01091,1.505452 -1.79847,0.42317 -3.70221,0.171313 -5.51999,0.501817 -1.87644,0.341172 -3.66466,1.063707 -5.52,1.505453 -1.65946,0.39511 -3.37455,0.547076 -5.01817,1.003636 -1.37704,0.38251 -2.62804,1.158827 -4.01454,1.505452 -4.46498,1.116246 -9.05221,1.18966 -13.54908,2.007272 -7.11726,1.294046 -14.06951,3.369509 -21.07635,5.018178 -8.78743,2.067631 -17.4952,6.325359 -26.59634,7.025447 -11.07594,0.851995 -16.65959,-3.124298 -26.09452,-7.527267 -5.02309,-2.34411 -9.13453,-2.492033 -15.05453,-3.512722 -1.1656,-0.200967 -2.32993,-0.501819 -3.51272,-0.501819 -8.01423,0 -15.2997,2.905895 -23.08362,4.516361 -4.61086,0.953971 -9.43106,0.735481 -14.05089,1.505452 -2.04089,0.340149 -3.9978,1.076116 -6.021812,1.505453 -4.776639,1.013227 -12.347019,2.451986 -17.563618,3.010906 -12.748313,1.365892 -1.630931,-0.07263 -12.545443,0.501819 -9.734714,0.512352 -19.499159,0.992309 -29.105428,2.509089 -2.113666,1.041749 -4.359504,0.231301 -6.52363,0.501816 -2.469088,0.308637 -5.013368,1.191218 -7.527266,1.505453 -0.497942,0.06224 -1.039527,-0.18637 -1.505453,0 -0.439279,0.175712 -0.59794,0.760219 -1.003635,1.003636 -0.453582,0.27215 -1.082283,0.184441 -1.505453,0.501819 -0.299227,0.22442 -0.237337,0.739153 -0.501818,1.003634 -1.583317,1.583317 -4.029301,1.844918 -6.021813,2.509088 -0.731514,0.243838 -1.777574,1.261614 -2.509088,1.505454 -0.317377,0.10579 -0.693018,-0.12425 -1.003635,0 -4.6804131,3.12027 0.704401,-0.0675 -2.5090891,1.00363 -2.8685042,0.95617 3.0336461,0.0958 -1.5054529,1.00364 -3.0787742,0.61575 -3.8356662,0.0934 -7.02544825,2.00727 z"
       id="path356" /><path
       style="fill:#ff55dd;fill-opacity:1;stroke:#d35f8d;stroke-width:0.626999;stroke-opacity:0"
       d="m 84.305376,67.243573 c 0.836363,-0.334545 1.654524,-0.71878 2.509089,-1.003636 2.660107,-0.886703 5.411983,-1.502511 8.029083,-2.509089 6.831192,-2.627381 2.858455,-2.250466 9.032722,-4.014541 2.14582,-0.613093 4.37459,-0.903722 6.52363,-1.505453 2.03748,-0.570497 3.97871,-1.457206 6.02181,-2.007272 5.17659,-1.393695 8.21451,-1.238488 13.04726,-3.512722 0.96912,-0.456057 1.5511,-1.528276 2.50909,-2.007272 6.95434,-3.47717 1.99515,0.214143 8.5309,-2.509089 0.77203,-0.321677 1.24789,-1.154967 2.00727,-1.505452 0.6924,-0.319569 5.69872,-1.750957 7.02545,-2.509089 1.02695,-0.58683 1.60044,-1.75188 2.50909,-2.509089 1.14236,-0.951971 6.34705,-4.526423 7.52726,-5.018177 3.50239,-1.459331 10.22318,-1.464178 13.04726,-2.007269 1.40346,-0.269897 2.61709,-1.206 4.01454,-1.505456 0.98136,-0.210291 2.00728,0 3.01091,0 2.50909,0 5.01818,0 7.52727,0 4.81301,0 9.75127,-0.300088 14.55271,0 1.0155,0.06347 1.99601,0.429326 3.01091,0.50182 4.16556,0.297539 8.37233,0.29316 12.54544,0.501816 6.51935,0.32597 13.02655,0.813454 19.57089,0.50182 2.01195,-0.09581 4.0101,-0.401233 6.02181,-0.50182 1.33651,-0.06683 2.6867,0.165981 4.01455,0 1.36871,-0.171087 2.67636,-0.669089 4.01454,-1.003636 1.67272,-0.167272 3.34739,-0.316174 5.01817,-0.501816 9.34932,-1.038813 18.69722,-1.003636 28.10179,-1.003636 6.77544,0 13.83495,-0.612688 20.57453,0 2.5209,0.229174 5.01552,0.689668 7.52727,1.003636 3.63742,0.454678 10.8572,1.173728 14.55271,0.501816 5.61299,-1.020543 10.88568,-3.013194 16.55998,-4.014541 5.71908,-1.009248 11.90798,1.03415 17.56362,1.505455 3.19781,0.266483 6.3635,0.298958 9.53453,1.003634 3.20125,0.71139 6.44943,2.103524 9.53455,3.010908 3.00083,0.882599 5.95898,0.309708 9.03272,0.501816 4.55954,0.284972 8.9631,1.505453 13.54907,1.505453 1.70786,0 2.95191,0.501819 4.51636,0.501819 0.16727,0 0.50181,0.167272 0.50181,0 0,-0.334547 -0.66908,0 -1.00362,0 -3.36253,0 -6.28927,0.147236 -9.53455,-0.501819 -4.4215,-0.884298 -9.07968,-1.634821 -13.54907,-2.007269 -2.88007,-0.240007 -6.1857,0.517638 -9.03272,0 -0.88625,-0.16114 -1.61734,-0.876245 -2.5091,-1.003636 -2.98063,-0.425808 -6.02522,0.143213 -9.03271,0 -4.02389,-0.191614 -8.07646,-0.303549 -12.04362,-1.003636 -0.88708,-0.156544 -1.62579,-0.826977 -2.50909,-1.003636 -9.25479,-1.850957 -22.72698,-1.564892 -32.11633,0 -1.3606,0.226766 -2.65617,0.763923 -4.01454,1.003636 -1.49167,0.263236 -3.03527,0.184441 -4.51636,0.501816 -0.8808,0.188743 -1.64004,0.766622 -2.50909,1.003636 -4.79099,1.306634 -10.14241,2.144062 -15.05453,3.010908 -10.54387,1.860682 3.38706,-1.066329 -9.03272,1.003634 -11.23259,1.872099 2.04286,0.09815 -7.02545,2.007272 -5.20592,1.095983 -6.27487,0.855662 -11.03999,1.505452 -4.94518,0.674344 -9.68166,1.581269 -14.55271,2.509089 -7.81135,1.487876 -15.70943,1.852755 -23.58543,2.509089 -0.84999,0.07083 -1.67273,0.334544 -2.50909,0.501816 -1.50546,0.167273 -3.00426,0.412872 -4.51636,0.50182 -1.33587,0.07858 -2.68372,-0.140089 -4.01454,0 -1.85989,0.195775 -3.65195,0.91468 -5.52,1.003636 -1.67917,0.07996 -3.34001,-0.403104 -5.01818,-0.50182 -5.83372,-0.343159 -11.73144,0.364512 -17.56362,0 -2.71862,-0.169912 -7.61314,-1.233074 -10.53817,-0.501816 -1.38651,0.346625 -2.64856,1.085151 -4.01454,1.505452 -2.50114,0.769581 -2.86746,0.280215 -5.51999,1.003636 -3.11339,0.849107 -6.58494,2.201786 -9.53454,3.512722 -0.55113,0.244946 -0.96602,0.733918 -1.50546,1.003636 -10.17035,5.085178 0.98434,-0.594457 -5.51999,2.007272 -2.4028,0.961118 -3.96349,2.328201 -6.52363,3.010906 -4.02593,1.073581 -8.50968,0.906611 -12.54544,2.007272 -1.90819,0.520411 -3.51807,1.562396 -5.52,2.007269 -4.01038,0.891196 -7.34689,0.541999 -11.03999,1.003636 -4.04122,0.505153 -7.96146,1.715688 -12.04362,2.007272 -1.33478,0.09534 -2.678672,-0.07858 -4.014543,0 -3.283054,0.19312 -6.268921,1.003634 -9.534536,1.003634 -1.182796,0 -2.401141,-0.906029 -3.512725,-0.501817 -1.227784,0.446466 -1.903046,1.816677 -3.010906,2.509089 -0.283693,0.177308 -0.690391,-0.117467 -1.003635,0 -0.08356,0.03133 -4.51636,1.76145 -4.51636,2.509088"
       id="path357" /><path
       style="fill:#ff55dd;fill-opacity:1;stroke:#d35f8d;stroke-width:0.626999;stroke-opacity:0"
       d="M 449.62868,215.2798 427.5487,161.08349"
       id="path358" /><path
       style="fill:#ff55dd;fill-opacity:1;stroke:#d35f8d;stroke-width:0.626999;stroke-opacity:0"
       d="m 304.60336,89.825371 c -9.93974,0.515866 -21.51851,-0.688977 -31.1127,2.509089 -1.56292,0.520967 -2.98675,1.395426 -4.51636,2.007269 -2.79987,1.119947 -5.73104,1.890961 -8.53091,3.010908 -0.69456,0.277823 -1.28154,0.822201 -2.00727,1.003634 -5.46071,1.365178 -2.28376,0.03072 -6.52363,0.501819 -2.13448,0.237165 -7.74759,1.43692 -9.53454,2.50909 -0.25524,0.15314 -1.30693,1.88816 -1.50545,2.00727 -0.5914,0.35484 -1.37336,0.23014 -2.00727,0.50182 -0.55435,0.23757 -0.94075,0.79187 -1.50546,1.00363 -4.43733,1.664 -9.53349,1.15387 -14.05089,2.50909 -1.49926,0.44977 -3.6851,1.20742 -5.01818,2.00727 -1.29375,0.77625 -2.45175,2.62021 -4.01454,3.01091 -0.81139,0.20284 -1.67784,-0.0924 -2.50909,0 -0.68546,0.0762 -1.32181,0.42565 -2.00727,0.50182 -4.07163,0.4524 -8.43495,0 -12.54544,0 -9.09061,0 -18.06352,-0.27346 -27.09816,-1.50546 -4.19617,-0.5722 -8.37875,-1.24969 -12.54544,-2.00727 -3.99472,-0.72631 -7.99312,-2.10404 -12.04363,-2.50909 -0.99865,-0.0999 -2.00727,0 -3.0109,0 -1.84,-0.33454 -3.66863,-0.73915 -5.52,-1.00363 -0.99355,-0.14194 -2.03723,0.24341 -3.0109,0 -0.2295,-0.0574 -0.2774,-0.42701 -0.50182,-0.50182 -1.72931,-0.57644 -4.72097,-0.80334 -6.52363,-1.00364 -8.31764,-0.92418 -16.77681,-0.55427 -25.09089,0 -3.563683,0.23758 -7.006259,-0.18073 -10.538166,-0.50181 -2.928218,-0.26621 -6.098325,0 -9.032719,0 -4.683633,0 -9.367266,0 -14.050896,0 -1.84,0 -3.679997,0 -5.519997,0 -0.334544,0 -1.33818,0 -1.003633,0 2.545961,0 4.970193,0.50181 7.527264,0.50181 6.10976,0 12.91151,-0.55978 19.069073,0 2.201738,0.20016 4.883856,0.41957 7.02545,1.00364 3.545059,0.96683 2.382004,1.17456 6.021814,1.50545 3.37257,0.3066 6.73741,0.45382 10.03635,1.00364 5.46755,0.91126 11.05588,0.30143 16.55998,1.50545 4.50937,0.98643 14.28994,3.72782 19.06908,5.52 0.70043,0.26266 1.27373,0.85692 2.00727,1.00363 3.6702,0.73404 7.82479,-0.413 11.5418,0 0.52573,0.0584 0.98058,0.43621 1.50546,0.50182 2.13995,0.26749 5.39683,0.32776 7.52726,0 3.33211,-0.51264 6.68718,-1.44908 10.03636,-2.00727 3.06236,-0.5104 7.19789,-0.58805 10.03635,-2.00727 0.42317,-0.21159 0.56064,-0.83752 1.00364,-1.00364 0.95269,-0.35726 2.0238,-0.25504 3.0109,-0.50182 1.02634,-0.25658 1.98008,-0.76575 3.01091,-1.00363 2.61368,-0.60316 5.83909,-1.20636 8.5309,-1.50546 1.16375,-0.1293 2.36456,0.22964 3.51272,0 0.36677,-0.0733 0.6347,-0.44032 1.00364,-0.50181 0.65999,-0.11 1.35411,0.14514 2.00727,0 0.87934,-0.19541 1.62579,-0.82698 2.50909,-1.00364 0.82012,-0.16402 1.67616,0.0757 2.50909,0 3.51457,-0.3195 7.03511,-1.18699 10.53817,-1.50545 2.29891,-0.20899 4.73315,0.28654 7.02545,0 0.52487,-0.0656 0.9818,-0.42701 1.50545,-0.50182 0.66236,-0.0946 1.35411,0.14515 2.00727,0 3.40946,-0.75766 1.74232,-1.19875 5.01818,-2.50909 1.5753,-0.63012 6.89329,-1.37329 8.5309,-3.010903 0.42646,-0.426464 0.57717,-1.07899 1.00363,-1.505453 1.90092,-1.900912 6.57008,-6.295943 9.03272,-7.527266 2.86382,-1.431907 6.85169,-2.373977 10.03635,-3.010906 0.99772,-0.199546 2.06126,-0.136564 3.0109,-0.501819 1.25871,-0.484116 2.28037,-1.459553 3.51275,-2.007269 0.3057,-0.135872 0.68087,0.08802 1.00361,0 0.38669,-0.10546 5.05603,-1.823821 6.52365,-2.007272 2.32407,-0.29051 11.71355,-0.389557 14.05088,0 1.63595,0.272658 2.97836,1.120952 4.51636,1.505452 0.71739,0.179343 5.00502,0.158489 5.52,0.50182 4.58237,3.054908 -2.88893,-0.795705 2.5091,1.003636 0.35483,0.118279 0.16727,0.836361 0.50181,1.003633 0.29921,0.149614 0.76708,-0.236559 1.00364,0 1.03828,1.038281 -1.58663,-0.04059 0.50181,1.003636 0.82108,0.410538 3.06335,0.104889 3.51271,1.003636 0.0748,0.149614 0.1587,0.448921 0,0.501817 -0.47606,0.158689 -1.01044,-0.0825 -1.50545,0 -1.52117,0.253534 -3.0041,0.701191 -4.51636,1.003636 -0.61333,0.122671 -4.07813,1.091279 -4.51635,1.003636 -0.95642,-0.191283 -1.5371,-1.586452 -2.50907,-1.505453 -1.34396,0.111993 -2.30651,1.40416 -3.51275,2.00727 -0.98552,0.492757 -2.74118,0.733914 -3.51271,1.505452"
       id="path359" /><path
       style="fill:#ff55dd;fill-opacity:1;stroke:#d35f8d;stroke-width:0.626999;stroke-opacity:0"
       d="m -41.149053,52.189041 c 0.06429,-0.01609 7.629859,-1.743893 9.032719,-2.509089 0.940285,-0.512881 1.551097,-1.528273 2.509089,-2.007269 0.76288,-0.381442 1.713014,-0.195636 2.509088,-0.50182 5.000745,-1.923362 11.112802,-7.473674 14.050896,-11.541807 0.619405,-0.857636 0.459338,-2.103742 1.003635,-3.010905 0.703747,-1.172912 5.7270101,-6.376229 7.0254491,-7.025447 0.76288,-0.381442 1.699931,-0.232101 2.509088,-0.50182 2.39941498,-0.799803 3.944891,-2.040225 6.52363,-2.509088 1.001067,-0.182012 1.998478,-0.400574 3.010906,-0.501817 0.665771,-0.06658 1.372518,0.211585 2.007272,0 0.448839,-0.149614 0.560641,-0.837512 1.0036359,-1.003636 0.8471,-0.317661 5.93975,-1.384819 7.025447,-1.505453 5.148296,-0.572031 10.056187,-0.53717 15.054532,-2.007271 6.876023,-2.022359 13.451197,-4.768303 20.072707,-7.527265 2.244148,-0.03943 3.24231,-2.2036937 5.018177,-3.0109057 1.108612,-0.503914 2.357453,-0.618545 3.512725,-1.003636 7.307723,-2.435908 3.196894,-2.063055 15.054532,-4.5163592 7.5311,-1.55815933 27.498585,-0.2947501 32.116335,0 3.07809,0.1964737 5.98249,1.5497362 9.03272,2.0072702 4.72467,0.708701 9.36824,-0.01848 14.0509,0.501818 4.38524,0.48725 8.70508,1.857762 13.04726,2.509089 1.99194,0.298791 4.04669,0.106795 6.02181,0.501818 3.06423,0.612845 5.98222,1.8312 9.03272,2.509088 1.47865,0.328589 3.02758,0.222673 4.51636,0.5018177 2.8524,0.814973 3.3555,1.061069 6.02181,1.505453 2.17019,0.361699 4.38425,0.490185 6.52363,1.003635 2.05743,0.493782 3.96914,1.494102 6.02181,2.007271 4.79458,1.198645 10.44582,0.58879 15.05454,2.509089 1.38104,0.575435 2.63349,1.431835 4.01454,2.007272 0.91281,0.380338 3.7078,0.772617 4.51635,1.003633 2.01819,0.576625 0.2428,0.501819 1.50546,0.501819 0.33454,0 1.00363,-0.334547 1.00363,0 0,1.093039 -8.52637,0.09165 -9.53453,0 -4.86543,-0.442312 -9.74059,-1.090676 -14.55272,-2.007271 -2.0325,-0.387144 -3.98091,-1.165304 -6.02181,-1.505453 -4.11484,-0.685807 -8.35857,0.259432 -12.54544,-0.501818 -0.52043,-0.09462 -1.00364,-0.334545 -1.50545,-0.501818 -1.00364,-0.167272 -2.00236,-0.367344 -3.01091,-0.501817 -17.26181,-2.301575 4.78243,0.617245 -7.52727,-0.501818 -2.75802,-0.25073 -5.8529,-0.775091 -8.5309,-1.505453 -1.02064,-0.278359 -1.96361,-0.854023 -3.0109,-1.003636 -2.48387,-0.354838 -5.02251,-0.147338 -7.52727,0 -2.34373,0.137867 -4.71554,0.08183 -7.02545,0.501818 -11.62617,2.113849 4.46865,0.06869 -7.02545,1.505453 -4.84315,0.605394 -9.83925,1.162386 -14.55271,2.509089 -1.73226,0.494932 -3.25524,1.636126 -5.01818,2.007272 -3.535065,0.744222 -9.908475,0.793736 -13.549085,2.007269 -0.9253,0.308435 -1.59874,1.155319 -2.50908,1.505453 -3.46382,1.332238 -6.97547,1.060116 -10.538175,1.505452 -2.21446,0.27681 -4.330158,1.094179 -6.52363,1.505456 -2.143612,0.401926 -4.38118,0.09373 -6.523631,0.501816 -3.387508,0.64524 -6.609032,2.128274 -10.036352,2.509089 -7.817498,0.868611 -12.067571,1.630468 -19.570893,4.516358 -1.287422,0.495165 -2.754061,0.443423 -4.014541,1.003636 -1.929805,0.857692 -3.705164,2.925644 -5.519994,4.014542 -7.656372,3.828187 0.791723,-0.620279 -5.018177,3.010908 -2.348484,1.467802 -5.155475,2.157415 -7.5272669,3.512722 -0.410781,0.234733 -0.597939,0.760219 -1.003636,1.003636 -1.921695,1.153017 -4.602241,1.308221 -6.523629,2.509088 -0.908263,0.567664 -1.55109702,1.528276 -2.50908802,2.007272 -2.85159798,1.425798 -7.64000298,1.041215 -10.53817208,2.00727 -1.778823,0.592942 -3.655014,1.740844 -5.519995,2.007272 -0.827957,0.118279 -1.677841,-0.09236 -2.509088,0 -1.314826,0.146092 -3.201534,0.857543 -4.51636,1.003636 -1.329996,0.147775 -2.681856,-0.121156 -4.014541,0 -3.514317,0.319482 -7.090109,0.428956 -10.538172,1.003633 -1.060895,0.176816 -4.51636,0.234683 -4.51636,-1.003633"
       id="path360" /><path
       style="fill:#ffd5f6;fill-opacity:1;stroke:#d35f8d;stroke-width:0.626999;stroke-opacity:0"
       d="m 445.61413,254.42158 16.05817,28.6036"
       id="path361" /><path
       style="fill:#ffd5f6;fill-opacity:1;stroke:#d35f8d;stroke-width:0.626999;stroke-opacity:0"
       d="M 9.0327188,88.821735 C 15.89923,88.092398 21.688314,83.739764 28.101792,81.796286 c 6.502866,-1.970564 9.965875,-1.505453 16.559985,-1.505453 2.341814,0 4.697955,0.258612 7.025447,0 0.371745,-0.0413 0.631891,-0.460513 1.003636,-0.501817 1.828744,-0.203194 3.698489,0.260215 5.519994,0 1.888032,-0.269719 3.638743,-1.191911 5.519994,-1.505452 0.659987,-0.109998 1.343348,0.08299 2.007272,0 2.700647,-0.337582 5.416635,-1.354159 8.029083,-2.007272 4.345778,-1.086446 9.07865,-1.687955 13.549079,-2.00727 10.976205,-0.784016 21.805218,0.655654 32.618148,2.00727 3.69055,0.461319 7.36713,1.57517 11.03999,2.007272 1.32902,0.156353 2.67976,-0.09534 4.01455,0 1.01489,0.07249 1.9976,0.409699 3.0109,0.501816 1.66586,0.151443 3.37243,-0.299225 5.01818,0 1.04086,0.189249 1.97004,0.814388 3.0109,1.003636 0.82288,0.149612 1.67688,-0.08322 2.50909,0 3.50413,0.350412 7.02112,1.18572 10.53817,1.505453 0.83293,0.07572 1.67785,-0.09236 2.50909,0 3.38815,0.37646 0.72502,1.038463 5.01818,0.501817 0.37114,-0.04639 0.63686,-0.428464 1.00364,-0.501817 1.77316,-0.354634 4.81533,-0.90873 6.52363,-1.003636 2.33821,-0.1299 4.68363,0 7.02544,0 0.7546,0 3.51273,-0.471559 3.51273,0.501819 0,0.167273 0.13918,0.40903 0,0.501817 -6.02372,4.015814 -2.48635,1.625222 -8.02909,3.010905 -1.5395,0.384877 -2.96469,1.172957 -4.51636,1.505453 -0.81779,0.175244 -1.68896,-0.164023 -2.50909,0 -3.0238,0.604761 -5.99368,2.30959 -9.03271,3.010908 -4.494,1.037077 -8.96866,1.498336 -13.54908,2.00727 -4.04502,0.449447 -8.00514,1.50246 -12.04362,2.007272 -6.80704,0.850878 -16.14892,0.997153 -23.08362,0.501816 -1.34517,-0.09608 -2.66828,-0.422624 -4.01454,-0.501816 -1.50286,-0.0884 -3.02122,0.175897 -4.51636,0 -1.36992,-0.161169 -2.65395,-0.77687 -4.014543,-1.003636 -2.660492,-0.443416 -5.348391,-0.705782 -8.029083,-1.003636 -8.177223,-0.90858 -16.446984,-0.570432 -24.589068,-2.00727 -3.870425,-0.683016 -7.622397,-1.571781 -11.541807,-2.007272 -3.990462,-0.443383 -8.074565,-0.562628 -12.043627,-1.003636 -0.685464,-0.07616 -1.320419,-0.439375 -2.007269,-0.501817 -7.405923,-0.673266 -14.867905,1.901357 -22.07998,3.010906 -1.225284,0.188505 -2.817792,0.490744 -4.014542,1.003636 -0.687581,0.294677 -1.261789,1.06576 -2.007271,1.003636 -1.42424,-0.118687 -2.599728,-1.707571 -4.0145412,-1.505453 -2.5115001,0.358786 -2.1310968,3.010906 -5.5199949,3.010906"
       id="path362" /><path
       style="fill:#ffd5f6;fill-opacity:1;stroke:#d35f8d;stroke-width:0.626999;stroke-opacity:0"
       d="M 457.15594,160.07985 439.59232,85.810827"
       id="path363" /></g></svg>
