<?xml version="1.0" encoding="UTF-8" standalone="no"?>
<!-- Created with Inkscape (http://www.inkscape.org/) -->

<svg
   width="297mm"
   height="210mm"
   viewBox="0 0 297 210"
   version="1.1"
   id="svg1"
   sodipodi:docname="panel2.bg.svg"
   inkscape:version="1.3.2 (091e20e, 2023-11-25, custom)"
   xml:space="preserve"
   xmlns:inkscape="http://www.inkscape.org/namespaces/inkscape"
   xmlns:sodipodi="http://sodipodi.sourceforge.net/DTD/sodipodi-0.dtd"
   xmlns="http://www.w3.org/2000/svg"
   xmlns:svg="http://www.w3.org/2000/svg"><sodipodi:namedview
     id="namedview1"
     pagecolor="#ffffff"
     bordercolor="#000000"
     borderopacity="0.25"
     inkscape:showpageshadow="2"
     inkscape:pageopacity="0.0"
     inkscape:pagecheckerboard="0"
     inkscape:deskcolor="#d1d1d1"
     inkscape:document-units="mm"
     inkscape:zoom="0.37282197"
     inkscape:cx="1271.3843"
     inkscape:cy="277.6124"
     inkscape:window-width="1920"
     inkscape:window-height="1051"
     inkscape:window-x="-9"
     inkscape:window-y="-9"
     inkscape:window-maximized="1"
     inkscape:current-layer="layer1" /><defs
     id="defs1" /><g
     inkscape:groupmode="layer"
     id="layer1"
     inkscape:label="Layer 1"><path
       style="fill:#6f6f91;fill-opacity:1;stroke:#d35f8d;stroke-width:0.626999;stroke-opacity:0"
       d="M -54.64516,193.38709 -68.12903,125.96774"
       id="path337" /><path
       style="fill:#373748;fill-opacity:1;stroke:#d35f8d;stroke-width:0.626999;stroke-opacity:0"
       d="m -36.548388,167.12903 -2.838709,42.22581"
       id="path342" /><rect
       style="fill:#ffd5f6;fill-opacity:1;stroke:#d35f8d;stroke-width:0.626999;stroke-opacity:0"
       id="rect353"
       width="411.96774"
       height="254.41936"
       x="-43.645161"
       y="-19.161289" /><path
       style="fill:#d5f6ff;fill-opacity:1;stroke:#d35f8d;stroke-width:0.626999;stroke-opacity:0"
       d="m -82.322579,191.96774 c 3.728426,-1.86422 3.217188,-1.56719 9.225806,-5.32258 6.91804,-4.32378 7.037412,-5.40003 15.258063,-8.87097 9.89338,-6.32157 21.684006,-7.64522 32.290323,-12.06452 4.102655,-1.70943 8.047815,-3.77477 12.064516,-5.67741 2.725266,-1.29092 5.4961844,-2.49229 8.1612905,-3.90323 3.3711218,-1.78471 6.4856185,-4.05012 9.9354837,-5.67742 2.8424171,-1.34076 5.9155848,-2.12458 8.8709678,-3.19355 2.603764,-0.94179 5.137297,-2.10239 7.806451,-2.83871 4.204873,-1.15996 8.481497,-2.06461 12.774194,-2.83871 3.242525,-0.58472 13.271185,-1.23769 16.677418,-2.48387 2.438686,-0.8922 4.43544,-2.71021 6.741935,-3.90322 3.476236,-1.79805 4.421328,-1.55767 8.51613,-2.12903 3.430106,-0.47312 6.860215,-0.94624 10.290323,-1.41936 2.010752,-0.11828 4.034589,-0.0971 6.032257,-0.35484 3.819242,-0.4928 7.537717,-1.62008 11.35484,-2.12903 2.823562,-0.37648 5.685001,-0.39511 8.516131,-0.70968 2.8433,-0.31592 5.66563,-0.82192 8.51613,-1.06452 5.30864,-0.4518 10.64208,-0.55751 15.96774,-0.70967 17.8527,-0.51008 35.76748,0.35056 53.58064,1.41935 2.96111,0.17767 5.90603,0.61555 8.87097,0.70968 15.46769,0 9.5351,-0.18711 22,0.35484 13.96254,0.60706 26.20117,3.22759 39.74194,6.38709 2.84953,0.6649 5.72857,1.23939 8.51612,2.12904 2.783,0.88819 5.40071,2.23796 8.16129,3.19354 1.24794,0.43198 8.98324,0 10.29034,0 17.03464,0 -0.37529,-0.1528 13.83868,0.35485 4.16156,0.14862 8.27509,0.1571 12.41936,0.70967 2.93227,0.39097 6.03859,0.92448 8.87098,1.7742 1.32604,0.39781 2.57206,1.03902 3.90324,1.41935 4.53913,1.2969 2.99484,-0.0362 7.80645,2.12903 1.01756,0.45791 1.81901,1.32101 2.83869,1.7742 2.39257,1.06336 5.05904,1.4205 7.45161,2.48387 13.10524,5.82454 -2.9569,-0.33115 13.83872,6.38709 3.40619,1.36248 6.85533,2.61511 10.29033,3.90323 1.47757,0.55409 3.12986,0.52523 4.61288,1.06452 1.64089,0.59668 3.54682,4.87733 4.6129,6.03225 0.69014,0.74765 1.65593,1.1828 2.48389,1.7742 0.82796,0.59139 1.59705,1.27536 2.48388,1.77419 3.66032,2.05894 2.99561,0.64141 6.38709,3.54839 3.06118,2.62388 5.35086,5.44664 7.80645,8.51613 0.41797,0.52247 0.86263,1.04821 1.41936,1.41935 0.0984,0.0656 0.28387,-0.0946 0.35483,0 0.01,0.0126 0.84723,1.91173 1.06453,2.12903 0.0836,0.0836 0.2712,-0.0836 0.35483,0 0.26448,0.26449 0.0204,0.89725 0.35483,1.06452 0.21159,0.10579 0.59233,-0.20539 0.70967,0 1.0359,1.8128 0.70969,4.05973 0.70969,6.03226 0,4.52004 -0.21823,8.97522 -0.35483,13.48387 -0.0717,2.3645 0.0739,4.73234 0,7.09677 -0.17629,5.64098 -1.43351,11.11313 -2.12905,16.67742 -0.2902,2.32154 -0.50604,5.72584 -1.41936,8.16129 -0.27858,0.74293 -0.87206,1.35928 -1.0645,2.12903 -0.1874,0.74955 0.31528,0.74922 -0.35485,1.41936 -0.18701,0.18702 -0.49808,0.19615 -0.70967,0.35484 -7.31949,5.48961 0.90673,0.59675 -10.64517,4.96774 -2.07846,0.78644 -3.91948,2.14976 -6.03226,2.83871 -8.80626,2.87161 -17.33566,3.49293 -26.6129,4.25806 -19.83346,1.63575 -39.73386,1.06452 -59.6129,1.06452 -9.81721,0 -19.6344,0 -29.45161,0 -3.54839,0 -7.10647,0.26213 -10.64516,0 -2.87,-0.21259 -5.66838,-1.00406 -8.51613,-1.41935 -5.06669,-0.7389 -10.23107,-0.80123 -15.25806,-1.7742 -2.29917,-0.445 -4.97937,-2.05632 -7.45162,-2.12903 -2.95807,-0.087 -5.91337,0.25285 -8.87096,0.35484 -3.9027,0.13457 -7.80706,0.2179 -11.70968,0.35484 -13.85824,0.48625 -36.57665,1.12261 -51.09677,2.48387 -7.71237,0.72303 -15.33575,2.31961 -23.06452,2.83871 -8.1438,0.54697 -16.32204,0.28261 -24.48387,0.35484 -15.444414,0.13667 -30.713071,0.0774 -46.129032,-1.06452 -8.714769,-0.64554 -17.204896,-2.52445 -25.903224,-3.19355 -5.921792,-0.45552 -11.5062855,0.46136 -17.3870969,1.06452 -25.0029631,2.56441 -33.5594581,4.30062 -55.7096761,2.12903 -1.898102,-0.18609 -3.807256,-0.33564 -5.677421,-0.70968 -3.010088,-0.60201 -5.948799,-2.29864 -8.516127,-3.90322 -0.501505,-0.31344 -0.890392,-0.80004 -1.419355,-1.06452 -0.211585,-0.10579 -0.498094,0.10579 -0.709679,0 -0.334544,-0.16727 -0.04362,-0.85704 -0.354838,-1.06451 -0.196829,-0.13122 -0.52043,0.14193 -0.709678,0 -0.34117,-0.25588 -0.382059,-0.79151 -0.709676,-1.06452 -0.406361,-0.33864 -1.006306,-0.37924 -1.419355,-0.70968 -0.862581,-0.69006 -2.861873,-2.83531 -3.548388,-3.90323 -2.40742,-3.74487 -3.338862,-7.99231 -4.967742,-12.06451 -0.294677,-0.73669 -0.79765,-1.38181 -1.064514,-2.12903 -0.328049,-0.91854 -0.347441,-1.93311 -0.709679,-2.83871 -2.279023,-5.69756 -0.803743,0.8621 -2.129033,-5.32258 -0.902182,-4.21019 -0.709676,-8.50101 -0.709676,-12.7742 0,-3.08795 0.04708,0.25717 -0.354838,-4.96774 -0.133065,-1.72984 0.266128,-0.79839 0,-3.19355 -0.09864,-0.88773 -0.672854,-1.88467 -0.354841,-2.83871 0.380505,-1.14151 2.129033,-3.04958 2.129033,-4.25806"
       id="path353" /><path
       style="fill:#784421;fill-opacity:1;stroke:#d35f8d;stroke-width:0.626999;stroke-opacity:0"
       d="m 379.32256,152.58064 -0.35483,-11"
       id="path354" /><path
       style="fill:#87cdde;fill-opacity:1;stroke:#d35f8d;stroke-width:0.98795;stroke-opacity:0"
       d="m 75.366045,141.54188 c 7.561243,0.78479 15.146103,3.83592 22.666211,6.1787 1.620465,0.50485 3.348704,-0.66857 4.958234,0 0.73647,0.30592 1.38343,1.54794 2.12496,1.76535 2.66583,0.78166 5.78409,0 8.49983,0 3.8095,0 7.53028,0.35614 11.3331,0.88268 2.22419,0.30795 4.51095,-0.50256 6.72903,0 0.48475,0.10995 0.93287,0.74869 1.41665,0.88267 1.17331,0.3249 2.36692,-0.29276 3.54158,0 0.59898,0.14925 1.17018,0.78288 1.77081,0.88268 4.56208,0.758 9.23081,0 13.81221,0 10.86089,0 21.7218,0 32.58269,0 2.74568,0 5.4411,-1.09131 8.14567,-1.76535 1.70663,-0.42535 3.65196,0.15198 5.31239,-0.88268 0.16196,-0.10099 0.19578,-0.75108 0.35415,-0.88267 1.13566,-0.94347 3.09715,-1.40623 4.24992,-1.76535 1.05427,-0.32843 2.13145,0.29243 3.18744,0 0.26236,-0.0726 0.44793,-0.7745 0.70831,-0.88268 2.09374,-0.86969 0.76233,1.18193 2.83329,-0.88265 0.155,-0.15447 0.19218,-0.78176 0.35415,-0.88267 0.57264,-0.35682 1.35341,1.04023 1.7708,0 0.0834,-0.20796 -0.10558,-0.75109 0,-0.88268 0.23358,-0.29107 2.04284,-1.22168 2.47912,-1.76535 0.38071,-0.47442 0.65867,-1.42988 1.06247,-1.76533 0.29277,-0.24328 1.39464,0.46876 1.77081,0 0.29865,-0.37218 0.38438,-1.56351 0.70832,-1.76535 0.38911,-0.24253 3.32502,-0.6128 3.54159,-0.88267 0.21118,-0.26316 0,-1.1769 0,-1.76535 0,-0.29423 0.11453,-0.81131 0,-0.88268 -0.45812,-0.28541 -0.95085,0.19353 -1.41664,0 -1.26842,-0.52685 -2.62011,-2.01216 -3.89576,-2.648 -1.11676,-0.55666 -2.45011,0.77721 -3.54159,0 -0.40927,-0.29144 -0.64954,-1.50806 -1.06248,-1.76535 -0.57264,-0.35681 -1.18646,0.20796 -1.77079,0 -0.26133,-0.093 -0.45223,-0.7231 -0.70832,-0.88267 -1.64242,-1.02335 -3.96734,0 -5.66656,0 -4.36797,0 -8.73593,0 -13.1039,0 -3.46321,0 -6.84799,0.0652 -10.27063,-0.88268 -1.72098,-0.47658 -3.58168,0 -5.3124,0 -3.54158,0 -7.08318,0 -10.62478,0 -13.71741,0 -27.35666,-0.88267 -41.08251,-0.88267 -5.13105,0 -10.51422,-0.92203 -15.58302,0.88267 -2.32182,0.82668 2.19351,-3.4054 -3.54159,0.88268 -0.31982,0.23905 -0.4305,1.30371 -0.70832,1.76535 -0.67372,1.11941 -6.257636,-0.42005 -7.437352,0 -0.165275,0.0589 -0.192193,0.78175 -0.354159,0.88267 -1.480595,0.9225 -3.473607,-0.41114 -4.958234,0 -0.371033,0.10274 -0.696411,0.70019 -1.06248,0.88265 -1.128542,0.56256 -2.402032,-0.40571 -3.541593,0 -0.870743,0.31005 -1.658598,1.25412 -2.479117,1.76535 -0.652424,0.40652 -1.48857,-0.52867 -2.124959,0 -0.158385,0.13159 -0.204831,0.69659 -0.354159,0.88268 -0.211179,0.26316 -0.602729,-0.52631 -0.708319,0 -0.337861,1.68411 0.405856,1.70092 -0.354159,2.64802 -0.105589,0.1316 -0.236107,0 -0.354159,0 -0.236106,0.29423 -0.48868,0.51773 -0.708321,0.88265 -0.219641,0.36495 -0.118052,1.47113 -0.354159,1.76536 -0.177079,0.22064 -0.79686,-0.11045 -1.062479,0 -0.593764,0.24651 -1.180531,0.58845 -1.770796,0.88267 z"
       id="path355" /></g></svg>
