<?xml version="1.0" encoding="UTF-8" standalone="no"?>
<!-- Created with Inkscape (http://www.inkscape.org/) -->

<svg
   width="297mm"
   height="210mm"
   viewBox="0 0 297 210"
   version="1.1"
   id="svg1"
   sodipodi:docname="panel1.bg.with.planet.svg"
   inkscape:version="1.3.2 (091e20e, 2023-11-25, custom)"
   xml:space="preserve"
   xmlns:inkscape="http://www.inkscape.org/namespaces/inkscape"
   xmlns:sodipodi="http://sodipodi.sourceforge.net/DTD/sodipodi-0.dtd"
   xmlns="http://www.w3.org/2000/svg"
   xmlns:svg="http://www.w3.org/2000/svg"><sodipodi:namedview
     id="namedview1"
     pagecolor="#ffffff"
     bordercolor="#000000"
     borderopacity="0.25"
     inkscape:showpageshadow="2"
     inkscape:pageopacity="0.0"
     inkscape:pagecheckerboard="0"
     inkscape:deskcolor="#d1d1d1"
     inkscape:document-units="mm"
     inkscape:zoom="0.74564394"
     inkscape:cx="704.08941"
     inkscape:cy="398.984"
     inkscape:window-width="1920"
     inkscape:window-height="1051"
     inkscape:window-x="-9"
     inkscape:window-y="-9"
     inkscape:window-maximized="1"
     inkscape:current-layer="layer1" /><defs
     id="defs1" /><g
     inkscape:groupmode="layer"
     id="layer1"
     inkscape:label="Layer 1"><path
       style="fill:#ffcc00;fill-opacity:1;stroke:#d35f8d;stroke-width:0.626999;stroke-opacity:0"
       d="m 221.0507,203.23617 -1.50545,-30.86179"
       id="path328" /><rect
       style="fill:#373748;fill-opacity:1;stroke:#d35f8d;stroke-width:0.626999;stroke-opacity:0"
       id="rect337"
       width="317.2258"
       height="224.96774"
       x="-6.7419353"
       y="-3.5483871" /><path
       style="fill:#6f6f91;fill-opacity:1;stroke:#d35f8d;stroke-width:0.626999;stroke-opacity:0"
       d="M -54.64516,193.38709 -68.12903,125.96774"
       id="path337" /><path
       style="fill:#53536c;fill-opacity:1;stroke:#d35f8d;stroke-width:0.546217;stroke-opacity:0"
       d="M -5.1311382,88.158147 C 0.49592281,75.974292 4.7275088,62.860481 12.592946,51.885394 c 2.630568,-3.670579 5.614575,-8.039615 9.778805,-10.006275 2.497309,-1.179416 7.317518,-2.451256 9.778805,-3.126962 2.529425,-0.694412 5.204239,-0.890925 7.639693,-1.876178 4.890415,-1.978393 13.35166,-9.26697 16.807322,-13.445933 0.948942,-1.147565 1.618621,-2.509273 2.444701,-3.752354 0.905651,-1.36282 1.955295,-2.63176 2.75029,-4.065051 1.34915,-2.432372 2.310975,-5.076371 3.667052,-7.5047056 0.0996,-0.178354 6.266433,-9.597071 6.722929,-10.318974 1.243543,-1.966546 2.348648,-4.026418 3.667051,-5.941227 2.60403,-3.7820194 4.265171,-6.8870384 7.639693,-9.3808844 1.190954,-0.880142 2.733144,-1.341161 3.667051,-2.50157 0.597009,-0.741803 0.252099,-1.926311 0.611175,-2.814265 0.722034,-1.785505 3.540213,-7.601892 5.194991,-9.693581 0.906393,-1.145709 2.056647,-2.065164 3.055877,-3.126962 1.649482,-1.75277 3.207899,-3.595216 4.889399,-5.315834 1.73466,-1.775008 3.67237,-3.329324 5.50058,-5.003139 3.17109,-2.903295 6.23403,-5.932001 9.47322,-8.755491 1.5279,-1.331824 2.16285,-1.334154 3.97264,-2.188874 0.62042,-0.29301 1.18528,-0.716978 1.83352,-0.938089 4.06592,-1.386833 10.99713,0.56244 14.66821,0.938089 1.72308,0.176316 3.46408,-0.05209 5.195,0 3.97614,0.119665 7.94213,0.494157 11.91792,0.625393 1.42533,0.04705 2.89006,0.334223 4.27822,0 3.92675,-0.945431 7.22914,-3.140548 10.38999,-5.628531 0.38595,-0.303797 4.50748,-4.14315 4.8894,-3.752355 0.072,0.07371 -0.072,0.238994 0,0.312697 0.072,0.07371 0.23356,-0.07371 0.30558,0 0.14406,0.147406 -0.18221,0.532165 0,0.625391 3.35533,1.716685 -1.54505,-1.887846 3.05588,1.250785 0.66196,0.45157 1.22235,1.042321 1.83353,1.563482 1.93539,1.355017 3.79108,2.837693 5.80616,4.065049 12.00927,7.314656 2.65844,0.672175 11.00116,6.253925 1.34802,0.901895 2.61541,1.92697 3.97264,2.814264 2.31129,1.511007 4.76492,2.792942 7.02852,4.377746 4.5828,3.208543 8.55102,7.445103 13.14026,10.631669 1.13086,0.785215 2.46959,1.202253 3.66706,1.876177 0.84202,0.473882 1.5752,1.144785 2.4447,1.563482 0.87437,0.421041 1.84835,0.583118 2.75028,0.938088 0.87988,0.107634 1.38428,0.919756 2.13912,1.250785 2.1707,0.95194 0.43822,0.02714 1.83353,0.312696 0.61366,-0.07176 0.99576,0.489255 1.52794,0.625392 0.4118,0.105344 1.85556,-0.290144 2.13911,0 0.66182,0.677221 -1.86044,2.529105 -2.13911,2.814265 -3.58749,3.670948 1.13569,0.17816 -4.88941,5.003139 -4.83408,3.8712 -2.46308,1.526872 -8.25086,4.06505 -1.38238,0.606229 -2.61882,1.518559 -3.97265,2.188873 -1.80613,0.894264 -3.7549,1.489349 -5.50057,2.501569 -1.32934,0.7708164 -2.42022,1.9105464 -3.66706,2.8142654 -4.17078,3.023029 -4.5182,2.293275 -7.63968,7.50470802 -1.62761,2.71733598 -2.81874,8.48028898 -3.36147,11.25706058 -0.11969,0.612383 -1.99061,11.175323 -2.13911,13.758631 -0.29996,5.217923 -0.0947,10.716765 0,15.947504 0.0883,4.879163 1.34055,16.499127 -0.91677,21.88873 -0.63444,1.514798 -1.78393,2.746605 -2.75029,4.065047 -2.485,3.390409 -0.93674,1.280161 -4.27822,3.439661 -1.17141,0.757051 -2.15853,1.798186 -3.36146,2.50157 -0.95255,0.556975 -2.09459,0.709773 -3.05588,1.25078 -1.08948,0.613154 -1.99945,1.517909 -3.05588,2.188881 -7.00541,4.449324 -3.89529,2.467651 -10.38998,5.315824 -1.34053,0.58788 -2.60974,1.34491 -3.97264,1.87619 -0.78495,0.30598 -1.64783,0.35358 -2.44471,0.62538 -0.43216,0.14742 -0.7804,0.51234 -1.22234,0.6254 -0.64511,0.16503 -1.75504,-0.0784 -2.4447,0 -1.53204,0.17418 -3.04965,0.47223 -4.58382,0.62539 -3.66238,0.36562 -7.32486,0.77454 -11.00115,0.93809 -3.053,0.13583 -6.11252,-0.0694 -9.16764,0 -17.64737,0.40128 1.26754,0.12923 -19.55761,1.25078 -2.13616,0.11505 -4.28297,-0.14559 -6.41735,0 -3.98463,0.27182 -7.941865,0.86936 -11.917912,1.25079 -5.986788,0.57431 -10.764866,0.72794 -16.80732,1.56348 -4.931948,0.68198 -16.799175,2.93546 -22.613488,3.43965 -2.945213,0.2554 -5.909728,0.16652 -8.862044,0.3127 -7.704681,0.38148 -8.873039,0.40494 -15.279382,1.25079 -1.428711,0.18864 -2.901377,0.19189 -4.278228,0.62539 -1.306196,0.41125 -2.420793,1.30231 -3.667052,1.87617 -2.501158,1.1517 -5.045926,2.21462 -7.639692,3.126973 -3.16195,1.1122 -7.6451512,1.87897 -10.6955682,3.43966 -3.78515799,1.9366 -6.404889,4.26926 -10.389982,5.62853 -2.550695,0.87001 -4.5592938,0.006 -7.0285158,-0.62539 -2.205914,-0.56431 -8.087138,-1.56349 -10.084394,-1.56349"
       id="path338" /><path
       style="fill:#53536c;fill-opacity:1;stroke:#d35f8d;stroke-width:0.694642;stroke-opacity:0"
       d="m -18.256126,137.64981 c 10.0065057,-5.24721 20.196354,-11.29275 31.371002,-14.89718 3.340293,-1.07742 7.065772,-1.16192 10.457002,-2.12816 11.232537,-3.20041 2.581816,-3.04174 15.249792,-4.61104 8.060556,-0.99854 17.9349,-1.2576 26.142503,-0.3547 2.935564,0.32294 5.773881,1.1257 8.714169,1.41879 4.190553,0.41772 8.444367,0.29583 12.63554,0.70939 6.708671,0.66197 13.336996,1.80051 20.042588,2.48286 0.331,0.0337 4.56445,0.81561 4.79279,0.70938 1.92484,-0.89538 3.65343,-2.07756 5.66421,-2.83754 2.08284,-0.78724 4.33723,-1.23321 6.53563,-1.77348 5.50037,-1.35175 10.99832,-2.71817 16.55692,-3.90164 3.8863,-0.82744 7.85562,-1.37317 11.76412,-2.12818 4.66116,-0.90038 9.27347,-1.96519 13.94267,-2.83756 14.86387,-2.77708 12.61555,-1.35422 28.32105,-6.38449 1.69544,-0.54303 12.93268,-4.820667 16.1212,-6.739207 1.73629,-1.044721 3.11899,-2.43669 4.79279,-3.546945 2.25184,-1.493672 4.76013,-2.722951 6.97135,-4.256336 2.79332,-1.93707 7.43664,-6.206687 9.58558,-8.512672 1.70434,-1.828918 3.37187,-3.692188 4.79278,-5.675115 0.62525,-0.872565 0.69147,-1.960484 1.30713,-2.83756 0.56279,-0.801752 1.46024,-1.413481 2.17854,-2.128167 0.58889,-0.585925 1.00697,-1.310576 1.74284,-1.773475 6.31996,-3.975569 16.10077,-7.562509 23.96396,-9.222063 2.15058,-0.453889 4.39622,-0.576431 6.53563,-1.064082 8.36085,-1.905761 17.79921,-4.110745 25.70679,-7.448591 2.36691,-0.999092 4.58663,-2.221601 6.97133,-3.192251 1.3991,-0.569481 2.97463,-0.822976 4.35708,-1.418779 1.10418,-0.475875 2.03713,-1.177992 3.04997,-1.773475 3.0385,-1.786448 6.28289,-3.355034 9.14987,-5.320421 1.41398,-0.969323 2.56304,-2.171549 3.92138,-3.192252 4.70086,-3.532444 9.8947,-6.585095 13.94265,-10.640841 3.11715,-3.123149 3.08288,-3.436854 5.66421,-7.448591 0.60275,-0.936763 1.00691,-1.966137 1.74284,-2.837557 3.67767,-4.3547178 9.46628,-6.5644688 15.24979,-8.5126739 2.46726,-0.831103 4.88277,-1.7742699 7.40705,-2.4828631 3.53002,-0.99092167 7.39116,-1.07242837 10.89272,-2.1281684 2.13179,-0.6427456 4.03332,-1.7117949 6.09991,-2.4828632 1.42198,-0.530565 3.00591,-0.7771529 4.35708,-1.4187788 2.15836,-1.0249406 3.98541,-2.4631343 6.09991,-3.5469472 0.76918,-0.3942516 8.53549,-3.7582854 10.02132,-4.2563364 0.97767,-0.327726 2.0372,-0.462058 3.04993,-0.70939 0.43993,-0.107434 1.71793,-0.521899 1.30714,-0.354694 -3.29223,1.340039 -6.47805,2.435976 -9.14988,4.611031 -0.31507,0.2564824 -1.64847,1.1409198 -2.17854,0.7093894 -0.60743,-0.4944987 1.88722,-0.5533576 2.17854,0 1.29027,2.4508447 2.29159,5.2104319 3.04997,7.80328403 0.48163,1.6467846 0.70405,3.34565757 1.3071,4.96572577 0.85286,2.291123 2.51301,4.385439 3.04997,6.7391998 1.36179,5.969329 1.92117,12.044307 2.61424,18.089432 1.17001,10.204853 -0.43967,20.334918 -1.30711,30.503746 -0.34268,4.017148 -0.41536,8.049952 -0.87143,12.059621 -0.27079,2.380901 -1.12763,4.707278 -1.30713,7.093894 -0.25737,3.422308 0,6.857433 0,10.286147 0,3.783412 -0.34331,7.577158 0,11.350225 0.13054,1.43442 0.72469,2.82296 0.87143,4.25634 0.43801,4.27886 -0.25551,3.3072 0,6.7392 0.57319,7.69941 0.5997,8.75182 2.17854,15.60657 1.38429,6.01013 2.61424,11.92468 2.61424,18.08943 0,1.12958 0.75899,4.53092 0.43573,5.32042 -0.0459,0.11217 -0.29047,0 -0.43573,0 -2.857,0 -2.28192,-1.40418 -4.35708,-2.12816 -0.53398,-0.1863 -1.17126,0.0846 -1.74283,0 -3.57791,-0.52958 -8.94992,-1.60294 -12.19983,-2.83756 -3.20481,-1.21751 -5.79124,-3.43608 -8.71418,-4.96573 -1.09271,-0.57185 -2.32375,-0.94585 -3.48563,-1.41878 -1.74284,-0.70939 -3.38939,-1.60415 -5.22852,-2.12817 -3.87283,-1.10346 -14.21296,-0.65638 -16.55693,-0.70939 -3.78583,-0.0856 -7.57916,-0.27337 -11.32843,-0.70939 -5.72401,-0.66567 -11.31123,-1.96255 -16.99262,-2.83756 -18.63804,-2.87048 7.26929,1.18803 -10.02128,-1.06408 -2.05334,-0.26745 -4.04135,-0.82468 -6.09992,-1.06408 -1.00643,-0.11705 -2.03529,0.0516 -3.04996,0 -4.30604,-0.21909 -4.39189,-0.74203 -9.14987,-0.3547 -1.19171,0.097 -2.31128,0.51819 -3.48567,0.70939 -1.00703,0.16396 -2.07568,0.0904 -3.04995,0.3547 -6.4961,1.76274 -0.91163,0.75429 -5.66422,2.83756 -2.4697,1.08257 -5.27039,1.57239 -7.84274,2.48286 -1.90703,0.67496 -3.67941,1.62324 -5.66422,2.12816 -2.69161,0.68474 -5.54794,0.84515 -8.27845,1.41879 -1.77883,0.3737 -3.44213,1.06975 -5.22851,1.41877 -1.85753,0.36292 -3.77392,0.48498 -5.66421,0.7094 -8.8329,1.04862 -17.64037,2.24814 -26.5782,2.48286 -2.32258,0.061 -4.65496,-0.15086 -6.97134,0 -3.32832,0.21675 -6.64696,1.18986 -10.02129,1.41877 -1.37355,0.0932 -3.00633,-0.15708 -4.35709,0 -11.4222,1.32835 -22.61809,3.82352 -33.98525,5.32042 -12.97329,1.70842 -29.72117,1.91402 -42.69942,1.41879 -3.50894,-0.1339 -6.96081,-0.78641 -10.457,-1.06409 -5.3135,-0.422 -9.5496,-0.17124 -14.81409,-1.06408 -2.1137,-0.35848 -3.99612,-1.37826 -6.09991,-1.77348 -2.33607,-0.43885 -6.178648,-0.97575 -8.278463,-1.77347 -1.132157,-0.43011 -1.965202,-1.26887 -3.049959,-1.77347 -0.960348,-0.44674 -2.10795,-0.59218 -3.04996,-1.06409 -0.966059,-0.48396 -1.699519,-1.2274 -2.614247,-1.77347 -2.188473,-1.30648 -7.281652,-4.0163 -10.021292,-4.61104 -1.270765,-0.27586 -2.645476,-0.0951 -3.921378,-0.35469 -1.07306,-0.21838 -1.968426,-0.87542 -3.049958,-1.06408 -0.994084,-0.17341 -2.035889,0.059 -3.049959,0 -3.607606,-0.20978 -7.296847,-0.44328 -10.892708,-0.70939 -5.105645,-0.37785 1.509538,-0.76402 -6.535626,-0.3547 -3.750972,0.19084 -7.208848,1.65466 -10.89271,2.12817 -3.193046,0.41042 -6.467742,0.26257 -9.585584,1.06408 -8.212032,2.1111 -16.157491,4.69714 -24.399669,6.73921 -1.7575132,0.43543 -3.4163885,1.17291 -5.22850052,1.41877 -4.03228988,0.54709 -7.10786478,0.7094 -10.89270948,0.7094 -0.585706,0 -2.099971,0.20932 -2.61425,0 -0.342667,-0.13949 -1.965252,-1.51303 -2.178542,-1.77348 -0.150615,-0.18392 -0.260043,-0.92108 -0.435707,-1.06408 -0.22964,-0.18695 -0.704331,-0.128 -0.871418,-0.3547 -0.721855,-0.97939 -1.307125,-3.93551 -1.307125,-4.96572 0,-0.60287 0.497208,-1.1727 0.435709,-1.77348 -0.164387,-1.60585 -0.871418,-2.42486 -0.871418,-3.90164 0,-0.66998 0,-1.02467 0,-0.3547"
       id="path339" /><path
       style="fill:#b7b7c8;fill-opacity:1;stroke:#d35f8d;stroke-width:0.626999;stroke-opacity:0"
       d="m -15.612903,111.41935 c -0.793843,-7.68877 -0.07943,-14.950135 0.709677,-22.709674 0.404428,-3.976867 0.332922,-9.318127 3.903226,-12.064516 3.538367,-2.721821 6.4419095,-2.142736 10.64516129,-3.193547 2.77308151,-0.693272 5.33768051,-2.211242 8.16129021,-2.838712 5.8268325,-1.294849 0.5112803,0.817055 7.0967745,-1.064514 0.566123,-0.16175 9.076838,-3.268495 9.580645,-3.548388 1.178883,-0.654936 2.080544,-1.722342 3.193548,-2.483871 1.138399,-0.778904 2.3714,-1.409763 3.548388,-2.129033 0.952132,-0.581858 1.815399,-1.329275 2.838709,-1.774193 C 38.705231,57.5952 39.6173,58.318182 42.935482,55 c 3.075445,-3.075445 5.560899,-7.115796 8.870969,-9.935485 6.098883,-5.195345 4.340023,-2.9465 9.225806,-6.032256 1.220705,-0.770972 2.2459,-1.860942 3.548388,-2.483871 1.451332,-0.694116 3.070833,-0.960904 4.612902,-1.419355 2.834383,-0.842656 5.638741,-1.802387 8.51613,-2.483871 1.627696,-0.385509 3.338772,-0.329586 4.96774,-0.709679 2.219817,-0.517956 8.741447,-2.858272 11.000002,-3.548388 2.470509,-0.754877 5.041947,-1.198025 7.451611,-2.129031 9.4404,-4.514975 5.70252,-3.018856 13.83871,-6.032258 4.94006,-1.829651 11.31286,-2.996933 15.6129,-6.032258 6.07242,-4.2864094 11.16426,-13.3754134 15.25807,-19.5161285 1.90779,-2.8616809 3.00415,-4.6150794 6.38709,-6.3870965 3.52923,-1.848643 7.61756,-1.026737 11.35484,-1.774194 0.99096,-0.198191 1.86702,-0.786888 2.83871,-1.064516 0.69179,-0.197653 1.41936,-0.236559 2.12903,-0.354839 2.3656,-0.591397 4.77439,-1.031029 7.09678,-1.774193 0.65687,-0.210199 1.15732,-0.756081 1.77419,-1.064516 2.92459,-1.462295 5.59813,-2.616686 8.51613,-4.258065 0.92206,-0.518659 1.95846,-0.832524 2.83871,-1.419355 0.27836,-0.185572 0.47312,-0.946236 0.70968,-0.709677 0.27362,0.273617 -0.16947,1.650613 -0.35484,1.774194 -0.19683,0.131219 -0.56774,-0.189248 -0.70968,0 -0.49512,0.66016 -1.16816,3.809098 -1.41935,4.612903 -1.55892,4.98855 -3.15029,10.1145839 -6.03226,14.5483867 -1.56044,2.40066961 -3.60463,4.4513392 -5.32258,6.7419354 -10.55898,14.0786379 0.3121,0.9743395 -6.03226,6.7419359 -0.68355,0.62141 -1.06452,1.537634 -1.77419,2.129032 -0.73258,0.61048 -1.63095,0.992892 -2.48387,1.419355 -5.77181,2.885904 -7.43301,3.958273 -13.12904,4.258064 -1.29927,0.06838 -2.6086,-0.129462 -3.90322,0 -1.08507,0.108507 -2.1179,0.530403 -3.19355,0.709677 -5.33494,0.889157 -1.42171,-0.418713 -8.16129,1.419355 -5.51347,1.503673 -8.23856,6.819206 -12.06452,10.64516 -1.12521,1.125213 -2.44381,2.048069 -3.54838,3.19355 -4.07048,4.221232 -7.48845,9.058558 -11.70968,13.129033 -0.65362,0.630272 -8.8158,6.502765 -9.22581,6.741935 -5.56653,3.247144 -11.600724,5.72271 -17.387092,8.516128 -1.810788,0.874172 -3.459139,2.08326 -5.322581,2.838709 -2.530644,1.025938 -5.246629,1.53308 -7.806452,2.483871 -18.521243,6.87932 7.86783,-2.29552 -8.51613,4.258064 -2.188144,0.87526 -4.506169,1.383779 -6.741935,2.129033 -4.590883,1.530295 -3.939154,1.530826 -8.870966,3.548388 -1.273606,0.52102 -4.056713,1.432804 -5.32258,2.129031 -3.774578,2.076018 -7.080195,4.720129 -10.645162,7.096776 -3.916519,2.611011 -3.010683,1.811363 -6.032259,3.903225 -2.050535,1.419601 -2.285532,1.762782 -4.258064,2.83871 -1.209763,0.65987 -5.365036,2.6163 -6.032258,2.838709 -3.400435,1.133478 -3.096968,0.196318 -6.0322583,1.419355 -0.6366298,0.265263 -1.1199032,0.84642 -1.7741934,1.064516 -1.1443205,0.381439 -2.3742322,0.433406 -3.5483871,0.709676 -5.2611511,1.237915 0.1209028,0.157007 -4.6129031,1.419355 -1.0536635,0.28098 -2.17575,0.31822 -3.1935484,0.70968 -0.2566485,0.0987 -3.3304279,2.22232 -3.5483871,2.48387 -0.441524,0.52983 -0.610357,1.25515 -1.0645166,1.77419 -0.681885,0.7793 -4.693265,3.29666 -5.32258,3.54839 -0.329459,0.13178 -0.716568,-0.0696 -1.064516,0 -1.158113,0.23162 -2.785003,1.77419 -3.903226,1.77419"
       id="path340" /><path
       style="fill:#9393ac;fill-opacity:1;stroke:#d35f8d;stroke-width:0.626999;stroke-opacity:0"
       d="m -18.451613,149.03226 c 6.309317,-2.77704 12.7042794,-4.76494 19.5161291,-6.03226 4.1926864,-0.78004 8.528773,-0.30535 12.7741939,-0.70968 2.381281,-0.22679 4.733989,-0.69144 7.096774,-1.06451 1.599994,-0.25264 13.86926,-2.3141 14.548387,-2.48388 1.598255,-0.39956 3.034937,-1.3008 4.612902,-1.77419 1.266637,-0.37999 2.631702,-0.34638 3.903226,-0.70968 0.719283,-0.20551 1.382257,-0.66575 2.129033,-0.70968 2.597661,-0.1528 5.204301,0 7.806452,0 3.193547,0 6.401482,-0.30277 9.580644,0 6.184318,0.58899 12.340966,2.88479 18.451613,3.90323 2.228982,0.3715 4.503692,0.39881 6.741935,0.70968 5.13162,0.71272 9.003144,1.7701 14.193554,2.83871 1.29523,0.26667 2.62435,0.37313 3.90322,0.70968 1.33885,0.35232 2.54568,1.14784 3.90323,1.41935 0.23196,0.0464 0.47311,0 0.70967,0 0.5914,0 1.19794,-0.13298 1.7742,0 0.9847,0.22724 1.87503,0.7602 2.83871,1.06452 5.00586,1.5808 10.17054,2.63134 15.25806,3.90322 1.41935,0.35484 2.81121,0.84749 4.25806,1.06452 4.11654,0.61748 9.50745,-0.39156 13.48388,-0.70968 5.90738,-0.47259 8.6235,-0.2861 15.25806,-2.12903 2.64088,-0.73358 5.09965,-3.08208 7.45161,-4.25807 3.93144,-1.96571 8.13308,-3.35686 12.06452,-5.32258 1.32558,-0.66279 2.47123,-1.74716 3.90323,-2.12903 9.75666,-2.60178 19.67882,-2.12027 29.45161,-4.25806 2.49432,-0.54564 5.02933,-0.96677 7.45161,-1.7742 1.80933,-0.60311 3.14907,-2.26439 4.96774,-2.8387 1.47525,-0.46588 9.43807,-2.33643 11.35484,-2.48388 2.00483,-0.15421 4.0227,0.0693 6.03226,0 5.35264,-0.18457 10.58901,-0.91781 15.6129,-2.83871 15.25165,-5.83151 -3.91529,0.34949 15.25808,-6.38709 1.3803,-0.48498 2.88311,-0.56454 4.25804,-1.06452 1.2428,-0.45192 2.27259,-1.42625 3.54841,-1.77419 2.16363,-0.59009 11.6395,-0.62974 13.83869,-0.35484 2.16413,0.27051 4.24849,0.99163 6.38712,1.41935 3.20984,0.64197 8.89833,1.45691 12.41933,2.48387 1.32905,0.38764 2.56013,1.08359 3.90324,1.41936 3.29506,0.82377 8.28214,0.59269 11.35483,2.12903 3.16,1.58 5.58276,4.16557 8.51614,6.03226 0.6694,0.42598 1.45328,0.64867 2.12902,1.06451 0.86654,0.53326 1.58465,1.29813 2.48389,1.7742 1.12585,0.59605 2.47679,0.73048 3.54838,1.41935 0.63706,0.40955 0.86106,1.26243 1.41935,1.7742 3.14558,2.88345 2.00073,1.41334 4.96774,3.19354 0.50713,0.30428 0.87754,0.82748 1.41936,1.06452 0.62185,0.27206 6.7932,2.25871 7.80645,2.48387 0.93088,0.20687 1.91045,0.13643 2.83871,0.35484 1.09226,0.25701 2.08852,0.86951 3.19355,1.06452 9.5408,1.68367 -7.81111,-3.60041 8.51612,1.06451 0.91691,0.26198 1.54326,1.26259 2.48388,1.41936 0.46667,0.0778 0.97052,-0.14962 1.41936,0 0.31736,0.10579 0.40216,0.57789 0.70966,0.70968 0.55436,0.23757 1.19431,0.18915 1.77419,0.35483 2.33114,0.66605 -1.14985,-0.0366 1.41936,1.06452 0.55435,0.23758 1.21986,0.11726 1.77419,0.35484 2.48388,1.06452 -0.35483,0.35484 1.06452,1.06452 0.10578,0.0529 0.30195,-0.1058 0.35484,0 0.1058,0.21158 0,0.47311 0,0.70967 0,2.87932 -3.28279,3.89474 -5.32257,5.32258 -2.52169,1.76519 -5.39787,2.87635 -8.16129,4.25807 -1.056,0.52799 -2.35712,1.29258 -3.19354,2.12903 -1.1919,1.19188 -1.66725,2.6326 -3.19358,3.54839 -0.12041,0.0722 -2.10809,0.008 -2.12902,0 -0.31062,-0.12425 -0.41045,-0.56007 -0.70967,-0.70968 -8.11916,-4.05957 2.35665,1.74072 -5.67743,-1.77419 -1.02229,-0.44726 -1.81641,-1.32694 -2.83871,-1.7742 -0.89358,-0.39094 -1.92545,-0.3672 -2.83871,-0.70968 -10.17212,-3.81455 9.5704,1.93008 -9.22579,-3.90322 -4.54133,-1.40938 -9.53587,-1.30709 -14.19357,-2.12903 -0.96052,-0.16951 -1.87002,-0.59572 -2.83869,-0.70968 -3.18394,-0.37458 -6.71809,-0.10735 -9.9355,-0.35484 -0.60132,-0.0463 -1.18279,-0.23656 -1.77419,-0.35484 -2.24732,-0.11828 -4.49294,-0.27451 -6.74193,-0.35484 -2.96375,-0.10584 -6.30573,-0.25991 -9.22581,0.35484 -1.20837,0.2544 -2.33748,0.82234 -3.54838,1.06452 -5.08375,1.01675 -11.44825,1.9603 -16.67742,1.41935 -4.01095,-0.41492 -3.41318,-1.18935 -6.74193,-2.48387 -1.15091,-0.44757 -2.36559,-0.70967 -3.54841,-1.06451 -4.98959,-1.49689 -7.5724,-2.55051 -12.41934,-2.12904 -5.33136,0.4636 -12.27627,1.66031 -17.3871,3.19355 -6.99134,2.09741 -13.78908,5.11775 -20.93548,6.74194 -2.36862,0.53832 -7.97521,-0.10053 -9.93549,0 -5.67741,0.29115 -11.32615,1.11725 -17.03225,0.70967 -4.03896,-0.28849 -8.02745,-1.10881 -12.06452,-1.41935 -2.59716,-0.19978 -5.20929,-0.15506 -7.80645,-0.35484 -1.6678,-0.12829 -3.29872,-0.59841 -4.96774,-0.70968 -3.65699,-0.24379 -7.34302,-0.0936 -11,-0.35483 -4.67478,-0.33392 -9.47478,-1.10291 -14.19355,-0.70968 -0.48599,0.0405 -0.93409,0.30631 -1.41935,0.35484 -1.53453,0.15345 -3.07606,0.22676 -4.61291,0.35484 -3.14822,0.26235 -6.42341,0 -9.58064,0 -1.58976,0 -3.3927,0.225 -4.96774,0 -4.72753,-0.67536 -2.1496,-0.52336 -6.03226,-1.41936 -3.70265,-0.85446 -0.59558,-0.0241 -3.90323,-0.35484 -1.84384,-0.18438 -3.54692,-0.97544 -5.32258,-1.41935 -2.69563,-0.67391 -5.56601,-0.42117 -8.16129,-1.41936 -0.64371,-0.24758 -1.147988,-0.7755 -1.774193,-1.06451 -1.864757,-0.86066 -4.24167,-1.13427 -6.032256,-2.12904 -0.745593,-0.41421 -1.347618,-1.07748 -2.129034,-1.41935 -0.383434,-0.16775 -5.916379,-2.07744 -6.741935,-2.12903 -1.77074,-0.11067 -3.562088,0.22006 -5.32258,0 -3.492728,-0.43659 -7.320248,-0.95554 -10.645161,-2.12903 -0.997614,-0.3521 -1.863691,-1.00882 -2.83871,-1.41936 -1.909392,-1.3489 -4.315531,-1.26588 -6.387097,-2.12903 -0.63663,-0.26527 -1.137562,-0.79926 -1.774195,-1.06452 -0.663123,-0.2763 -3.320928,-0.96039 -4.258064,-1.06452 -2.159775,-0.23997 -4.572439,0 -6.741935,0 -2.707682,0 -5.500492,-0.23644 -8.16129,0.35484 -3.020311,0.67118 -6.288204,1.50467 -9.225806,2.48388 -0.501817,0.16727 -0.902989,0.59492 -1.419355,0.70967 -0.577315,0.1283 -1.200454,-0.14343 -1.774193,0 -0.41373,0.10344 -0.665207,0.55994 -1.064517,0.70968 -0.564709,0.21177 -1.196519,0.18154 -1.774193,0.35484 -2.552268,0.76568 -5.110576,1.54954 -7.806452,1.77419 -1.296581,0.10805 -2.608607,-0.12946 -3.903225,0 -2.7610798,0.27611 -5.383538,1.54272 -8.1612907,1.7742 -2.76642606,0.23053 -5.7770318,-0.45652 -8.5161288,0 -0.2608826,0.0435 -0.4530931,0.29069 -0.7096776,0.35483 -0.458992,0.11475 -0.9705152,-0.14961 -1.4193546,0 -1.2653566,0.42179 -2.3791124,1.18956 -3.5483873,1.7742 -1.509306,0.75465 -3.539357,0.70516 -4.967742,1.41935 -0.891157,0.44558 -1.562182,1.03685 -2.483871,1.7742 z"
       id="path341" /><path
       style="fill:#373748;fill-opacity:1;stroke:#d35f8d;stroke-width:0.626999;stroke-opacity:0"
       d="m -36.548388,167.12903 -2.838709,42.22581"
       id="path342" /><path
       style="fill:#6f6f91;fill-opacity:1;stroke:#d35f8d;stroke-width:0.626999;stroke-opacity:0"
       d="m -4.6129032,228.16129 c 3.5982053,-1.7991 3.0148612,-1.47463 8.8709676,-4.96774 4.2856988,-2.55639 8.6437456,-5.00615 12.7741936,-7.80646 2.859313,-1.93851 5.286979,-4.47088 8.16129,-6.38709 2.393688,-1.59579 14.144627,-8.70332 18.806451,-10.29033 6.21398,-2.11539 11.324365,-2.94187 17.741937,-3.19354 3.427473,-0.13441 6.865125,0.18349 10.29032,0 3.208602,-0.17189 6.374887,-0.84594 9.580647,-1.06452 3.304156,-0.22528 6.630527,-0.21322 9.935482,0 9.332315,0.60209 18.683815,1.7551 28.032255,2.12903 3.07282,0.12292 6.15585,-0.18058 9.22581,0 4.98161,0.29304 9.92449,1.081 14.90323,1.41936 7.20715,0.4898 14.44266,0.51047 21.64516,1.06451 2.0358,0.1566 3.99254,0.97181 6.03226,1.06452 5.66033,0.25729 11.79263,-0.50597 17.38709,-1.41936 5.85197,-0.95542 18.06271,-3.44581 23.06452,-4.6129 2.62663,-0.61288 5.17633,-1.53128 7.80645,-2.12903 6.82268,-1.55061 13.94014,-2.3318 20.93548,-2.48387 13.03834,-0.28344 11.96724,-0.37445 26.96774,4.25806 2.58205,0.7974 4.83923,2.50203 7.45162,3.19355 1.48643,0.39347 3.07525,0 4.61291,0 13.37651,0 3.63257,-0.15746 14.90321,0.35484 15.52003,0.70546 31.03726,2.48405 46.12904,6.3871 3.47708,0.89924 6.86679,2.10804 10.29031,3.19354 4.05583,1.286 7.47734,1.52218 8.51614,5.67743 1.25008,5.00033 -3.38079,8.32267 -7.09678,10.64516 -3.37167,2.10728 -6.74751,4.22743 -10.29031,6.03225 -7.56777,3.85528 -16.62528,5.96464 -24.48388,8.51613 -3.80672,1.23595 -7.53888,2.69614 -11.35483,3.90323 -19.93704,6.30661 -23.4483,7.23672 -42.58065,12.06451 -6.25847,1.57924 -12.41777,3.6925 -18.80645,4.61291 -7.624,1.09837 -15.37036,1.05642 -23.06452,1.41935 -8.24692,0.38901 -20.08149,0.55371 -28.3871,0 -4.27477,-0.28498 -8.54235,-0.75117 -12.77419,-1.41935 -4.19458,-0.66231 -8.1836,-2.53616 -12.41935,-2.83871 -3.30341,-0.23596 -6.62398,-0.046 -9.93549,0 -8.87977,-0.12361 -17.73968,0.58291 -26.6129,0.70968 -19.84357,0.28348 -39.871921,0.61865 -59.612904,-1.7742 -6.009984,-0.72848 -13.952336,-2.22366 -20.225805,-2.83871 -3.304424,-0.32396 -6.637438,-0.32618 -9.935483,-0.70967 -1.797222,-0.20899 -3.537871,-0.76707 -5.32258,-1.06452 -2.47495,-0.41249 -4.988243,-0.58774 -7.451614,-1.06452 -2.94329,-0.56967 -5.874688,-2.15095 -8.870968,-2.48387 -0.44776,-0.0497 -4.097399,-0.183 -4.612903,-0.35484 C 15.057015,245.71793 11.415927,243.83528 11,243.41935 10.581818,243.00117 10.397288,242.36944 9.9354837,242 c -0.1847215,-0.14778 -0.4731181,0 -0.7096773,0"
       id="path343" /><path
       style="fill:#dedbe3;fill-opacity:1;stroke:#d35f8d;stroke-width:0.626999;stroke-opacity:0"
       d="m 14.903226,30.16129 c 0.118279,-0.591399 0.164118,-1.202033 0.354838,-1.774195 0.214888,-0.644662 0.849629,-1.484368 1.064516,-2.129031 0.432854,-1.298562 0,-4.900642 0,-6.387097 0,-0.591397 0,-1.182795 0,-1.774193 0,-0.11828 0.11828,-0.354839 0,-0.354839 -0.679344,0 1.042759,3.106519 1.064516,3.193549 0.451776,1.807102 -0.09613,3.873541 0.354839,5.677419 0.24267,0.970679 0.498953,0.57101 1.064516,1.419354 0.06561,0.09841 -0.105792,0.301943 0,0.354838 0.436194,0.218099 0.966557,0.17372 1.419355,0.354841 0.55205,0.220818 1.218634,0.879329 1.774194,1.064516 0.336629,0.11221 1.419355,0 1.064516,0 -0.619275,0 -1.982668,0.104236 -2.483871,0.354838 -0.149613,0.07481 -0.19615,0.301943 -0.354839,0.354838 -0.336629,0.11221 -0.813607,-0.250909 -1.064516,0 -0.08364,0.08364 0.08364,0.271204 0,0.354838 -0.08364,0.08364 -0.271202,-0.08363 -0.354839,0 -0.08364,0.08364 0.08364,0.271204 0,0.354841 -0.08364,0.08364 -0.271202,-0.08364 -0.354838,0 -0.63279,0.632788 -0.194832,0.974159 -0.354839,1.774193 -0.172964,0.864817 -0.926145,2.501693 -1.064516,3.193547 -0.139179,0.695896 0,1.419355 0,2.129033 0,0.987499 0.189958,2.243757 0,3.193547 -0.0328,0.164026 -0.280032,0.205227 -0.354839,0.354841 -0.105792,0.211585 0,0.946235 0,0.709676 0,-1.654524 0.352864,-8.520078 0,-9.225806 -0.526092,-1.052185 -1.157441,-1.960044 -1.774193,-3.193548 z"
       id="path344" /><path
       style="fill:#dedbe3;fill-opacity:1;stroke:#d35f8d;stroke-width:0.626999;stroke-opacity:0"
       d="m 43.999999,31.225807 c 0,-2.381287 -0.06531,-2.026708 0.35484,-4.967743 0.215212,-1.506501 0.902282,-8.323522 -0.35484,-9.580645 -0.250907,-0.250909 -0.08606,0.720272 0,1.064516 0.343201,1.372802 0.35484,0.659608 0.35484,2.483871 0,2.605523 0.743308,5.236782 1.064514,7.806451 0.05868,0.469466 -0.07778,0.952675 0,1.419355 0.107765,0.646575 0.57735,1.467392 0.709679,2.129033 0.07147,0.357338 -0.01945,1.941891 0.354838,2.129031 0.211585,0.105793 0.498094,-0.105791 0.709679,0 0.236558,0.118282 0.167822,0.522663 0.354838,0.709678 0.24077,0.240771 0.709676,1.476177 0.709676,0.709679 0,-0.236561 -0.603885,-0.211587 -0.709676,0 -0.218096,0.436192 -0.252656,0.942499 -0.354838,1.419355 -0.354841,1.655913 -0.854464,3.287313 -1.064517,4.967739 -0.155945,1.247559 -0.05038,2.685392 -0.354838,3.903226 -0.04057,0.16228 -0.301942,0.196152 -0.354841,0.354841 -0.104407,0.313227 0,1.046581 0,1.419355 0,0.236558 -0.236558,0.709676 0,0.709676 0.445612,0 -0.307485,-4.281438 -0.354838,-4.612902 -0.210021,-1.47015 0.504071,-7.153148 0,-8.16129 -0.149614,-0.299228 -0.524105,-0.431321 -0.709676,-0.709679 -0.543009,-0.814511 -0.43947,-1.064516 -1.419357,-1.064516"
       id="path345" /><path
       style="fill:#dedbe3;fill-opacity:1;stroke:#d35f8d;stroke-width:0.626999;stroke-opacity:0"
       d="m 246.6129,49.67742 c -0.86563,-6.209223 1.95846,-0.832525 2.83871,-1.419357 1.55161,-1.034405 3.28166,-4.374743 3.90323,-6.032257 0.24191,-0.645112 1.68229,-2.997009 1.77419,-3.548388 0.60892,-3.653504 0.35484,-7.571105 0.35484,-11.354837 0,-0.118279 0,0.236559 0,0.354838 0,0.591397 0,1.182796 0,1.774193 0,2.065605 0.0355,3.956732 0.35484,6.032259 0.27594,1.793629 0.42728,3.978129 1.06451,5.677419 0.14974,0.399309 0.51896,0.683077 0.70968,1.064516 0.7122,1.424406 0.96825,4.871477 2.12903,6.032257 0.30156,0.301556 0.80864,0.368509 1.06452,0.709678 0.14193,0.189249 -0.0748,0.485259 0,0.709679 0.10579,0.317376 0.56006,0.410451 0.70968,0.709676 0.0529,0.105794 -0.1058,0.301942 0,0.354838 0.21158,0.105794 0.51284,-0.131218 0.70967,0 0.22006,0.146709 0.13478,0.56297 0.35484,0.709679 1.24769,0.831791 0.25536,-0.908643 1.06452,0.709676 0.11828,0.236561 0.70968,0.61932 0.70968,0.35484 0,-0.06979 -2.02481,0.337466 -2.12904,0.354838 -1.99659,0.332767 -4.90518,2.212615 -6.03225,3.903226 -3.57133,5.356984 -2.83871,11.991737 -2.83871,18.096775 0,0.118279 0,-0.236561 0,-0.354841 0,-1.096409 0.14528,-2.74094 0,-3.903226 -0.15539,-1.243102 -0.37961,-3.047791 -0.70968,-4.258064 -0.29525,-1.082558 -0.90583,-2.082725 -1.06452,-3.193547 -0.60355,-4.224864 0.62677,0.951733 -0.35484,-2.483871 -1.38518,-4.848135 -0.0953,-4.912992 -3.90322,-7.451614 -0.27836,-0.185571 -0.41045,-0.560065 -0.70968,-0.709676 -0.21159,-0.105793 -0.5424,0.167272 -0.70968,0 -0.47311,-0.47312 0.5914,-0.35484 -0.35483,-0.35484 -2.05291,0 -2.00821,-0.875012 -3.90323,-1.064514 -0.70616,-0.07062 -1.42649,0.100361 -2.12903,0 -0.1656,-0.02365 -0.20523,-0.280033 -0.35484,-0.354841 -0.1058,-0.0529 -0.47312,0 -0.35484,0 1.19964,0 4.88596,0.382098 6.03226,0 0.65429,-0.218096 1.15732,-0.756079 1.77419,-1.064514 z"
       id="path347" /><path
       style="fill:#dedbe3;fill-opacity:1;stroke:#d35f8d;stroke-width:0.626999;stroke-opacity:0"
       d="m 238.09677,199.77419 c 1.98366,-3.6863 6.25474,-6.10125 7.45162,-10.29032 0.0975,-0.34119 -0.0583,-0.71451 0,-1.06452 0.12298,-0.73788 0.61688,-1.38674 0.70967,-2.12903 0.28615,-2.28919 0,-4.77701 0,-7.09678 0,-2.6e-4 0,1.41908 0,1.41936 0,0.5914 -0.0899,1.18967 0,1.77419 0.14831,0.96402 0.57174,1.87316 0.70968,2.83871 0.25428,1.77995 0,3.87177 0,5.67742 0,4.91724 -0.17212,-0.14034 0.35484,3.54839 0.14893,1.0425 -0.17314,2.15472 0,3.19355 0.16493,0.98962 0.74405,1.87731 1.06451,2.83871 0.0748,0.22442 0,0.47312 0,0.70968 0.23656,0.59139 0.42483,1.20448 0.70968,1.77419 0.24,0.48 1.69119,3.32946 2.12903,3.54839 0.21881,0.1094 2.11424,0.72446 1.7742,1.06451 -0.33455,0.33455 -0.95543,-0.0928 -1.41936,0 -0.25934,0.0519 -0.45309,0.2907 -0.70967,0.35484 -1.49022,0.37256 -3.11245,0.33456 -4.61291,0.70968 -2.3856,0.5964 -2.40747,-1.0781 -3.54839,1.77419 -0.19645,0.49113 -0.60594,0.90067 -0.70967,1.41936 -0.38588,1.92937 0,4.43837 0,6.38709 0,0.94624 0,1.89248 0,2.83871 0,0.78801 0,2.20736 0,1.41936 0,-3.34599 -1.09191,-6.30616 -1.41936,-9.58065 -0.15086,-1.50863 0.49271,-4.90896 0,-6.38709 -0.0904,-0.27118 -0.57945,-0.80406 -0.70968,-1.06452 -0.39092,-0.78184 -1.20564,-2.37702 -2.12903,-2.83871 -0.43619,-0.2181 -0.96655,-0.17372 -1.41935,-0.35484 -0.46593,-0.18637 -0.60328,-0.86684 -1.06452,-1.06451 -0.55435,-0.23758 -1.19429,-0.18915 -1.77419,-0.35484 -0.84875,-0.2425 -0.89914,-0.70968 -1.7742,-0.70968 -0.26448,0 -0.94623,-0.23656 -0.70967,-0.35484 1.1535,-0.57675 5.89571,0.55434 7.09677,0 0.2663,-0.1229 1.80312,-2.48387 2.83871,-2.48387"
       id="path348" /><path
       style="fill:#dedbe3;fill-opacity:1;stroke:#d35f8d;stroke-width:0.626999;stroke-opacity:0"
       d="m 171.3871,109.64516 c 1.83721,-1.54014 1.43822,-2.95192 1.77419,-4.96774 0.0228,-0.13702 0.64458,-4.25807 0.35484,-4.25807 -0.11828,0 0,0.23656 0,0.35484 0,0.82796 0,1.65592 0,2.48387 0,2.32471 -0.11221,-0.20621 0.35483,2.12904 0.0928,0.46393 -0.33454,1.0848 0,1.41935 0.16728,0.16727 0.54241,-0.16727 0.70968,0 0.25091,0.25091 -0.25091,0.81361 0,1.06452 0.0836,0.0836 0.23656,0 0.35484,0 0.11828,0.23656 0.16782,0.52266 0.35484,0.70967 0.0654,0.0654 0.99913,0.28946 1.06452,0.35484 0.0836,0.0836 0,0.23656 0,0.35484 0.23655,0 0.49809,-0.10579 0.70967,0 0.94133,0.47067 -1.20157,0.30039 -1.41935,0.35484 -0.49134,0.12284 -1.70448,2.49013 -1.7742,2.83871 -0.14584,0.72922 0,1.73879 0,2.48387 0,0.11828 0,0.47312 0,0.35484 0,-0.9463 0.36332,-2.83024 -0.35483,-3.54839 -0.0836,-0.0836 -0.27121,0.0836 -0.35484,0 -0.0836,-0.0836 0.0836,-0.2712 0,-0.35484 -0.17742,-0.17742 -0.8871,0.17742 -1.06452,0 -0.38566,-0.38565 0.24306,-0.35484 -1.06451,-0.35484"
       id="path349" /><path
       style="fill:#dedbe3;fill-opacity:1;stroke:#d35f8d;stroke-width:0.626999;stroke-opacity:0"
       d="m 25.548387,199.06451 c 0.946236,-1.30107 1.964739,-2.55254 2.838708,-3.90322 0.431041,-0.66615 0.624393,-1.46885 1.064517,-2.12903 1.947214,-2.92082 0.303919,0.94677 1.774195,-2.48388 0.328306,-0.76604 0.553204,-2.05634 0.709676,-2.8387 0.06959,-0.34795 0,-1.41936 0,-1.06452 0,2.17064 -0.07481,-1.23332 0.354838,1.77419 0.150545,1.05382 0,2.12903 0,3.19355 0,0.66425 -0.335232,2.87792 0,3.54839 0.0529,0.10579 0.249047,-0.0529 0.354841,0 1.476753,0.73837 -0.379336,-0.0245 0.354838,0.70968 0.187015,0.18701 0.52266,0.16782 0.709676,0.35483 0.264483,0.26449 0.02029,0.89725 0.35484,1.06452 0.211585,0.10579 0.542404,-0.16727 0.709676,0 0.167273,0.16727 -0.141935,0.52043 0,0.70968 0.255879,0.34117 0.762963,0.40812 1.064517,0.70967 0.08364,0.0836 -0.08364,0.27121 0,0.35484 0.167272,0.16728 0.542404,-0.16727 0.709679,0 0.608557,0.60856 -1.329725,1.35213 -1.419355,1.41936 -0.385172,0.28888 -0.505558,0.8604 -0.709679,1.06451 C 32.89537,203.07237 33,202.22557 33,204.74193 c 0,0.70757 -0.709679,1.26953 -0.709679,2.12903 0,0.35484 0,0.70968 0,1.06452 0,0.11828 0.118279,0.35484 0,0.35484 -0.463179,0 -0.379299,-1.87204 -0.709676,-3.19355 -0.4402,-1.7608 -0.272912,-3.73937 -1.064517,-5.32258 -0.141935,-0.28387 0.141936,-0.78064 0,-1.06452 -0.04427,-0.0885 -1.274836,0 -1.419354,0 -2.13882,0 -0.952675,-0.0778 -3.548387,0.35484 z"
       id="path350" /><path
       style="fill:#dedbe3;fill-opacity:1;stroke:#d35f8d;stroke-width:0.626999;stroke-opacity:0"
       d="m 77.354836,155.06451 c 0.130488,-0.92439 -0.2761,-6.46583 0,-6.74193 0.16392,-0.16392 0.391166,0.50014 0.709679,1.77419 0.146275,0.58511 0.440132,1.17715 0.354838,1.7742 -0.158689,1.11082 -1.447985,2.139 -1.064517,3.19354 0.294273,0.80925 1.692408,0.37048 2.483872,0.70968 0.108717,0.0466 -0.08364,0.2712 0,0.35484 0.08364,0.0836 0.249047,-0.0529 0.35484,0 0.329507,0.16475 1.338271,2.21012 1.064514,2.48387 -0.250116,0.25012 -1.135247,0.49631 -1.419354,1.06452 -0.158687,0.31737 0.158689,0.74714 0,1.06451 -0.0529,0.1058 -0.271201,-0.0836 -0.354838,0 -0.167272,0.16728 0.105793,0.4981 0,0.70968 -0.05272,0.10545 -1.094764,2.48387 -0.709676,2.48387 0.118279,0 0,-0.23656 0,-0.35484 0,-0.47312 0,-0.94623 0,-1.41935 0,-0.39941 0.309181,-2.52953 0,-2.83871 -0.167275,-0.16727 -0.542407,0.16727 -0.709679,0 -0.08364,-0.0836 0.09842,-0.28923 0,-0.35484 -0.885677,-0.59045 -2.222407,-0.82173 -3.193547,-1.06452 -0.214429,-0.0536 -1.774195,-1.03356 -1.774195,-0.70967 0,0.0522 1.185894,-0.0405 2.129033,-0.35484 0.158689,-0.0529 0.192561,-0.31427 0.354838,-0.35484 1.719064,-0.42977 3.107978,1.24822 1.774192,-1.41936 z"
       id="path351" /><path
       style="fill:#dedbe3;fill-opacity:1;stroke:#d35f8d;stroke-width:0.626999;stroke-opacity:0"
       d="M 230.29032,24.483871 C 231.20222,22.99511 231,21.499653 231,19.870967 c 0,-0.473118 0,-0.946236 0,-1.419354 0,-0.11828 0,-0.473119 0,-0.354839 0,0.418166 0.96502,5.173335 1.06451,5.322581 0.14671,0.220061 0.52267,0.167822 0.70968,0.354838 0.0836,0.08364 -0.0529,0.249047 0,0.354839 0.62268,1.245365 0.30777,1.513487 -0.35484,2.838709 -0.56197,1.123947 -1.06451,2.251657 -1.06451,3.548387 0,0.473118 0,1.892472 0,1.419355 0,-3.446163 0.10579,2.265696 -0.35484,-1.419355 -0.1027,-0.821563 0.26182,-1.698402 0,-2.483871 -0.10774,-0.323215 -1.06452,-2.09608 -1.06452,-2.129031 0,-0.48768 0.23656,-0.946237 0.35484,-1.419355 z"
       id="path352" /><path
       style="fill:#dedbe3;fill-opacity:1;stroke:#d35f8d;stroke-width:0.626999;stroke-opacity:0"
       d="m 157.19355,35.129033 c 0.0853,-0.141875 -0.29684,-5.619417 0.35483,-4.967743 1.2401,1.240095 -0.464,4.803995 -0.35483,4.967743 -0.69171,3.971615 1.89247,-0.236561 2.48387,0.354838 0.0836,0.08364 -0.0836,0.271203 0,0.354838 0.11639,0.11639 1.15455,0.577278 1.41935,0.709679 0.21159,0.105791 0.54241,-0.167275 0.70968,0 0.23656,0.236558 -0.47312,0.473117 -0.70968,0.709676 -0.0836,0.08364 0,0.236558 0,0.354838 -0.11828,0.118282 -0.21566,0.262054 -0.35484,0.35484 -0.22006,0.146706 -0.55098,0.143254 -0.70967,0.354838 -0.22442,0.299225 -0.13042,0.765289 -0.35484,1.064517 -0.15869,0.211585 -0.56297,0.134776 -0.70968,0.354838 -0.13122,0.196829 0,0.473117 0,0.709679 0,1.403797 -0.35484,2.481206 -0.35484,3.903225 0,0.591397 0,1.182794 0,1.774193 0,0.118279 0.11828,0.354838 0,0.354838 -0.27196,0 -0.94478,-4.369078 -1.06452,-4.967743 -0.15446,-0.772337 0.24754,-1.741273 0,-2.483868 -0.11778,-0.353362 -0.59188,-0.711155 -0.70967,-1.064517 -0.0748,-0.224419 0.10579,-0.498094 0,-0.709678 -0.0474,-0.09482 -2.80458,-0.70285 -2.83871,-0.709676 -0.23197,-0.0464 -0.9341,0.0748 -0.70968,0 1.99522,-0.665073 1.88136,-0.206232 3.90323,-1.419355 z"
       id="path353" /><g
       id="layer1-2"
       transform="matrix(1.1605679,0,0,1.1250304,-87.82867,28.364647)"><path
         style="fill:#550044;stroke:#000000;stroke-width:0.626999;stroke-opacity:0"
         d="m 140.00714,80.792652 c -3.67999,-1.003636 -7.45874,-1.697781 -11.03999,-3.010908 -1.48159,-0.54325 -2.60309,-1.803363 -4.01454,-2.509088 -2.88951,-1.444755 -5.96793,-2.491127 -9.03272,-3.512722 -8.24619,-2.748733 -16.977538,-3.010908 -25.592702,-3.010908 -1.936951,0 -9.088739,-0.543537 -10.538172,0 -0.913257,0.342471 -1.636702,1.06926 -2.509088,1.505452 -1.184289,0.592146 -2.328437,0.411493 -3.512725,1.003636 -2.169499,1.08475 -3.202625,3.565737 -5.018177,5.018178 -1.589752,1.271801 -3.352269,2.824607 -5.018178,4.014541 -0.608724,0.434806 -1.378013,0.599115 -2.007269,1.003636 -4.261332,2.739427 -9.164161,5.717156 -12.043627,10.036355 -1.402398,2.103596 -1.709928,5.129784 -2.509086,7.527266 -1.28071,3.84213 -2.62976,7.73365 -4.014544,11.5418 -0.307838,0.84656 -0.669089,1.67273 -1.003633,2.50909 -0.50182,0.83637 -1.130316,1.60876 -1.505456,2.50909 -2.087454,5.0099 -2.349196,10.7645 -3.010905,16.05817 -0.809757,6.47805 -2.124477,13.58207 -0.501817,20.07271 1.129197,4.51679 3.48438,9.70514 5.018178,14.05089 1.003207,2.84243 1.986081,5.9865 3.512722,8.53091 0.243419,0.40569 0.768903,0.59285 1.003636,1.00363 2.369745,4.14705 -0.546788,0.94368 2.509088,5.01818 0.425807,0.56774 1.069753,0.94527 1.505453,1.50545 0.740548,0.95213 1.19588,2.11838 2.007272,3.01091 3.023796,3.32617 7.950044,6.74094 11.541807,9.53453 0.373457,0.29047 0.580465,0.79205 1.003636,1.00364 0.946235,0.47312 2.144221,0.39696 3.010906,1.00363 0.877451,0.61422 1.135708,1.88655 2.007269,2.50909 0.408348,0.29168 1.013381,-0.0984 1.505456,0 0.883295,0.17666 1.654521,0.71878 2.509088,1.00364 3.387167,1.12905 6.982857,2.15355 10.538172,2.50909 0.998654,0.0999 2.013407,-0.11084 3.010905,0 0.525727,0.0584 0.980575,0.43621 1.505453,0.50181 1.99177,0.24897 4.020455,-0.15395 6.021813,0 1.014481,0.078 1.99694,0.41732 3.010906,0.50182 9.072789,0.75607 22.778639,-2.07288 31.614519,-5.01818 1.20853,-0.40284 2.29514,-1.13081 3.51272,-1.50545 0.97249,-0.29922 2.02381,-0.25504 3.01091,-0.50182 0.7511,-0.18777 1.96944,-1.23563 2.50909,-1.50545 0.80569,-0.40284 1.81708,-0.42696 2.50909,-1.00363 0.40635,-0.33864 0.10019,-1.16121 0.50181,-1.50546 0.85196,-0.73025 2.1347,-0.80448 3.01091,-1.50545 4.31516,-3.45213 -0.80244,-0.56241 3.51272,-4.01454 9.32609,-7.46088 15.02747,-9.26345 19.57089,-21.07635 1.1727,-3.049 2.48264,-5.86311 3.01091,-9.03272 0.40559,-2.43356 0,-5.63568 0,-8.02908 0,-2.34181 0.15577,-4.68882 0,-7.02544 -0.0249,-0.37321 -0.42847,-0.63687 -0.50182,-1.00364 -0.28711,-1.43553 -0.13965,-3.06768 -0.50182,-4.51636 -0.71035,-2.84143 -1.48854,-4.91674 -2.00727,-8.02908 -0.74566,-4.474 -1.25733,-8.66611 -2.50909,-13.04726 -0.18321,-0.64126 -0.61349,-4.12622 -1.00363,-4.51637 -0.11828,-0.11827 -0.38354,0.11829 -0.50182,0 -0.11828,-0.11827 0.0328,-0.33779 0,-0.50181 -0.30244,-1.51223 -0.70119,-3.00413 -1.00364,-4.51636 -0.56626,-2.83131 -2.04418,-10.567702 -4.51635,-12.545443 -0.41305,-0.330441 -1.08229,-0.184442 -1.50546,-0.50182 -0.29922,-0.224419 -0.1906,-0.796158 -0.50182,-1.003633 -0.74934,-0.49956 -3.97731,0.03723 -5.01817,-1.003636 -0.23656,-0.236559 0.29046,-0.837655 0,-1.003636 -1.01149,-0.577993 -3.92878,-0.688404 -5.01818,-1.505453 -0.56774,-0.425807 -0.96026,-1.051129 -1.50545,-1.505453 -0.46332,-0.386101 -1.14359,-0.521147 -1.50546,-1.003636 -0.20072,-0.267636 0.14962,-0.704408 0,-1.003636 -0.14961,-0.299225 -0.76707,0.236559 -1.00363,0 -0.11828,-0.118279 0.0972,-0.365701 0,-0.501816 -0.75935,-1.063096 -1.67273,-2.007272 -2.50909,-3.010906 z"
         id="path1" /><path
         style="fill:#800066;stroke:#000000;stroke-width:0.626999;stroke-opacity:0"
         d="m 242.87977,121.43989 89.32354,43.65814"
         id="path2" /><path
         style="fill:#800066;stroke:#000000;stroke-width:0.626999;stroke-opacity:0"
         d="m 43.156322,112.40717 c 1.620922,0.053 1.53493,3.27655 2.007272,3.51272 0.299225,0.14961 0.704408,-0.14961 1.003636,0 1.585097,0.79255 2.541463,3.03249 4.014541,4.01454 0.418836,0.27923 2.826375,1.32092 3.010906,1.50546 0.426463,0.42646 0.577172,1.07898 1.003636,1.50545 0.610129,0.61013 2.971315,0.82316 3.512724,1.00363 1.409079,0.4697 0.598189,1.03576 2.00727,1.50546 0.634756,0.21158 1.386035,-0.2485 2.007272,0 0.347281,0.13891 0.209746,0.76998 0.501816,1.00363 0.882592,0.70608 3.870831,1.93542 5.018178,2.50909 3.384256,1.69213 7.263124,3.76099 11.039991,4.51636 0.656095,0.13122 1.358156,-0.16228 2.007269,0 1.834147,0.45854 3.583689,1.76523 5.519994,2.00727 2.450542,0.30632 10.376553,0.33342 12.043627,0 1.832419,-0.36648 3.750186,-1.21048 5.519996,-1.50545 0.98998,-0.165 2.11323,0.44884 3.0109,0 1.33818,-0.66909 -1.50545,-0.50182 0.50182,-0.50182 0.97637,0 1.00364,2.06973 1.00364,3.01091 0,1.66366 0.55856,3.97671 -1.00364,5.01818 -0.13918,0.0928 -0.368,-0.10037 -0.50182,0 -0.56774,0.4258 -0.89691,1.14032 -1.50545,1.50545 -0.28687,0.17212 -0.71872,-0.17534 -1.00364,0 -2.25247,1.38614 -3.957781,3.87489 -6.523625,4.51636 -3.527018,0.88175 -6.977314,0.91162 -10.538172,2.00727 -1.030182,0.31698 -4.681003,2.7488 -5.519994,2.50909 -3.2717,-0.93478 -3.730731,-1.58544 -7.527266,-2.00728 -1.496245,-0.16624 -3.018377,0.1498 -4.516358,0 -0.235387,-0.0235 -0.290235,-0.39602 -0.501819,-0.50181 -0.299226,-0.14962 -0.67908,0.0811 -1.003636,0 -0.513168,-0.1283 -0.981806,-0.42701 -1.505453,-0.50182 -5.180222,-0.74003 1.930524,1.23536 -5.018178,-0.50182 -1.308327,-0.32708 -2.273167,-1.47603 -3.512722,-2.00727 -0.461242,-0.19768 -1.056613,0.22442 -1.505452,0 -2.36968,-1.18484 3.062898,0.26391 -2.007272,-1.00363 -2.618314,-0.65458 -5.648719,-0.31528 -8.029083,-1.50546 -0.506333,-0.25316 -1.540862,0.31094 -2.007272,0 -0.2159,-0.14393 -2.983389,-2.45405 -3.010905,-2.50908 -0.07481,-0.14962 0.118279,-0.38354 0,-0.50182 -0.236559,-0.23656 -0.767078,0.23655 -1.003636,0 -0.354838,-0.35484 0.186369,-1.03953 0,-1.50546 -0.223989,-0.55997 -0.733918,-0.96601 -1.003636,-1.50545 -0.07481,-0.14961 0.118279,-0.38354 0,-0.50182 -0.11828,-0.11828 -0.352203,0.0748 -0.501817,0 -1.141058,-0.57053 -2.19478,-3.07161 -2.509089,-4.01454 -0.548193,-1.64458 0,-8.54618 0,-10.53817 0,-0.33455 -0.236559,-0.76708 0,-1.00364 0.118279,-0.11828 0.334545,0 0.501817,0 0.501819,-1.33818 1.129413,-2.63572 1.505455,-4.01454 0.313635,-1.15 -0.209092,-1.46363 0,-2.50909 0.736235,-3.68117 1.315805,-3.9365 5.018175,-3.0109 z"
         id="path3" /><path
         style="fill:#aa0088;stroke:#000000;stroke-width:0.626999;stroke-opacity:0"
         d="m 170.1162,113.4108 -31.11269,50.68359"
         id="path4" /><path
         style="fill:#aa0088;stroke:#000000;stroke-width:0.626999;stroke-opacity:0"
         d="m 165.59984,115.91989 c -0.33454,0.83636 -0.78516,1.6352 -1.00363,2.50909 -0.28687,1.14748 -0.19061,2.37161 -0.50182,3.51272 -0.83274,3.05338 -2.83668,5.50957 -4.51636,8.02909 -0.20123,0.30184 0.0899,1.14584 0,1.50545 -0.66252,2.65011 -0.34852,0.52697 -2.00727,3.51273 -0.43746,0.78743 -0.54018,1.73666 -1.00364,2.50908 -0.0861,0.14344 -0.3522,-0.0748 -0.50181,0 -0.81067,0.40534 -4.08765,3.37148 -4.51636,4.01455 -0.29342,0.44012 -0.19437,1.07501 -0.50182,1.50545 -1.1792,1.65088 -3.68565,4.40673 -5.51999,5.01818 -0.31738,0.10579 -0.70441,-0.14962 -1.00364,0 -0.42317,0.21158 -0.60243,0.75288 -1.00364,1.00363 -1.10216,0.68885 -4.07978,2.43482 -5.51999,3.01091 -0.64035,0.25614 -1.3904,0.19338 -2.00727,0.50181 -0.42317,0.21159 -0.60998,0.7412 -1.00363,1.00364 -2.43513,1.62341 -1.61952,0.30794 -3.01091,1.00364 -0.53944,0.26971 -0.96602,0.73391 -1.50546,1.00363 -1.7238,0.8619 -4.0984,1.86795 -6.02181,2.50909 -0.79658,0.26553 -5.23251,0.71615 -5.51999,1.00363 -0.99983,0.99983 3.36129,2.57541 4.01454,3.01091 0.16727,0.16727 0.33454,0.33455 0.50182,0.50182 0,0.16727 -0.11828,0.38354 0,0.50181 0.23656,0.23656 0.76707,-0.23655 1.00363,0 0.11828,0.11828 -0.14961,0.42702 0,0.50182 1.07055,0.53527 2.944,-0.53527 4.01454,0 0.14962,0.0748 -0.11828,0.38354 0,0.50182 5.3e-4,5.3e-4 5.68582,0 6.02182,0 4.52492,0 2.9752,0.008 7.52726,-1.00364 0.23928,-0.0532 2.73337,0.27754 3.01091,0 0.28132,-0.28131 0.59774,-1.25084 1.50545,-2.00726 0.96857,-0.80715 3.10822,-1.60277 4.01454,-2.50909 0.32355,-0.32355 0.33321,-0.99964 0.50182,-1.50546 0.26938,-0.80813 4.2149,-4.36563 4.51636,-4.51636 0.14961,-0.0748 0.38354,0.11828 0.50182,0 0.11828,-0.11828 -0.11828,-0.38353 0,-0.50181 0.11828,-0.11828 0.38354,0.11828 0.50181,0 0.75736,-0.75736 1.24992,-1.75173 2.00728,-2.50909 0.759,-0.759 2.33611,-1.4969 3.0109,-2.50909 0.22626,-0.33938 -0.24366,-1.18058 0,-1.50545 6.47202,-8.62936 1.28975,0.0375 3.51273,-5.52 0.17571,-0.43928 0.79205,-0.58046 1.00363,-1.00363 0.74323,-1.48645 -0.25404,-11.26272 0,-13.54908 0.19527,-1.75739 2.7848,-7.25156 2.50909,-7.52727 -0.11828,-0.11828 -0.36264,0.0928 -0.50182,0 -0.89118,-0.59412 -1.67272,-1.33818 -2.50909,-2.00727 z"
         id="path5" /><path
         style="fill:#aa0088;stroke:#000000;stroke-width:0.626999;stroke-opacity:0"
         d="m 59.716307,191.69436 c 3.075678,0.98335 6.288645,2.04539 9.534538,2.50909 0.662366,0.0946 1.408816,-0.29922 2.007269,0 1.541696,0.77085 -0.829982,0.28305 1.003636,1.50546 0.695897,0.46393 1.697697,-0.20285 2.509089,0 0.585102,0.14627 0.933294,0.81291 1.505453,1.00363 0.617005,0.20567 7.701417,1.44588 8.029082,1.50545 3.102753,0.56414 6.920566,0 10.036355,0 1.944844,0 7.192051,0.61356 9.032721,0 0.9876,-0.32919 1.81128,-1.14556 3.0109,-1.50545 1.92736,-0.5782 2.88021,-0.18556 4.51636,-1.00363 1.70511,-0.85256 0.68316,-1.06409 3.51273,-2.00727 1.67272,-0.50182 3.34545,-1.00364 5.01817,-1.50546 0.50182,0 1.01338,0.0984 1.50546,0 1.19733,-0.23946 2.35062,-1.21492 3.51272,-1.50545 0.81139,-0.20285 1.71565,0.26448 2.50909,0 0.57216,-0.19072 0.92035,-0.85736 1.50545,-1.00364 0.48684,-0.1217 1.01338,0.0984 1.50546,0 2.36681,-0.47336 3.14149,-2.44033 5.01818,-3.51272 1.90465,-1.08837 1.26253,0.24292 3.0109,-1.50545 0.13761,-0.13762 0.44045,-1.00364 1.00364,-1.00364 0.50181,0 0.22442,1.05661 0,1.50545 -0.0748,0.14962 -0.42701,-0.14961 -0.50182,0 -0.38791,0.77583 0.34513,2.66578 -0.50182,3.51273 -0.23656,0.23656 -0.76708,-0.23656 -1.00364,0 -0.0782,0.0783 -0.92537,1.42719 -1.00363,1.50545 -0.26448,0.26448 -0.73915,0.23734 -1.00363,0.50182 -0.11829,0.11828 0.10708,0.37331 0,0.50182 -9.1805,9.1805 3.03211,-3.43781 -4.01455,5.01817 -0.17832,0.21399 -2.88956,1.88593 -3.0109,2.00727 -0.11828,0.11829 0.14961,0.42702 0,0.50182 -0.29923,0.14962 -0.68626,-0.10579 -1.00364,0 -1.77419,0.5914 -3.27267,1.83774 -5.01818,2.50909 -1.13659,0.43715 -2.35745,0.61855 -3.51272,1.00364 -0.85872,0.28624 -1.16853,1.00363 -2.00727,1.00363 -1.79167,0 0.18381,-0.0459 -4.01454,1.00364 -2.95604,0.73901 -8.49822,-0.2677 -11.54181,-0.50182 -1.72765,-0.1329 -4.422101,0.53324 -6.021814,0 -0.88899,0.24986 -0.945478,-0.77965 -1.505453,-1.00364 -0.640352,-0.25614 -1.366917,-0.24567 -2.007269,-0.50181 -2.32237,-0.92895 -4.164896,-3.73012 -6.52363,-4.51636 -0.722114,-0.24071 -4.873959,-0.85942 -5.519997,-1.50546 -0.118279,-0.11827 0.118279,-0.38353 0,-0.50181 -0.118279,-0.11828 -0.362638,0.0928 -0.501817,0 -0.393657,-0.26244 -0.580466,-0.79205 -1.003636,-1.00364 -0.91006,-0.45503 -2.100844,-0.0468 -3.010905,-0.50182 -0.149614,-0.0748 0.118279,-0.38353 0,-0.50181 -0.248036,-0.24804 -3.410117,0 -3.512725,0 -1.579972,0 -8.506224,0.35099 -9.032719,0 -0.89118,-0.59413 -1.672724,-1.33818 -2.509088,-2.00728 z"
         id="path6" /><path
         style="fill:#ff80e5;stroke:#000000;stroke-width:0.626999;stroke-opacity:0"
         d="M 242.70967,23.419355 319.70966,147.96774"
         id="path7" /><path
         style="fill:#ff80e5;stroke:#000000;stroke-width:0.626999;stroke-opacity:0"
         d="m 37.612902,129.87097 c 2.622904,2.09897 4.866939,3.91371 7.806451,5.67741 0.354841,0.23657 0.709679,0.47312 1.064517,0.70968 0.236559,0 0.490037,-0.0879 0.709679,0 0.635981,0.25439 1.085318,0.8923 1.774192,1.06452 0.229497,0.0574 0.482219,-0.065 0.709679,0 0.866129,0.24746 1.609974,0.84604 2.483869,1.06452 1.623959,0.40598 -0.368949,-0.71674 1.774195,0.35483 0.381439,0.19072 0.659937,0.57482 1.064516,0.70968 0.33663,0.11221 0.735055,-0.13178 1.064514,0 0.310619,0.12425 0.42281,0.53756 0.709679,0.70968 0.490217,0.29413 3.321074,1.29183 3.903226,0.70967 0.5602,-0.56019 -1.101492,-5.16364 -1.419355,-5.32258 -1.771996,-0.88599 -0.575635,0.97777 -1.419354,-0.70967 -0.599938,-1.19988 -1.441884,-0.7247 -2.483872,-1.41936 -0.278357,-0.18557 -0.41045,-0.56006 -0.709678,-0.70968 -0.211585,-0.10579 -0.485257,0.0748 -0.709676,0 -1.668121,-0.55603 -3.299624,-1.21815 -4.967743,-1.77419 -1.507781,-0.50259 -6.074656,-2.17143 -7.096773,-3.19354 -0.236561,-0.35485 -0.47312,-0.70968 -0.709678,-1.06452 -0.11828,0 -0.271204,0.0836 -0.354838,0 -0.08364,-0.0836 0.08363,-0.2712 0,-0.35484 -0.167273,-0.16727 -0.47312,0 -0.709679,0 -0.591397,0 -1.24523,-0.26448 -1.774193,0 -0.509677,0.25484 -1.487792,1.20561 -2.129033,1.41936 -0.756081,0.25202 -1.083411,-0.33595 -1.774193,0.35483 -0.545883,0.54589 0.510453,0.96491 0.709679,1.06452 0.267581,0.13379 0.779481,1.06451 1.064514,1.06451 0.48768,0 0.939543,-0.44207 1.419355,-0.35483 6.111099,1.11111 1.121079,1.06451 2.838712,1.06451"
         id="path8" /><path
         style="fill:#ff80e5;stroke:#000000;stroke-width:0.626999;stroke-opacity:0"
         d="m 141.58064,84.451612 c -3.41729,5.210128 -7.05017,10.107007 -11,14.903225 -0.37595,0.456518 -0.57244,1.091303 -1.06451,1.419353 -0.96927,0.64618 -2.18212,0.8414 -3.19355,1.41936 -0.65757,0.37575 -1.09679,1.08065 -1.77419,1.41935 -1.47352,0.73676 -3.10359,1.11387 -4.61291,1.7742 -1.21193,0.53021 -2.40634,1.55801 -3.54838,2.12903 -3.40523,1.70261 -8.03595,1.31265 -11.70968,2.12903 -2.2411,0.49802 -4.17194,1.17323 -6.387099,1.41935 -0.260216,0.0289 -3.469535,-0.0241 -3.903226,0 -2.897757,0.16099 -5.6525,0.4894 -8.516128,0.70968 -0.560335,0.0431 -3.601344,-0.30188 -3.903226,0 -0.225959,0.22596 0.0816,0.99621 0.354838,1.06452 0.344244,0.0861 0.727887,-0.11221 1.064517,0 0.43798,0.14599 1.291812,0.94392 1.774192,1.06451 3.726429,0.93161 -3.306855,-2.07621 3.19355,0.70968 0.972386,0.41674 1.920174,0.89448 2.838709,1.41936 1.324732,0.75699 -1.957088,-0.061 0.354838,0.70967 0.22442,0.0748 0.483095,-0.068 0.709679,0 5.786361,1.73591 0.922459,0.28381 3.903226,1.7742 0.728099,0.36405 4.33268,0 5.32258,0 0.11082,0 5.39817,0.2831 7.09677,0 0.35484,-0.11828 0.70968,-0.23656 1.06452,-0.35484 0,-0.11828 -0.10579,-0.30194 0,-0.35484 1.3753,-0.68765 2.80676,-1.26623 4.25806,-1.77419 7.35984,-2.57595 0.31879,0.27965 3.90323,-1.06452 0.5964,-0.22365 1.1828,-0.47312 1.77419,-0.70968 1.06452,-0.47312 2.10628,-1.00117 3.19355,-1.41935 1.54135,-0.59283 3.18818,-0.96006 4.6129,-1.7742 1.74262,-0.99577 6.58149,-3.83997 7.80646,-5.67741 0.5914,-0.94624 1.18279,-1.89248 1.77419,-2.83871 0.23656,-0.23656 0.52411,-0.43132 0.70968,-0.70968 0.58683,-0.88025 0.7846,-1.992372 1.41935,-2.838711 0.071,-0.09462 0.27121,0.08364 0.35484,0 0.68212,-0.682119 0.003,-0.890989 0.35484,-1.419354 0.18557,-0.278361 0.53755,-0.422807 0.70968,-0.709679 0.38487,-0.641461 0.29472,-1.506604 0.70968,-2.129031 0.0656,-0.09841 0.2712,0.08364 0.35483,0 0.17742,-0.177421 -0.17742,-0.887097 0,-1.064516 0.0836,-0.08364 0.28387,0.09462 0.35484,0 0.31738,-0.42317 0.42933,-0.970796 0.70968,-1.419355 0.4695,-0.7512 1.36377,-1.66302 1.77419,-2.483871 0.0529,-0.105794 -0.0836,-0.271203 0,-0.354838 0.0836,-0.08364 0.27121,0.08364 0.35484,0 0.16728,-0.167275 -0.16727,-0.542407 0,-0.709679 0.0836,-0.08364 0.23656,0 0.35484,0"
         id="path9" /><path
         style="fill:#ff80e5;stroke:#000000;stroke-width:0.626999;stroke-opacity:0"
         d="m 122.41935,163.58064 c 1.85837,0.841 3.98951,0.93665 6.03226,0.70968 0.26286,-0.0292 0.44922,-0.30887 0.70968,-0.35484 1.80943,-2.90738 4.02798,-0.42335 6.03226,-0.70968 1.66342,-0.23763 2.15303,-0.56382 3.90322,-0.70967 1.76807,-0.14734 3.5529,0.1264 5.32258,0 1.31905,-0.0942 2.59104,-0.54566 3.90323,-0.70968 0.90734,-0.11342 2.00763,-0.0224 2.83871,-0.35484 1.67273,-0.66909 3.28087,-1.49645 4.96774,-2.12903 0.40458,-0.15172 2.32226,-0.29161 2.48387,0.35484 0.23297,0.93188 0.0911,4.55777 0,4.96774 -0.0574,0.25818 -0.5473,0.14607 -0.70968,0.35484 -1.10844,1.42514 -1.68288,3.22591 -2.83871,4.6129 -0.23936,0.28723 -1.59701,0.60337 -1.77419,0.70968 -0.28687,0.17212 -0.41045,0.56006 -0.70968,0.70968 -0.43619,0.21809 -0.96174,0.18624 -1.41935,0.35484 -1.79305,0.66059 -3.5431,1.43271 -5.32258,2.12903 -2.47525,0.96857 -4.90877,2.0648 -7.45161,2.83871 -1.15396,0.3512 -2.3709,0.44801 -3.54839,0.70967 -10.45758,2.32391 -20.81595,4.25807 -31.58065,4.25807 -3.584617,0 -7.118352,0.18774 -10.645158,-0.35484 -10.741027,-1.65247 6.460762,1.0727 -6.387097,-0.35484 -0.969391,-0.10771 -1.876621,-0.54933 -2.838709,-0.70968 -3.616788,-0.60279 -7.699785,-0.75992 -11.35484,-1.06451 -6.629799,-0.55248 0.2471,-0.0439 -6.387095,-1.06452 -1.610841,-0.24782 -3.353321,-0.12421 -4.967742,-0.35484 -0.576755,-0.0824 -3.886287,-1.83214 -3.19355,-2.12903 0.791467,-0.3392 1.666973,-0.43738 2.483871,-0.70968 1.313384,-0.43779 2.567583,-1.05508 3.903226,-1.41935 4.740775,-1.29294 9.810173,-1.19163 14.548387,-2.48387 1.912864,-0.52169 3.750868,-1.30558 5.677421,-1.7742 6.620703,-1.61044 13.14727,-1.97966 19.870966,-1.41935 3.41773,0.28481 11.41764,0.36281 14.90323,-0.70968 0.75835,-0.23334 1.3763,-0.81361 2.12903,-1.06452 1.57135,-0.52378 1.76603,-0.0867 2.83871,-0.35483 1.99211,-0.49803 3.96815,-1.41936 6.03226,-1.41936"
         id="path10" /><path
         style="fill:#ff2ad4;stroke:#000000;stroke-width:0.626999;stroke-opacity:0"
         d="m 58.193548,83.741934 c 14.170752,4.723585 -2.320843,-0.491501 6.741935,1.774195 0.617937,0.154482 1.156255,0.555191 1.774192,0.709676 0.688489,0.172122 1.433137,-0.139179 2.129034,0 2.96259,0.592518 1.812523,0.831151 4.612904,1.064517 3.304098,0.275341 6.611885,0.354838 9.935483,0.354838 2.201008,0 5.643993,0.451905 7.451613,0 0.873895,-0.218475 1.622915,-0.799606 2.483872,-1.064517 0.225057,-0.06925 5.6457,-1.096232 5.677418,-1.064514 0.08364,0.08363 0.07097,0.260215 0,0.354838 -1.893668,2.52489 -5.674275,2.554523 -8.51613,2.838709 C 87.614743,88.99659 84.799796,88.257458 81.967741,88 c -1.301075,-0.118282 -2.601299,-0.246345 -3.903226,-0.35484 -0.942967,-0.07858 -1.910847,0.185573 -2.838709,0 -1.486495,-0.2973 -0.733465,-0.366731 -2.129033,-1.064517 -0.718222,-0.359111 -1.846527,-0.03617 -2.483872,-0.354838 -0.381439,-0.19072 -0.668554,-0.551294 -1.064514,-0.709676 -0.312049,-0.12482 -3.948707,-1.002647 -4.258066,-1.064517 -2.327421,-0.465484 -4.738764,-0.316677 -7.096773,-0.709678 z"
         id="path11" /><path
         style="fill:#ff2ad4;stroke:#000000;stroke-width:0.626999;stroke-opacity:0"
         d="m 70.612901,191.96774 c 5.56437,0.34447 11.125372,0.60184 16.677421,1.06452 2.422371,0.20186 4.363532,-0.2523 6.741935,-0.70968 7.067933,-1.35922 4.335549,-0.33005 9.935483,-2.48387 1.05648,-0.40634 4.75478,-3.12261 5.32258,-2.83871 0.10579,0.0529 0.0656,0.25642 0,0.35484 -0.85362,1.28043 -2.83888,2.87817 -4.25806,3.19354 -6.5769,1.46154 2.60612,-1.36703 -6.032261,1.7742 -1.634828,0.59448 -4.244893,-0.17874 -6.032259,0 -4.152892,0.41529 -8.231844,0.35484 -12.419354,0.35484 -1.928746,0 -3.786192,-0.0847 -5.677418,-0.35484 -1.670656,-0.23867 -2.508187,-0.79231 -4.258067,-0.35484 z"
         id="path12" /><path
         style="fill:#ff2ad4;stroke:#000000;stroke-width:0.626999;stroke-opacity:0"
         d="m 170.67742,158.6129 c -2.36342,0.78111 -3.68166,2.98804 -5.67742,4.25807 -0.53738,0.34196 -1.25238,0.3444 -1.7742,0.70967 -0.78853,0.55198 -1.98709,2.12903 -2.83871,2.83871 -0.32761,0.27302 -0.76296,0.40813 -1.06451,0.70968 -1.279,1.279 -2.3507,3.22304 -3.90323,4.25807 -1.87655,1.25103 -4.75469,3.26444 -6.74193,4.25806 -0.31738,0.15869 -0.72464,-0.10196 -1.06452,0 -0.82796,0.35484 -1.65591,0.70968 -2.48387,1.06452 0,0.11828 0.0984,0.28922 0,0.35483 -2.24801,1.49868 -0.0839,-0.32127 -1.77419,0.35484 -2.02446,0.80978 -0.22423,0.54786 -1.7742,1.06452 -1.78221,0.59407 -3.22488,1.14042 -4.96774,1.77419 -3.2151,1.16913 -6.57997,2.04805 -9.58064,3.54839 -0.13808,0.069 -0.67502,0.90443 -0.35484,1.06452 0.21158,0.10579 0.48525,-0.0748 0.70967,0 0.50182,0.16727 0.92823,0.51322 1.41936,0.70967 3.2299,1.29196 6.62228,2.13333 9.93548,3.19355 0.87386,0.27963 2.25238,0.66856 3.19355,0.35484 2.27321,-0.75773 3.80284,-1.80975 6.03226,-2.83871 0.37238,-0.17187 1.69011,-0.27076 2.12903,-0.70968 0.0836,-0.0836 -0.10142,-0.29398 0,-0.35484 0.54619,-0.32771 1.26055,-0.333 1.7742,-0.70967 2.48174,-1.81995 4.8058,-5.21462 7.09677,-6.74194 0.0984,-0.0656 0.2712,0.0836 0.35484,0 0.18702,-0.18702 0.14831,-0.54446 0.35484,-0.70968 0.41305,-0.33044 0.99618,-0.3923 1.41935,-0.70967 0.0946,-0.071 -0.0687,-0.25859 0,-0.35484 0.53695,-0.75172 1.12098,-1.47581 1.7742,-2.12904 0.41818,-0.41817 1.00117,-0.64633 1.41935,-1.06451 0.0836,-0.0836 -0.0529,-0.24905 0,-0.35484 0.40285,-0.80569 0.66167,-1.67818 1.06452,-2.48387 0.38144,-0.76288 1.02028,-1.37523 1.41935,-2.12903 0.6687,-1.26309 1.03889,-2.67772 1.77419,-3.90323 0.34425,-0.57374 1.00138,-0.89688 1.41936,-1.41935 0.58175,-0.72719 0.66409,-3.53857 0.70968,-3.90323 z"
         id="path13" /><path
         style="fill:#ff2ad4;stroke:#000000;stroke-width:0.626999;stroke-opacity:0"
         d="m 40.806452,149.74193 c 2.761069,0.91374 5.62933,0.82395 8.516127,1.06452 3.501769,0.29181 7.127378,0 10.645161,0 0.01931,0 7.786169,0.33455 7.096776,-0.35484 -0.679246,-0.67924 -4.912127,-0.7035 -4.967742,-0.70968 -4.842833,-0.53809 -9.724263,-0.73019 -14.548387,-1.41935 -0.960462,0.60307 -0.917538,-0.54241 -1.419355,-0.70968 -0.448839,-0.14961 -1.04086,0.28387 -1.419355,0 -0.0508,-0.0381 -1.633733,-2.02369 -1.774195,-2.12903 -0.299225,-0.22442 -0.775031,-0.11799 -1.064514,-0.35484 -1.035695,-0.84739 -1.844048,-1.94351 -2.838709,-2.83871 -0.392898,-0.35361 -0.817634,-0.21591 -1.064517,-0.70968 -0.0529,-0.10579 0.08364,-0.2712 0,-0.35483 -0.301556,-0.30156 -0.736899,-0.43667 -1.064516,-0.70968 -0.883942,-0.73662 -1.666135,-1.66614 -2.483872,-2.48387"
         id="path14" /><path
         style="fill:#ff2ad4;stroke:#000000;stroke-width:0.626999;stroke-opacity:0"
         d="m 156.48387,91.548385 c -0.0122,0.803643 -1.29386,7.68096 -1.77419,8.16129 -0.18702,0.187018 -0.53275,0.158253 -0.70968,0.354845 -0.90216,1.0024 -1.61276,2.16404 -2.48387,3.19354 -1.73215,2.04709 -3.80607,3.82068 -5.32258,6.03226 -0.95071,1.38645 -3.5794,7.16913 -4.61291,9.58065 -5.3e-4,0.001 -0.88363,2.69071 -1.06451,2.83871 -2.66067,2.17691 -3.70008,2.76527 -6.3871,4.25806 -0.53552,0.29751 -2.28293,1.62029 -2.83871,1.06452 -0.86694,-0.86694 2.31397,-1.00384 2.48387,-1.06452 5.39924,-1.9283 1.82261,-0.67878 6.74194,-3.54839 0.32308,-0.18846 0.76202,-0.13484 1.06451,-0.35484 1.01685,-0.73952 1.84213,-1.71726 2.83871,-2.48387 0.67605,-0.52003 1.65592,-0.70967 2.12904,-1.41935 2.02544,-3.03818 3.20686,-4.02993 6.38709,-7.80645 0.17036,-0.20231 0.16783,-0.52266 0.35484,-0.70968 0.77109,-0.77109 1.99619,-1.15367 2.48387,-2.12903 1.13079,-2.26159 0.85079,-4.98784 1.41936,-7.45161 0.53459,-2.316561 1.77419,-4.296845 1.77419,-6.741939 0,-1.515975 -1.06452,-1.76076 -1.06452,-3.903226 0,-0.354841 0,-0.709679 0,-1.064517 0,-0.118279 0.11828,-0.354838 0,-0.354838 -0.35484,0 0,0.709676 0,1.064514"
         id="path15" /></g></g></svg>
