<?xml version="1.0" encoding="UTF-8" standalone="no"?>
<!-- Created with Inkscape (http://www.inkscape.org/) -->

<svg
   width="210mm"
   height="297mm"
   viewBox="0 0 210 297"
   version="1.1"
   id="svg1"
   xmlns="http://www.w3.org/2000/svg"
   xmlns:svg="http://www.w3.org/2000/svg">
  <defs
     id="defs1" />
  <g
     id="layer1">
    <path
       style="fill:#550044;stroke:#000000;stroke-width:0.626999;stroke-opacity:0"
       d="m 140.00714,80.792652 c -3.67999,-1.003636 -7.45874,-1.697781 -11.03999,-3.010908 -1.48159,-0.54325 -2.60309,-1.803363 -4.01454,-2.509088 -2.88951,-1.444755 -5.96793,-2.491127 -9.03272,-3.512722 -8.24619,-2.748733 -16.977538,-3.010908 -25.592702,-3.010908 -1.936951,0 -9.088739,-0.543537 -10.538172,0 -0.913257,0.342471 -1.636702,1.06926 -2.509088,1.505452 -1.184289,0.592146 -2.328437,0.411493 -3.512725,1.003636 -2.169499,1.08475 -3.202625,3.565737 -5.018177,5.018178 -1.589752,1.271801 -3.352269,2.824607 -5.018178,4.014541 -0.608724,0.434806 -1.378013,0.599115 -2.007269,1.003636 -4.261332,2.739427 -9.164161,5.717156 -12.043627,10.036355 -1.402398,2.103596 -1.709928,5.129784 -2.509086,7.527266 -1.28071,3.84213 -2.62976,7.73365 -4.014544,11.5418 -0.307838,0.84656 -0.669089,1.67273 -1.003633,2.50909 -0.50182,0.83637 -1.130316,1.60876 -1.505456,2.50909 -2.087454,5.0099 -2.349196,10.7645 -3.010905,16.05817 -0.809757,6.47805 -2.124477,13.58207 -0.501817,20.07271 1.129197,4.51679 3.48438,9.70514 5.018178,14.05089 1.003207,2.84243 1.986081,5.9865 3.512722,8.53091 0.243419,0.40569 0.768903,0.59285 1.003636,1.00363 2.369745,4.14705 -0.546788,0.94368 2.509088,5.01818 0.425807,0.56774 1.069753,0.94527 1.505453,1.50545 0.740548,0.95213 1.19588,2.11838 2.007272,3.01091 3.023796,3.32617 7.950044,6.74094 11.541807,9.53453 0.373457,0.29047 0.580465,0.79205 1.003636,1.00364 0.946235,0.47312 2.144221,0.39696 3.010906,1.00363 0.877451,0.61422 1.135708,1.88655 2.007269,2.50909 0.408348,0.29168 1.013381,-0.0984 1.505456,0 0.883295,0.17666 1.654521,0.71878 2.509088,1.00364 3.387167,1.12905 6.982857,2.15355 10.538172,2.50909 0.998654,0.0999 2.013407,-0.11084 3.010905,0 0.525727,0.0584 0.980575,0.43621 1.505453,0.50181 1.99177,0.24897 4.020455,-0.15395 6.021813,0 1.014481,0.078 1.99694,0.41732 3.010906,0.50182 9.072789,0.75607 22.778639,-2.07288 31.614519,-5.01818 1.20853,-0.40284 2.29514,-1.13081 3.51272,-1.50545 0.97249,-0.29922 2.02381,-0.25504 3.01091,-0.50182 0.7511,-0.18777 1.96944,-1.23563 2.50909,-1.50545 0.80569,-0.40284 1.81708,-0.42696 2.50909,-1.00363 0.40635,-0.33864 0.10019,-1.16121 0.50181,-1.50546 0.85196,-0.73025 2.1347,-0.80448 3.01091,-1.50545 4.31516,-3.45213 -0.80244,-0.56241 3.51272,-4.01454 9.32609,-7.46088 15.02747,-9.26345 19.57089,-21.07635 1.1727,-3.049 2.48264,-5.86311 3.01091,-9.03272 0.40559,-2.43356 0,-5.63568 0,-8.02908 0,-2.34181 0.15577,-4.68882 0,-7.02544 -0.0249,-0.37321 -0.42847,-0.63687 -0.50182,-1.00364 -0.28711,-1.43553 -0.13965,-3.06768 -0.50182,-4.51636 -0.71035,-2.84143 -1.48854,-4.91674 -2.00727,-8.02908 -0.74566,-4.474 -1.25733,-8.66611 -2.50909,-13.04726 -0.18321,-0.64126 -0.61349,-4.12622 -1.00363,-4.51637 -0.11828,-0.11827 -0.38354,0.11829 -0.50182,0 -0.11828,-0.11827 0.0328,-0.33779 0,-0.50181 -0.30244,-1.51223 -0.70119,-3.00413 -1.00364,-4.51636 -0.56626,-2.83131 -2.04418,-10.567702 -4.51635,-12.545443 -0.41305,-0.330441 -1.08229,-0.184442 -1.50546,-0.50182 -0.29922,-0.224419 -0.1906,-0.796158 -0.50182,-1.003633 -0.74934,-0.49956 -3.97731,0.03723 -5.01817,-1.003636 -0.23656,-0.236559 0.29046,-0.837655 0,-1.003636 -1.01149,-0.577993 -3.92878,-0.688404 -5.01818,-1.505453 -0.56774,-0.425807 -0.96026,-1.051129 -1.50545,-1.505453 -0.46332,-0.386101 -1.14359,-0.521147 -1.50546,-1.003636 -0.20072,-0.267636 0.14962,-0.704408 0,-1.003636 -0.14961,-0.299225 -0.76707,0.236559 -1.00363,0 -0.11828,-0.118279 0.0972,-0.365701 0,-0.501816 -0.75935,-1.063096 -1.67273,-2.007272 -2.50909,-3.010906 z"
       id="path1" />
    <path
       style="fill:#800066;stroke:#000000;stroke-width:0.626999;stroke-opacity:0"
       d="m 242.87977,121.43989 89.32354,43.65814"
       id="path2" />
    <path
       style="fill:#800066;stroke:#000000;stroke-width:0.626999;stroke-opacity:0"
       d="m 43.156322,112.40717 c 1.620922,0.053 1.53493,3.27655 2.007272,3.51272 0.299225,0.14961 0.704408,-0.14961 1.003636,0 1.585097,0.79255 2.541463,3.03249 4.014541,4.01454 0.418836,0.27923 2.826375,1.32092 3.010906,1.50546 0.426463,0.42646 0.577172,1.07898 1.003636,1.50545 0.610129,0.61013 2.971315,0.82316 3.512724,1.00363 1.409079,0.4697 0.598189,1.03576 2.00727,1.50546 0.634756,0.21158 1.386035,-0.2485 2.007272,0 0.347281,0.13891 0.209746,0.76998 0.501816,1.00363 0.882592,0.70608 3.870831,1.93542 5.018178,2.50909 3.384256,1.69213 7.263124,3.76099 11.039991,4.51636 0.656095,0.13122 1.358156,-0.16228 2.007269,0 1.834147,0.45854 3.583689,1.76523 5.519994,2.00727 2.450542,0.30632 10.376553,0.33342 12.043627,0 1.832419,-0.36648 3.750186,-1.21048 5.519996,-1.50545 0.98998,-0.165 2.11323,0.44884 3.0109,0 1.33818,-0.66909 -1.50545,-0.50182 0.50182,-0.50182 0.97637,0 1.00364,2.06973 1.00364,3.01091 0,1.66366 0.55856,3.97671 -1.00364,5.01818 -0.13918,0.0928 -0.368,-0.10037 -0.50182,0 -0.56774,0.4258 -0.89691,1.14032 -1.50545,1.50545 -0.28687,0.17212 -0.71872,-0.17534 -1.00364,0 -2.25247,1.38614 -3.957781,3.87489 -6.523625,4.51636 -3.527018,0.88175 -6.977314,0.91162 -10.538172,2.00727 -1.030182,0.31698 -4.681003,2.7488 -5.519994,2.50909 -3.2717,-0.93478 -3.730731,-1.58544 -7.527266,-2.00728 -1.496245,-0.16624 -3.018377,0.1498 -4.516358,0 -0.235387,-0.0235 -0.290235,-0.39602 -0.501819,-0.50181 -0.299226,-0.14962 -0.67908,0.0811 -1.003636,0 -0.513168,-0.1283 -0.981806,-0.42701 -1.505453,-0.50182 -5.180222,-0.74003 1.930524,1.23536 -5.018178,-0.50182 -1.308327,-0.32708 -2.273167,-1.47603 -3.512722,-2.00727 -0.461242,-0.19768 -1.056613,0.22442 -1.505452,0 -2.36968,-1.18484 3.062898,0.26391 -2.007272,-1.00363 -2.618314,-0.65458 -5.648719,-0.31528 -8.029083,-1.50546 -0.506333,-0.25316 -1.540862,0.31094 -2.007272,0 -0.2159,-0.14393 -2.983389,-2.45405 -3.010905,-2.50908 -0.07481,-0.14962 0.118279,-0.38354 0,-0.50182 -0.236559,-0.23656 -0.767078,0.23655 -1.003636,0 -0.354838,-0.35484 0.186369,-1.03953 0,-1.50546 -0.223989,-0.55997 -0.733918,-0.96601 -1.003636,-1.50545 -0.07481,-0.14961 0.118279,-0.38354 0,-0.50182 -0.11828,-0.11828 -0.352203,0.0748 -0.501817,0 -1.141058,-0.57053 -2.19478,-3.07161 -2.509089,-4.01454 -0.548193,-1.64458 0,-8.54618 0,-10.53817 0,-0.33455 -0.236559,-0.76708 0,-1.00364 0.118279,-0.11828 0.334545,0 0.501817,0 0.501819,-1.33818 1.129413,-2.63572 1.505455,-4.01454 0.313635,-1.15 -0.209092,-1.46363 0,-2.50909 0.736235,-3.68117 1.315805,-3.9365 5.018175,-3.0109 z"
       id="path3" />
    <path
       style="fill:#aa0088;stroke:#000000;stroke-width:0.626999;stroke-opacity:0"
       d="m 170.1162,113.4108 -31.11269,50.68359"
       id="path4" />
    <path
       style="fill:#aa0088;stroke:#000000;stroke-width:0.626999;stroke-opacity:0"
       d="m 165.59984,115.91989 c -0.33454,0.83636 -0.78516,1.6352 -1.00363,2.50909 -0.28687,1.14748 -0.19061,2.37161 -0.50182,3.51272 -0.83274,3.05338 -2.83668,5.50957 -4.51636,8.02909 -0.20123,0.30184 0.0899,1.14584 0,1.50545 -0.66252,2.65011 -0.34852,0.52697 -2.00727,3.51273 -0.43746,0.78743 -0.54018,1.73666 -1.00364,2.50908 -0.0861,0.14344 -0.3522,-0.0748 -0.50181,0 -0.81067,0.40534 -4.08765,3.37148 -4.51636,4.01455 -0.29342,0.44012 -0.19437,1.07501 -0.50182,1.50545 -1.1792,1.65088 -3.68565,4.40673 -5.51999,5.01818 -0.31738,0.10579 -0.70441,-0.14962 -1.00364,0 -0.42317,0.21158 -0.60243,0.75288 -1.00364,1.00363 -1.10216,0.68885 -4.07978,2.43482 -5.51999,3.01091 -0.64035,0.25614 -1.3904,0.19338 -2.00727,0.50181 -0.42317,0.21159 -0.60998,0.7412 -1.00363,1.00364 -2.43513,1.62341 -1.61952,0.30794 -3.01091,1.00364 -0.53944,0.26971 -0.96602,0.73391 -1.50546,1.00363 -1.7238,0.8619 -4.0984,1.86795 -6.02181,2.50909 -0.79658,0.26553 -5.23251,0.71615 -5.51999,1.00363 -0.99983,0.99983 3.36129,2.57541 4.01454,3.01091 0.16727,0.16727 0.33454,0.33455 0.50182,0.50182 0,0.16727 -0.11828,0.38354 0,0.50181 0.23656,0.23656 0.76707,-0.23655 1.00363,0 0.11828,0.11828 -0.14961,0.42702 0,0.50182 1.07055,0.53527 2.944,-0.53527 4.01454,0 0.14962,0.0748 -0.11828,0.38354 0,0.50182 5.3e-4,5.3e-4 5.68582,0 6.02182,0 4.52492,0 2.9752,0.008 7.52726,-1.00364 0.23928,-0.0532 2.73337,0.27754 3.01091,0 0.28132,-0.28131 0.59774,-1.25084 1.50545,-2.00726 0.96857,-0.80715 3.10822,-1.60277 4.01454,-2.50909 0.32355,-0.32355 0.33321,-0.99964 0.50182,-1.50546 0.26938,-0.80813 4.2149,-4.36563 4.51636,-4.51636 0.14961,-0.0748 0.38354,0.11828 0.50182,0 0.11828,-0.11828 -0.11828,-0.38353 0,-0.50181 0.11828,-0.11828 0.38354,0.11828 0.50181,0 0.75736,-0.75736 1.24992,-1.75173 2.00728,-2.50909 0.759,-0.759 2.33611,-1.4969 3.0109,-2.50909 0.22626,-0.33938 -0.24366,-1.18058 0,-1.50545 6.47202,-8.62936 1.28975,0.0375 3.51273,-5.52 0.17571,-0.43928 0.79205,-0.58046 1.00363,-1.00363 0.74323,-1.48645 -0.25404,-11.26272 0,-13.54908 0.19527,-1.75739 2.7848,-7.25156 2.50909,-7.52727 -0.11828,-0.11828 -0.36264,0.0928 -0.50182,0 -0.89118,-0.59412 -1.67272,-1.33818 -2.50909,-2.00727 z"
       id="path5" />
    <path
       style="fill:#aa0088;stroke:#000000;stroke-width:0.626999;stroke-opacity:0"
       d="m 59.716307,191.69436 c 3.075678,0.98335 6.288645,2.04539 9.534538,2.50909 0.662366,0.0946 1.408816,-0.29922 2.007269,0 1.541696,0.77085 -0.829982,0.28305 1.003636,1.50546 0.695897,0.46393 1.697697,-0.20285 2.509089,0 0.585102,0.14627 0.933294,0.81291 1.505453,1.00363 0.617005,0.20567 7.701417,1.44588 8.029082,1.50545 3.102753,0.56414 6.920566,0 10.036355,0 1.944844,0 7.192051,0.61356 9.032721,0 0.9876,-0.32919 1.81128,-1.14556 3.0109,-1.50545 1.92736,-0.5782 2.88021,-0.18556 4.51636,-1.00363 1.70511,-0.85256 0.68316,-1.06409 3.51273,-2.00727 1.67272,-0.50182 3.34545,-1.00364 5.01817,-1.50546 0.50182,0 1.01338,0.0984 1.50546,0 1.19733,-0.23946 2.35062,-1.21492 3.51272,-1.50545 0.81139,-0.20285 1.71565,0.26448 2.50909,0 0.57216,-0.19072 0.92035,-0.85736 1.50545,-1.00364 0.48684,-0.1217 1.01338,0.0984 1.50546,0 2.36681,-0.47336 3.14149,-2.44033 5.01818,-3.51272 1.90465,-1.08837 1.26253,0.24292 3.0109,-1.50545 0.13761,-0.13762 0.44045,-1.00364 1.00364,-1.00364 0.50181,0 0.22442,1.05661 0,1.50545 -0.0748,0.14962 -0.42701,-0.14961 -0.50182,0 -0.38791,0.77583 0.34513,2.66578 -0.50182,3.51273 -0.23656,0.23656 -0.76708,-0.23656 -1.00364,0 -0.0782,0.0783 -0.92537,1.42719 -1.00363,1.50545 -0.26448,0.26448 -0.73915,0.23734 -1.00363,0.50182 -0.11829,0.11828 0.10708,0.37331 0,0.50182 -9.1805,9.1805 3.03211,-3.43781 -4.01455,5.01817 -0.17832,0.21399 -2.88956,1.88593 -3.0109,2.00727 -0.11828,0.11829 0.14961,0.42702 0,0.50182 -0.29923,0.14962 -0.68626,-0.10579 -1.00364,0 -1.77419,0.5914 -3.27267,1.83774 -5.01818,2.50909 -1.13659,0.43715 -2.35745,0.61855 -3.51272,1.00364 -0.85872,0.28624 -1.16853,1.00363 -2.00727,1.00363 -1.79167,0 0.18381,-0.0459 -4.01454,1.00364 -2.95604,0.73901 -8.49822,-0.2677 -11.54181,-0.50182 -1.72765,-0.1329 -4.422101,0.53324 -6.021814,0 -0.88899,0.24986 -0.945478,-0.77965 -1.505453,-1.00364 -0.640352,-0.25614 -1.366917,-0.24567 -2.007269,-0.50181 -2.32237,-0.92895 -4.164896,-3.73012 -6.52363,-4.51636 -0.722114,-0.24071 -4.873959,-0.85942 -5.519997,-1.50546 -0.118279,-0.11827 0.118279,-0.38353 0,-0.50181 -0.118279,-0.11828 -0.362638,0.0928 -0.501817,0 -0.393657,-0.26244 -0.580466,-0.79205 -1.003636,-1.00364 -0.91006,-0.45503 -2.100844,-0.0468 -3.010905,-0.50182 -0.149614,-0.0748 0.118279,-0.38353 0,-0.50181 -0.248036,-0.24804 -3.410117,0 -3.512725,0 -1.579972,0 -8.506224,0.35099 -9.032719,0 -0.89118,-0.59413 -1.672724,-1.33818 -2.509088,-2.00728 z"
       id="path6" />
    <path
       style="fill:#ff80e5;stroke:#000000;stroke-width:0.626999;stroke-opacity:0"
       d="M 242.70967,23.419355 319.70966,147.96774"
       id="path7" />
    <path
       style="fill:#ff80e5;stroke:#000000;stroke-width:0.626999;stroke-opacity:0"
       d="m 37.612902,129.87097 c 2.622904,2.09897 4.866939,3.91371 7.806451,5.67741 0.354841,0.23657 0.709679,0.47312 1.064517,0.70968 0.236559,0 0.490037,-0.0879 0.709679,0 0.635981,0.25439 1.085318,0.8923 1.774192,1.06452 0.229497,0.0574 0.482219,-0.065 0.709679,0 0.866129,0.24746 1.609974,0.84604 2.483869,1.06452 1.623959,0.40598 -0.368949,-0.71674 1.774195,0.35483 0.381439,0.19072 0.659937,0.57482 1.064516,0.70968 0.33663,0.11221 0.735055,-0.13178 1.064514,0 0.310619,0.12425 0.42281,0.53756 0.709679,0.70968 0.490217,0.29413 3.321074,1.29183 3.903226,0.70967 0.5602,-0.56019 -1.101492,-5.16364 -1.419355,-5.32258 -1.771996,-0.88599 -0.575635,0.97777 -1.419354,-0.70967 -0.599938,-1.19988 -1.441884,-0.7247 -2.483872,-1.41936 -0.278357,-0.18557 -0.41045,-0.56006 -0.709678,-0.70968 -0.211585,-0.10579 -0.485257,0.0748 -0.709676,0 -1.668121,-0.55603 -3.299624,-1.21815 -4.967743,-1.77419 -1.507781,-0.50259 -6.074656,-2.17143 -7.096773,-3.19354 -0.236561,-0.35485 -0.47312,-0.70968 -0.709678,-1.06452 -0.11828,0 -0.271204,0.0836 -0.354838,0 -0.08364,-0.0836 0.08363,-0.2712 0,-0.35484 -0.167273,-0.16727 -0.47312,0 -0.709679,0 -0.591397,0 -1.24523,-0.26448 -1.774193,0 -0.509677,0.25484 -1.487792,1.20561 -2.129033,1.41936 -0.756081,0.25202 -1.083411,-0.33595 -1.774193,0.35483 -0.545883,0.54589 0.510453,0.96491 0.709679,1.06452 0.267581,0.13379 0.779481,1.06451 1.064514,1.06451 0.48768,0 0.939543,-0.44207 1.419355,-0.35483 6.111099,1.11111 1.121079,1.06451 2.838712,1.06451"
       id="path8" />
    <path
       style="fill:#ff80e5;stroke:#000000;stroke-width:0.626999;stroke-opacity:0"
       d="m 141.58064,84.451612 c -3.41729,5.210128 -7.05017,10.107007 -11,14.903225 -0.37595,0.456518 -0.57244,1.091303 -1.06451,1.419353 -0.96927,0.64618 -2.18212,0.8414 -3.19355,1.41936 -0.65757,0.37575 -1.09679,1.08065 -1.77419,1.41935 -1.47352,0.73676 -3.10359,1.11387 -4.61291,1.7742 -1.21193,0.53021 -2.40634,1.55801 -3.54838,2.12903 -3.40523,1.70261 -8.03595,1.31265 -11.70968,2.12903 -2.2411,0.49802 -4.17194,1.17323 -6.387099,1.41935 -0.260216,0.0289 -3.469535,-0.0241 -3.903226,0 -2.897757,0.16099 -5.6525,0.4894 -8.516128,0.70968 -0.560335,0.0431 -3.601344,-0.30188 -3.903226,0 -0.225959,0.22596 0.0816,0.99621 0.354838,1.06452 0.344244,0.0861 0.727887,-0.11221 1.064517,0 0.43798,0.14599 1.291812,0.94392 1.774192,1.06451 3.726429,0.93161 -3.306855,-2.07621 3.19355,0.70968 0.972386,0.41674 1.920174,0.89448 2.838709,1.41936 1.324732,0.75699 -1.957088,-0.061 0.354838,0.70967 0.22442,0.0748 0.483095,-0.068 0.709679,0 5.786361,1.73591 0.922459,0.28381 3.903226,1.7742 0.728099,0.36405 4.33268,0 5.32258,0 0.11082,0 5.39817,0.2831 7.09677,0 0.35484,-0.11828 0.70968,-0.23656 1.06452,-0.35484 0,-0.11828 -0.10579,-0.30194 0,-0.35484 1.3753,-0.68765 2.80676,-1.26623 4.25806,-1.77419 7.35984,-2.57595 0.31879,0.27965 3.90323,-1.06452 0.5964,-0.22365 1.1828,-0.47312 1.77419,-0.70968 1.06452,-0.47312 2.10628,-1.00117 3.19355,-1.41935 1.54135,-0.59283 3.18818,-0.96006 4.6129,-1.7742 1.74262,-0.99577 6.58149,-3.83997 7.80646,-5.67741 0.5914,-0.94624 1.18279,-1.89248 1.77419,-2.83871 0.23656,-0.23656 0.52411,-0.43132 0.70968,-0.70968 0.58683,-0.88025 0.7846,-1.992372 1.41935,-2.838711 0.071,-0.09462 0.27121,0.08364 0.35484,0 0.68212,-0.682119 0.003,-0.890989 0.35484,-1.419354 0.18557,-0.278361 0.53755,-0.422807 0.70968,-0.709679 0.38487,-0.641461 0.29472,-1.506604 0.70968,-2.129031 0.0656,-0.09841 0.2712,0.08364 0.35483,0 0.17742,-0.177421 -0.17742,-0.887097 0,-1.064516 0.0836,-0.08364 0.28387,0.09462 0.35484,0 0.31738,-0.42317 0.42933,-0.970796 0.70968,-1.419355 0.4695,-0.7512 1.36377,-1.66302 1.77419,-2.483871 0.0529,-0.105794 -0.0836,-0.271203 0,-0.354838 0.0836,-0.08364 0.27121,0.08364 0.35484,0 0.16728,-0.167275 -0.16727,-0.542407 0,-0.709679 0.0836,-0.08364 0.23656,0 0.35484,0"
       id="path9" />
    <path
       style="fill:#ff80e5;stroke:#000000;stroke-width:0.626999;stroke-opacity:0"
       d="m 122.41935,163.58064 c 1.85837,0.841 3.98951,0.93665 6.03226,0.70968 0.26286,-0.0292 0.44922,-0.30887 0.70968,-0.35484 1.80943,-2.90738 4.02798,-0.42335 6.03226,-0.70968 1.66342,-0.23763 2.15303,-0.56382 3.90322,-0.70967 1.76807,-0.14734 3.5529,0.1264 5.32258,0 1.31905,-0.0942 2.59104,-0.54566 3.90323,-0.70968 0.90734,-0.11342 2.00763,-0.0224 2.83871,-0.35484 1.67273,-0.66909 3.28087,-1.49645 4.96774,-2.12903 0.40458,-0.15172 2.32226,-0.29161 2.48387,0.35484 0.23297,0.93188 0.0911,4.55777 0,4.96774 -0.0574,0.25818 -0.5473,0.14607 -0.70968,0.35484 -1.10844,1.42514 -1.68288,3.22591 -2.83871,4.6129 -0.23936,0.28723 -1.59701,0.60337 -1.77419,0.70968 -0.28687,0.17212 -0.41045,0.56006 -0.70968,0.70968 -0.43619,0.21809 -0.96174,0.18624 -1.41935,0.35484 -1.79305,0.66059 -3.5431,1.43271 -5.32258,2.12903 -2.47525,0.96857 -4.90877,2.0648 -7.45161,2.83871 -1.15396,0.3512 -2.3709,0.44801 -3.54839,0.70967 -10.45758,2.32391 -20.81595,4.25807 -31.58065,4.25807 -3.584617,0 -7.118352,0.18774 -10.645158,-0.35484 -10.741027,-1.65247 6.460762,1.0727 -6.387097,-0.35484 -0.969391,-0.10771 -1.876621,-0.54933 -2.838709,-0.70968 -3.616788,-0.60279 -7.699785,-0.75992 -11.35484,-1.06451 -6.629799,-0.55248 0.2471,-0.0439 -6.387095,-1.06452 -1.610841,-0.24782 -3.353321,-0.12421 -4.967742,-0.35484 -0.576755,-0.0824 -3.886287,-1.83214 -3.19355,-2.12903 0.791467,-0.3392 1.666973,-0.43738 2.483871,-0.70968 1.313384,-0.43779 2.567583,-1.05508 3.903226,-1.41935 4.740775,-1.29294 9.810173,-1.19163 14.548387,-2.48387 1.912864,-0.52169 3.750868,-1.30558 5.677421,-1.7742 6.620703,-1.61044 13.14727,-1.97966 19.870966,-1.41935 3.41773,0.28481 11.41764,0.36281 14.90323,-0.70968 0.75835,-0.23334 1.3763,-0.81361 2.12903,-1.06452 1.57135,-0.52378 1.76603,-0.0867 2.83871,-0.35483 1.99211,-0.49803 3.96815,-1.41936 6.03226,-1.41936"
       id="path10" />
    <path
       style="fill:#ff2ad4;stroke:#000000;stroke-width:0.626999;stroke-opacity:0"
       d="m 58.193548,83.741934 c 14.170752,4.723585 -2.320843,-0.491501 6.741935,1.774195 0.617937,0.154482 1.156255,0.555191 1.774192,0.709676 0.688489,0.172122 1.433137,-0.139179 2.129034,0 2.96259,0.592518 1.812523,0.831151 4.612904,1.064517 3.304098,0.275341 6.611885,0.354838 9.935483,0.354838 2.201008,0 5.643993,0.451905 7.451613,0 0.873895,-0.218475 1.622915,-0.799606 2.483872,-1.064517 0.225057,-0.06925 5.6457,-1.096232 5.677418,-1.064514 0.08364,0.08363 0.07097,0.260215 0,0.354838 -1.893668,2.52489 -5.674275,2.554523 -8.51613,2.838709 C 87.614743,88.99659 84.799796,88.257458 81.967741,88 c -1.301075,-0.118282 -2.601299,-0.246345 -3.903226,-0.35484 -0.942967,-0.07858 -1.910847,0.185573 -2.838709,0 -1.486495,-0.2973 -0.733465,-0.366731 -2.129033,-1.064517 -0.718222,-0.359111 -1.846527,-0.03617 -2.483872,-0.354838 -0.381439,-0.19072 -0.668554,-0.551294 -1.064514,-0.709676 -0.312049,-0.12482 -3.948707,-1.002647 -4.258066,-1.064517 -2.327421,-0.465484 -4.738764,-0.316677 -7.096773,-0.709678 z"
       id="path11" />
    <path
       style="fill:#ff2ad4;stroke:#000000;stroke-width:0.626999;stroke-opacity:0"
       d="m 70.612901,191.96774 c 5.56437,0.34447 11.125372,0.60184 16.677421,1.06452 2.422371,0.20186 4.363532,-0.2523 6.741935,-0.70968 7.067933,-1.35922 4.335549,-0.33005 9.935483,-2.48387 1.05648,-0.40634 4.75478,-3.12261 5.32258,-2.83871 0.10579,0.0529 0.0656,0.25642 0,0.35484 -0.85362,1.28043 -2.83888,2.87817 -4.25806,3.19354 -6.5769,1.46154 2.60612,-1.36703 -6.032261,1.7742 -1.634828,0.59448 -4.244893,-0.17874 -6.032259,0 -4.152892,0.41529 -8.231844,0.35484 -12.419354,0.35484 -1.928746,0 -3.786192,-0.0847 -5.677418,-0.35484 -1.670656,-0.23867 -2.508187,-0.79231 -4.258067,-0.35484 z"
       id="path12" />
    <path
       style="fill:#ff2ad4;stroke:#000000;stroke-width:0.626999;stroke-opacity:0"
       d="m 170.67742,158.6129 c -2.36342,0.78111 -3.68166,2.98804 -5.67742,4.25807 -0.53738,0.34196 -1.25238,0.3444 -1.7742,0.70967 -0.78853,0.55198 -1.98709,2.12903 -2.83871,2.83871 -0.32761,0.27302 -0.76296,0.40813 -1.06451,0.70968 -1.279,1.279 -2.3507,3.22304 -3.90323,4.25807 -1.87655,1.25103 -4.75469,3.26444 -6.74193,4.25806 -0.31738,0.15869 -0.72464,-0.10196 -1.06452,0 -0.82796,0.35484 -1.65591,0.70968 -2.48387,1.06452 0,0.11828 0.0984,0.28922 0,0.35483 -2.24801,1.49868 -0.0839,-0.32127 -1.77419,0.35484 -2.02446,0.80978 -0.22423,0.54786 -1.7742,1.06452 -1.78221,0.59407 -3.22488,1.14042 -4.96774,1.77419 -3.2151,1.16913 -6.57997,2.04805 -9.58064,3.54839 -0.13808,0.069 -0.67502,0.90443 -0.35484,1.06452 0.21158,0.10579 0.48525,-0.0748 0.70967,0 0.50182,0.16727 0.92823,0.51322 1.41936,0.70967 3.2299,1.29196 6.62228,2.13333 9.93548,3.19355 0.87386,0.27963 2.25238,0.66856 3.19355,0.35484 2.27321,-0.75773 3.80284,-1.80975 6.03226,-2.83871 0.37238,-0.17187 1.69011,-0.27076 2.12903,-0.70968 0.0836,-0.0836 -0.10142,-0.29398 0,-0.35484 0.54619,-0.32771 1.26055,-0.333 1.7742,-0.70967 2.48174,-1.81995 4.8058,-5.21462 7.09677,-6.74194 0.0984,-0.0656 0.2712,0.0836 0.35484,0 0.18702,-0.18702 0.14831,-0.54446 0.35484,-0.70968 0.41305,-0.33044 0.99618,-0.3923 1.41935,-0.70967 0.0946,-0.071 -0.0687,-0.25859 0,-0.35484 0.53695,-0.75172 1.12098,-1.47581 1.7742,-2.12904 0.41818,-0.41817 1.00117,-0.64633 1.41935,-1.06451 0.0836,-0.0836 -0.0529,-0.24905 0,-0.35484 0.40285,-0.80569 0.66167,-1.67818 1.06452,-2.48387 0.38144,-0.76288 1.02028,-1.37523 1.41935,-2.12903 0.6687,-1.26309 1.03889,-2.67772 1.77419,-3.90323 0.34425,-0.57374 1.00138,-0.89688 1.41936,-1.41935 0.58175,-0.72719 0.66409,-3.53857 0.70968,-3.90323 z"
       id="path13" />
    <path
       style="fill:#ff2ad4;stroke:#000000;stroke-width:0.626999;stroke-opacity:0"
       d="m 40.806452,149.74193 c 2.761069,0.91374 5.62933,0.82395 8.516127,1.06452 3.501769,0.29181 7.127378,0 10.645161,0 0.01931,0 7.786169,0.33455 7.096776,-0.35484 -0.679246,-0.67924 -4.912127,-0.7035 -4.967742,-0.70968 -4.842833,-0.53809 -9.724263,-0.73019 -14.548387,-1.41935 -0.960462,0.60307 -0.917538,-0.54241 -1.419355,-0.70968 -0.448839,-0.14961 -1.04086,0.28387 -1.419355,0 -0.0508,-0.0381 -1.633733,-2.02369 -1.774195,-2.12903 -0.299225,-0.22442 -0.775031,-0.11799 -1.064514,-0.35484 -1.035695,-0.84739 -1.844048,-1.94351 -2.838709,-2.83871 -0.392898,-0.35361 -0.817634,-0.21591 -1.064517,-0.70968 -0.0529,-0.10579 0.08364,-0.2712 0,-0.35483 -0.301556,-0.30156 -0.736899,-0.43667 -1.064516,-0.70968 -0.883942,-0.73662 -1.666135,-1.66614 -2.483872,-2.48387"
       id="path14" />
    <path
       style="fill:#ff2ad4;stroke:#000000;stroke-width:0.626999;stroke-opacity:0"
       d="m 156.48387,91.548385 c -0.0122,0.803643 -1.29386,7.68096 -1.77419,8.16129 -0.18702,0.187018 -0.53275,0.158253 -0.70968,0.354845 -0.90216,1.0024 -1.61276,2.16404 -2.48387,3.19354 -1.73215,2.04709 -3.80607,3.82068 -5.32258,6.03226 -0.95071,1.38645 -3.5794,7.16913 -4.61291,9.58065 -5.3e-4,0.001 -0.88363,2.69071 -1.06451,2.83871 -2.66067,2.17691 -3.70008,2.76527 -6.3871,4.25806 -0.53552,0.29751 -2.28293,1.62029 -2.83871,1.06452 -0.86694,-0.86694 2.31397,-1.00384 2.48387,-1.06452 5.39924,-1.9283 1.82261,-0.67878 6.74194,-3.54839 0.32308,-0.18846 0.76202,-0.13484 1.06451,-0.35484 1.01685,-0.73952 1.84213,-1.71726 2.83871,-2.48387 0.67605,-0.52003 1.65592,-0.70967 2.12904,-1.41935 2.02544,-3.03818 3.20686,-4.02993 6.38709,-7.80645 0.17036,-0.20231 0.16783,-0.52266 0.35484,-0.70968 0.77109,-0.77109 1.99619,-1.15367 2.48387,-2.12903 1.13079,-2.26159 0.85079,-4.98784 1.41936,-7.45161 0.53459,-2.316561 1.77419,-4.296845 1.77419,-6.741939 0,-1.515975 -1.06452,-1.76076 -1.06452,-3.903226 0,-0.354841 0,-0.709679 0,-1.064517 0,-0.118279 0.11828,-0.354838 0,-0.354838 -0.35484,0 0,0.709676 0,1.064514"
       id="path15" />
  </g>
</svg>
